<?xml version="1.0" encoding="UTF-8"?>
<svg width="91px" height="84px" viewBox="0 0 91 84" version="1.1" xmlns="http://www.w3.org/2000/svg" xmlns:xlink="http://www.w3.org/1999/xlink">
    <title>Shape</title>
    <defs>
        <filter id="filter-1">
            <feColorMatrix in="SourceGraphic" type="matrix" values="0 0 0 0 0.000000 0 0 0 0 0.384314 0 0 0 0 0.854902 0 0 0 1.000000 0"></feColorMatrix>
        </filter>
    </defs>
    <g id="Page-1" stroke="none" stroke-width="1" fill="none" fill-rule="evenodd">
        <g id="Group-8" transform="translate(-128.000000, -1251.000000)" filter="url(#filter-1)">
            <g transform="translate(128.000000, 1251.000000)">
                <path d="M89.8374984,56.9505531 L57.6887673,56.9505531 L57.6887673,51.7864165 L55.5824375,51.7864165 C53.4384317,44.6955425 51.7981263,37.8567287 50.6568387,31.2896405 L52.362919,31.2896405 C52.9638255,31.2896405 53.4500686,30.804966 53.4500686,30.2060027 C53.4500686,29.6070395 52.9638255,29.122369 52.362919,29.122369 L50.2961822,29.122369 C49.6870447,25.273773 49.2596915,21.5270881 49.0054635,17.8797727 L51.1398921,17.8797727 C51.7407948,17.8797727 52.2270417,17.3951002 52.2270417,16.7962081 C52.2270417,16.1972449 51.7407948,15.7125724 51.1398921,15.7125724 L48.8536218,15.7125724 C48.6497749,11.7202649 48.6651686,7.85709981 48.8973997,4.12774438 C48.9406838,3.90963101 48.9656585,3.68486942 48.9656585,3.45402561 C48.9656585,1.54631232 47.4140466,0 45.500355,0 C43.5867366,0 42.035121,1.54631232 42.035121,3.45402561 C42.035121,3.68486942 42.0600995,3.90963101 42.1033103,4.12774438 C42.3355414,7.85709981 42.3509351,11.7202649 42.1471577,15.7125724 L39.8608179,15.7125724 C39.2599152,15.7125724 38.7736683,16.1972449 38.7736683,16.7962081 C38.7736683,17.3951002 39.2599152,17.8797727 39.8608179,17.8797727 L41.9953159,17.8797727 C41.7410184,21.5270879 41.3137385,25.273773 40.704601,29.122369 L38.6377909,29.122369 C38.0368844,29.122369 37.5506413,29.6070396 37.5506413,30.2060027 C37.5506413,30.8049659 38.0368844,31.2896405 38.6377909,31.2896405 L40.3438712,31.2896405 C39.2025836,37.8567287 37.5623475,44.6955425 35.4183418,51.7864165 L33.3120121,51.7864165 L33.3120121,56.9505531 L1.16250407,56.9505531 C0.519948217,56.9505531 0,57.4688218 0,58.1092952 C0,58.7497763 0.519948217,59.268045 1.16250407,59.268045 L44.3374931,59.268045 L44.3374931,63.476062 L43.3679845,64.4427889 C43.1409334,64.6691057 43.1409334,65.035743 43.3679845,65.2620597 C43.48151,65.3752142 43.6302276,65.4317915 43.778949,65.4317915 C43.9276665,65.4317915 44.0763841,65.3752142 44.1899095,65.2620597 L44.3374931,65.1148804 L44.3374931,66.952296 L43.3679845,67.9190229 C43.1409334,68.1453397 43.1409334,68.511977 43.3679845,68.7382937 C43.48151,68.8514482 43.6302276,68.9080255 43.778949,68.9080255 C43.9276665,68.9080255 44.0763841,68.8514482 44.1899095,68.7382937 L44.3374931,68.5911144 L44.3374931,70.4285299 L43.3679845,71.3952569 C43.1409334,71.6215737 43.1409334,71.9882032 43.3679845,72.2145277 C43.48151,72.3276822 43.6302276,72.3842595 43.778949,72.3842595 C43.9276665,72.3842595 44.0763841,72.3276822 44.1899095,72.2145277 L44.3374931,72.0673484 L44.3374931,73.9051177 L43.3679845,74.871491 C43.1409334,75.0978078 43.1409334,75.4644373 43.3679845,75.6907618 C43.48151,75.8039163 43.6302276,75.8604936 43.778949,75.8604936 C43.9276665,75.8604936 44.0763841,75.8039163 44.1899095,75.6907618 L44.3374931,75.5436516 L44.3374931,77.3821283 L43.3679845,78.3488553 C43.1409334,78.5751721 43.1409334,78.9418094 43.3679845,79.1681261 C43.48151,79.2812806 43.6302276,79.3378579 43.778949,79.3378579 C43.9276665,79.3378579 44.0763841,79.2812806 44.1899095,79.1681261 L44.3374931,79.0209468 L44.3374931,80.8583623 L43.3679845,81.8250893 C43.1409334,82.051406 43.1409334,82.4180434 43.3679845,82.6443601 C43.48151,82.7575146 43.6302276,82.8140919 43.778949,82.8140919 C43.9276665,82.8140919 44.0763841,82.7575146 44.1899095,82.6443601 L44.3374931,82.4971808 L44.3374931,82.8412502 C44.3374931,83.4817313 44.8574433,84 45.5,84 C46.1425538,84 46.6625041,83.4817313 46.6625041,82.8412502 L46.6625041,80.1789814 L47.6320127,79.2122545 C47.8590638,78.9859377 47.8590638,78.6193004 47.6320127,78.3929837 C47.4049616,78.166667 47.0371387,78.1666669 46.8100877,78.3929837 L46.6625041,78.540163 L46.6625041,76.7027474 L47.6320127,75.7360205 C47.8590638,75.5097037 47.8590638,75.1430664 47.6320127,74.9167497 C47.4049616,74.690433 47.0371387,74.6904329 46.8100877,74.9167497 L46.6625041,75.063929 L46.6625041,73.2261597 L47.6320127,72.2597864 C47.8590638,72.0334696 47.8590638,71.66684 47.6320127,71.4405156 C47.4049616,71.2141988 47.0371387,71.2141988 46.8100877,71.4405156 L46.6625041,71.5876257 L46.6625041,69.749149 L47.6320127,68.7824221 C47.8590638,68.5561053 47.8590638,68.189468 47.6320127,67.9631513 C47.4049616,67.7368346 47.0371387,67.7368345 46.8100877,67.9631513 L46.6625041,68.1103306 L46.6625041,66.272915 L47.6320127,65.3061881 C47.8590638,65.0798713 47.8590638,64.713234 47.6320127,64.4869173 C47.4049616,64.2606006 47.0371387,64.2606005 46.8100877,64.4869173 L46.6625041,64.6340966 L46.6625041,62.796681 L47.6320127,61.8299541 C47.8590638,61.6036373 47.8590638,61.2370078 47.6320127,61.0106833 C47.4049616,60.7843665 47.0371387,60.7843665 46.8100877,61.0106833 L46.6625041,61.1578626 L46.6625041,59.268045 L89.8374969,59.268045 C90.4800498,59.268045 91,58.7497764 91,58.1092952 C91,57.4688218 90.4800498,56.9505531 89.8374984,56.9505531 Z M46.2860737,18 L46.5228405,18 C46.5853672,18.8169784 46.6288738,19.6243331 46.7139263,20.4526198 L46.2860737,21 L46.2860737,18 Z M47,25.1036183 L47.5322501,24 C47.6658198,25.6487652 47.8182805,27.3125546 48,29 L47,29 L47,25.1036183 Z M46,32 L48.1290233,32 C48.3973303,33.3236353 48.6820665,34.6540182 49,36 L46,33.7544689 L46,32 Z M47,36 L49,38.0054934 L47,39 L47,36 Z M46,41.5856212 L49.7073104,40 C50.626968,43.9120847 51.7439865,47.9228799 53,52 L51.9248381,52 L46,47.9778438 L46,41.5856212 L46,41.5856212 Z M46,51 L48,52 L46,52 L46,51 Z M43.7687604,18 L44,18 L44,24.5170079 L43,26 C43.3466879,23.2808957 43.5955543,20.6182875 43.7687604,18 Z M43.8245888,29.0336933 L43.8245888,29.9663067 L43.1754112,29.9663067 L43.8245888,29.0336933 Z M42.9882604,32 L45,33.8827975 L45,40.1433086 L41,42 C41.7742019,38.6052511 42.4360637,35.2718936 42.9882604,32 Z M45,43 L45,47 L41,44.5459918 L45,43 Z M39.8419106,46 L45,49.2875981 L45,52 L38,52 C38.6537374,49.9821113 39.2724593,47.9799554 39.8419106,46 Z" id="Shape" fill="#000000" fill-rule="nonzero"></path>
            </g>
        </g>
    </g>
</svg>