<?xml version="1.0" encoding="UTF-8"?>
<svg width="20px" height="20px" viewBox="0 0 20 20" version="1.1" xmlns="http://www.w3.org/2000/svg" xmlns:xlink="http://www.w3.org/1999/xlink">
    <title>android-search</title>
    <defs>
        <filter id="filter-1">
            <feColorMatrix in="SourceGraphic" type="matrix" values="0 0 0 0 0.000000 0 0 0 0 0.584314 0 0 0 0 0.854902 0 0 0 1.000000 0"></feColorMatrix>
        </filter>
    </defs>
    <g id="Page-1" stroke="none" stroke-width="1" fill="none" fill-rule="evenodd">
        <g id="publications" transform="translate(-1002.000000, -420.000000)">
            <g id="android-search" transform="translate(400.000000, 406.000000)" filter="url(#filter-1)">
                <g transform="translate(602.000000, 14.000000)">
                    <path d="M14.2452604,12.5714583 L13.33375,12.5714583 L12.9915104,12.2857292 C14.074375,10.9715625 14.7582813,9.31416667 14.7582813,7.42859375 C14.7582292,3.31416667 11.4529167,0 7.35078125,0 C3.30479167,0 0,3.31416667 0,7.42859375 C0,11.5430208 3.30479167,14.8571354 7.40755208,14.8571354 C9.23104167,14.8571354 10.9404167,14.1713542 12.2508333,13.0858854 L12.5925521,13.3716667 L12.5925521,14.2857812 L18.290625,20 L20,18.2857292 L14.2452604,12.5714583 Z M7.40755208,12.5714583 C4.55848958,12.5714583 2.27927083,10.2856771 2.27927083,7.42859375 C2.27927083,4.57140625 4.55848958,2.28578125 7.40755208,2.28578125 C10.2565104,2.28578125 12.5357812,4.57140625 12.5357812,7.42859375 C12.5357812,10.2856771 10.2565104,12.5714583 7.40755208,12.5714583 Z" id="Shape" fill="#000000" fill-rule="nonzero"></path>
                </g>
            </g>
        </g>
    </g>
</svg>