<svg xmlns="http://www.w3.org/2000/svg" viewBox="0 0 491.29 332.24"><defs><style>.cls-1{fill:#eaeaea;}.cls-2{fill:#1e94d2;}.cls-3{fill:#1589ca;}.cls-4{fill:#fff;}.cls-5{fill:none;}</style></defs><title>gbc-emptyldpi</title><g id="Layer_2" data-name="Layer 2"><g id="Layer_1-2" data-name="Layer 1"><rect class="cls-1" width="491.29" height="332.24"/><rect class="cls-2" x="196.83" y="117.38" width="97.48" height="97.48"/><path class="cls-3" d="M235,178.67s-.14,3.93-.28,6.59c0,1-.14,3-.28,6.46a22.71,22.71,0,0,1-11.08,4.49c-5.61.84-10-.85-13.18-4.91-2.81-3.51-4.21-8.56-3.79-15,.28-7.16,2.24-12.91,5.75-17.25a21.51,21.51,0,0,1,14.45-7.86c2.1-.28,5.75-.84,5.75-.84l.14-3.23c-2.1.28-3.79.56-5.75.84-9.54,1.41-17.25,4.21-22.58,10.24a29.44,29.44,0,0,0-7,13.61v15.29a17.58,17.58,0,0,0,6,9.54c4.77,3.78,10.94,5.05,18.52,3.92a53.6,53.6,0,0,0,22-8.41c0-2.11.14-4.63.28-7,.28-6,.42-7.85.42-7.85Z"/><path class="cls-3" d="M265,169c-2.24-1.4-5.61-2-10.38-1.82a22.3,22.3,0,0,0,8.84-4.77,12.92,12.92,0,0,0,4.49-8.69c.42-8-4.63-11.37-15-9.82-.42,0-2.11.42-5.05,1s-4.77.84-5.33,1c-3.09.42-5.47.84-6.45.84,0,6.31-.14,14.17-.57,24.41v1.12l9.12-1.26a11.4,11.4,0,0,1,2.67-.56c4.06-.56,7.15-.28,9,1,2.11,1.54,3.09,4.21,2.95,8.41-.28,7.16-4.21,11.37-11.5,12.35a2.73,2.73,0,0,0-1,.14l-.14,3.65c1.68-.15,2.94-.29,3.78-.43,6-.84,10.52-2.94,13.75-6.31,3.08-3.36,4.77-6.87,5-10.66C269.21,174,267.81,170.82,265,169Zm-20.48-2,.56-12.06c0-1.4.14-3.37.42-6.17,1.83-.42,3.51-.71,5.19-1,2.53-.42,4.49.14,5.75,1.55a8.43,8.43,0,0,1,1.83,5.89c-.28,6.59-3.93,10.52-10.66,11.5A15.44,15.44,0,0,1,244.52,167Z"/><path class="cls-3" d="M294.32,137.86c-.85.14-1.83.14-2.53.28-8.84,1.26-15.85,4.48-21.18,9.67a14.72,14.72,0,0,1,.84,5.33c-.14,3.23-1.68,6-4.49,8.7a19.41,19.41,0,0,1-5.33,3.51c0,.42-.14.84-.14,1.26,3.09.14,5.33.7,7,1.82a7.87,7.87,0,0,1,3.22,4.07,31.26,31.26,0,0,1-.14-5.19c.28-7.15,2.25-12.9,5.75-17.25a21.55,21.55,0,0,1,14.45-7.86c.7-.14,1.68-.14,2.53-.28v-4.06Z"/><path class="cls-4" d="M263,166.33c-2.25-1.4-5.61-2-10.38-1.82a22.51,22.51,0,0,0,8.83-4.77A12.9,12.9,0,0,0,266,151c.42-8-4.63-11.36-15-9.82-.42,0-2.1.42-5.05,1s-4.76.85-5.33,1c-3.08.42-5.47.84-6.45.84,0,6.31-.14,14.16-.56,24.4v1.13l9.12-1.27a11.33,11.33,0,0,1,2.66-.56c4.07-.56,7.16-.28,9,1,2.1,1.55,3.09,4.21,3,8.42-.28,7.15-4.21,11.36-11.51,12.34a2.73,2.73,0,0,0-1,.14l-.14,3.65c1.69-.14,3-.28,3.79-.42,6-.84,10.52-3,13.75-6.31s4.76-6.88,5-10.66C267.24,171.38,265.84,168.15,263,166.33Zm-20.48-2,.56-12.07c0-1.4.14-3.36.42-6.17,1.82-.42,3.51-.7,5.19-1,2.52-.42,4.49.14,5.75,1.54a8.49,8.49,0,0,1,1.82,5.89c-.28,6.6-3.92,10.52-10.66,11.51C244.94,164.23,244,164.23,242.56,164.37Z"/><polygon class="cls-4" points="239.33 182.32 222.22 184.7 226.01 176.99 238.35 175.17 239.33 182.32"/><rect class="cls-5" x="196.83" y="117.38" width="97.48" height="97.48"/><path class="cls-4" d="M294.32,135.05c-1.69.14-3.23.28-4.49.42C281,136.73,274,140,268.65,145.15a14.68,14.68,0,0,1,.84,5.33c-.14,3.23-1.68,6-4.49,8.7a19.53,19.53,0,0,1-5.33,3.5c0,.42-.14.84-.14,1.26,3.09.15,5.33.71,7,1.83a7.76,7.76,0,0,1,3.23,4.07,31.3,31.3,0,0,1-.14-5.19c.28-7.16,2.24-12.91,5.75-17.26a21.54,21.54,0,0,1,14.45-7.85l4.49-.42v-4.07Z"/><path class="cls-3" d="M294.32,185.83a45.6,45.6,0,0,1-6.32,1.54c-5.61.84-10-.84-13.18-4.91a14.33,14.33,0,0,1-2.95-6v1.68a15.73,15.73,0,0,1-4.2,9.68c4.76,3.79,10.94,5.05,18.51,3.93a69,69,0,0,0,8.14-1.69Z"/><path class="cls-4" d="M294.32,182.46A37,37,0,0,1,286,184.7c-5.61.85-10-.84-13.18-4.91a14.16,14.16,0,0,1-2.95-6v1.69a15.66,15.66,0,0,1-4.21,9.67c4.77,3.79,10.94,5,18.52,3.93a86,86,0,0,0,10.24-2.24v-4.35Z"/><path class="cls-4" d="M233,176s-.14,3.92-.28,6.59c0,1-.14,3-.28,6.45a22.56,22.56,0,0,1-11.08,4.49c-5.61.84-10-.84-13.19-4.91-2.8-3.51-4.2-8.55-3.78-15,.28-7.15,2.24-12.9,5.75-17.25a21.46,21.46,0,0,1,14.44-7.85c2.11-.28,5.76-.85,5.76-.85l.14-3.22c-2.11.28-3.79.56-5.76.84-9.53,1.4-17.25,4.21-22.58,10.24a31.28,31.28,0,0,0-5,7.85v25.81a16.61,16.61,0,0,0,4.07,4.77c4.77,3.79,10.94,5,18.51,3.93a53.66,53.66,0,0,0,22-8.42c0-2.1.14-4.63.28-7,.28-6,.42-7.86.42-7.86Z"/></g></g></svg>