<?xml version="1.0" encoding="UTF-8"?>
<svg width="61px" height="47px" viewBox="0 0 61 47" version="1.1" xmlns="http://www.w3.org/2000/svg" xmlns:xlink="http://www.w3.org/1999/xlink">
    <title>Shape</title>
    <defs>
        <filter id="filter-1">
            <feColorMatrix in="SourceGraphic" type="matrix" values="0 0 0 0 0.000000 0 0 0 0 0.384314 0 0 0 0 0.854902 0 0 0 1.000000 0"></feColorMatrix>
        </filter>
    </defs>
    <g id="Page-1" stroke="none" stroke-width="1" fill="none" fill-rule="evenodd">
        <g id="Group-8" transform="translate(-767.000000, -1262.000000)" filter="url(#filter-1)">
            <g transform="translate(128.000000, 1251.000000)">
                <path d="M689.355295,12.3578732 L688.568461,13.7095144 L670.875207,13.7095144 L670.875207,11 L668.069392,11 L668.069392,13.7095144 L650.006564,13.7095144 L649.185367,12.3564883 L639,29.8938947 L639,29.8938947 C640.023866,32.2177205 645.06185,33.7992516 649.388738,33.7992516 C653.715626,33.7992516 658.80831,32.218413 659.832877,29.8938947 L659.832877,29.8938947 L651.68823,16.4799635 L668.069392,16.4799635 L668.069392,58 L670.875207,58 L670.875207,16.4799635 L686.959728,16.4799635 L679.167123,29.8938947 L679.167123,29.8938947 C680.190989,32.2177205 685.228973,33.7992516 689.555861,33.7992516 C693.882749,33.7992516 698.976134,32.218413 700,29.8938947 L700,29.8938947 L689.355295,12.3578732 Z M655,27 L644,27 L649.378399,18 L655,27 Z M684,27 L689.379082,18 L695,27 L684,27 Z" id="Shape" fill="#000000" fill-rule="nonzero"></path>
            </g>
        </g>
    </g>
</svg>