<?xml version="1.0" encoding="UTF-8" standalone="no"?>
<svg width="48px" height="46px" viewBox="0 0 48 46" version="1.1" xmlns="http://www.w3.org/2000/svg" xmlns:xlink="http://www.w3.org/1999/xlink" xmlns:sketch="http://www.bohemiancoding.com/sketch/ns">
    <!-- Generator: Sketch 3.3.3 (12072) - http://www.bohemiancoding.com/sketch -->
    <title>noun_179049_cc</title>
    <desc>Created with Sketch.</desc>
    <defs></defs>
    <g id="Page-1" stroke="none" stroke-width="1" fill="none" fill-rule="evenodd" sketch:type="MSPage">
        <g id="Homepage" sketch:type="MSArtboardGroup" transform="translate(-711.000000, -2460.000000)">
            <g id="Carefully-Processed-Orders" sketch:type="MSLayerGroup" transform="translate(711.000000, 2460.000000)">
                <g id="noun_179049_cc" sketch:type="MSShapeGroup">
                    <g id="Group">
                        <g fill="#4A8A26">
                            <path d="M9.5,17 L0.5,11 L16.7,0.1 L25.7,6.1 L9.5,17 L9.5,17 Z M4,11 L9.5,14.7 L22.3,6.2 L16.8,2.5 L4,11 L4,11 Z" id="Shape"></path>
                            <path d="M16.7,31.5 L0.5,20.6 L9.5,14.6 L25.7,25.5 L16.7,31.5 L16.7,31.5 Z M4,20.6 L16.8,29.1 L22.3,25.4 L9.5,17 L4,20.6 L4,20.6 Z" id="Shape"></path>
                            <path d="M38.5,17 L22.3,6.1 L31.3,0.1 L47.5,11 L38.5,17 L38.5,17 Z M25.7,6.1 L38.5,14.6 L44,11 L31.3,2.4 L25.7,6.1 L25.7,6.1 Z" id="Shape"></path>
                            <path d="M31.3,31.5 L22.3,25.5 L38.5,14.6 L47.5,20.6 L31.3,31.5 L31.3,31.5 Z M25.7,25.5 L31.2,29.2 L44,20.6 L38.5,17 L25.7,25.5 L25.7,25.5 Z" id="Shape"></path>
                            <path d="M24,26.6 L7.8,15.8 L24,4.9 L40.2,15.7 L24,26.6 L24,26.6 Z M11.2,15.8 L24,24.3 L36.8,15.8 L24,7.3 L11.2,15.8 L11.2,15.8 Z" id="Shape"></path>
                            <path d="M24,45.9 L8.5,37.1 L8.5,23.7 L16.7,29.2 L24,24.4 L31.3,29.2 L39.5,23.7 L39.5,37.1 L24,45.9 L24,45.9 Z M10.5,35.9 L24,43.7 L37.5,36 L37.5,27.4 L31.2,31.6 L24,26.6 L16.7,31.4 L10.4,27.2 L10.4,35.9 L10.5,35.9 Z" id="Shape"></path>
                            <rect id="Rectangle-path" x="23" y="24.1" width="1.9" height="20.7"></rect>
                        </g>
                        <rect id="Rectangle-path" fill="#000000" transform="translate(29.609955, 36.587775) rotate(45.000000) translate(-29.609955, -36.587775) " x="28.6599641" y="34.087799" width="1.89998178" height="4.99995205"></rect>
                    </g>
                </g>
            </g>
        </g>
    </g>
</svg>