<?xml version="1.0" encoding="UTF-8" standalone="no"?>
<svg width="74px" height="42px" viewBox="0 0 74 42" version="1.1" xmlns="http://www.w3.org/2000/svg" xmlns:xlink="http://www.w3.org/1999/xlink" xmlns:sketch="http://www.bohemiancoding.com/sketch/ns">
    <!-- Generator: Sketch 3.3.3 (12072) - http://www.bohemiancoding.com/sketch -->
    <title>Imported Layers</title>
    <desc>Created with Sketch.</desc>
    <defs></defs>
    <g id="Page-1" stroke="none" stroke-width="1" fill="none" fill-rule="evenodd" sketch:type="MSPage">
        <g id="Homepage" sketch:type="MSArtboardGroup" transform="translate(-1002.000000, -2465.000000)" fill="#4A8A26">
            <g id="Safe-Delivery" sketch:type="MSLayerGroup" transform="translate(1001.000000, 2465.000000)">
                <g id="Imported-Layers" transform="translate(0.500000, 0.629721)" sketch:type="MSShapeGroup">
                    <path d="M32.174,33.625 L25.253,33.625 C24.701,33.625 24.253,33.177 24.253,32.625 C24.253,32.072 24.701,31.625 25.253,31.625 L31.999,31.625 L31.999,2.2 L19.405,2.2 C17.289,2.2 15.593,3.66 14.367,6.54 L9.802,17.255 C9.717,17.455 9.57,17.621 9.382,17.729 C6.18,19.579 5.14,21.359 4.745,25.667 C4.695,26.217 4.224,26.624 3.658,26.571 C3.108,26.521 2.703,26.034 2.754,25.484 C3.193,20.69 4.551,18.294 8.091,16.169 L12.527,5.755 C14.075,2.121 16.454,0.2 19.405,0.2 L32.174,0.2 C33.18,0.2 33.999,1.018 33.999,2.024 L33.999,31.8 C33.999,32.806 33.18,33.625 32.174,33.625 L32.174,33.625 Z M7.876,33.619 L4.699,33.619 C4.147,33.619 3.699,33.171 3.699,32.619 C3.699,32.066 4.147,31.619 4.699,31.619 L7.876,31.619 C8.428,31.619 8.876,32.066 8.876,32.619 C8.876,33.171 8.428,33.619 7.876,33.619 L7.876,33.619 Z" id="Fill-1"></path>
                    <path d="M30.659,20.234 L25.75,20.234 C25.197,20.234 24.75,19.786 24.75,19.234 C24.75,18.682 25.197,18.234 25.75,18.234 L30.659,18.234 C31.211,18.234 31.659,18.682 31.659,19.234 C31.659,19.786 31.211,20.234 30.659,20.234" id="Fill-2"></path>
                    <path d="M31.935,17.749 L17.567,17.749 L17.567,15.749 L29.934,15.749 L29.931,3.946 L19.874,3.949 C18.421,3.949 17.391,5.289 16.466,6.688 L13.815,13.586 L11.947,12.868 L14.736,5.679 C15.592,4.376 17.188,1.949 19.873,1.949 L31.93,1.945 L31.935,17.749" id="Fill-3"></path>
                    <path d="M73.004,33.625 L69.021,33.625 C68.468,33.625 68.021,33.177 68.021,32.625 C68.021,32.072 68.468,31.625 69.021,31.625 L72.004,31.625 L72.004,23.317 L34.035,23.317 L34.035,31.625 L51.523,31.625 C52.075,31.625 52.522,32.072 52.522,32.625 C52.522,33.177 52.075,33.625 51.523,33.625 L33.035,33.625 C32.482,33.625 32.035,33.177 32.035,32.625 L32.035,22.317 C32.035,21.765 32.482,21.317 33.035,21.317 L73.004,21.317 C73.557,21.317 74.004,21.765 74.004,22.317 L74.004,32.625 C74.004,33.177 73.557,33.625 73.004,33.625" id="Fill-4"></path>
                    <path d="M70.093,31.106 C69.541,31.106 69.093,30.659 69.093,30.106 L69.093,24.835 C69.093,24.283 69.541,23.835 70.093,23.835 C70.646,23.835 71.093,24.283 71.093,24.835 L71.093,30.106 C71.093,30.659 70.646,31.106 70.093,31.106" id="Fill-5"></path>
                    <path d="M60.306,40.717 C55.844,40.717 52.213,37.086 52.213,32.625 C52.213,28.163 55.844,24.532 60.306,24.532 C64.768,24.532 68.398,28.163 68.398,32.625 C68.398,37.086 64.768,40.717 60.306,40.717 L60.306,40.717 Z M60.306,26.532 C56.947,26.532 54.213,29.265 54.213,32.625 C54.213,35.984 56.947,38.717 60.306,38.717 C63.666,38.717 66.398,35.984 66.398,32.625 C66.398,29.265 63.666,26.532 60.306,26.532 L60.306,26.532 Z" id="Fill-6"></path>
                    <path d="M60.306,37.46 C57.64,37.46 55.471,35.291 55.471,32.625 C55.471,29.959 57.64,27.79 60.306,27.79 C62.972,27.79 65.141,29.959 65.141,32.625 C65.141,35.291 62.972,37.46 60.306,37.46 L60.306,37.46 Z M60.306,29.79 C58.743,29.79 57.471,31.062 57.471,32.625 C57.471,34.188 58.743,35.46 60.306,35.46 C61.869,35.46 63.141,34.188 63.141,32.625 C63.141,31.062 61.869,29.79 60.306,29.79 L60.306,29.79 Z" id="Fill-7"></path>
                    <path d="M16.545,40.717 C12.082,40.717 8.452,37.086 8.452,32.625 C8.452,28.163 12.082,24.532 16.545,24.532 C21.007,24.532 24.637,28.163 24.637,32.625 C24.637,37.086 21.007,40.717 16.545,40.717 L16.545,40.717 Z M16.545,26.532 C13.185,26.532 10.452,29.265 10.452,32.625 C10.452,35.984 13.185,38.717 16.545,38.717 C19.904,38.717 22.637,35.984 22.637,32.625 C22.637,29.265 19.904,26.532 16.545,26.532 L16.545,26.532 Z" id="Fill-8"></path>
                    <path d="M16.544,37.461 C13.878,37.461 11.709,35.292 11.709,32.625 C11.709,29.959 13.878,27.79 16.544,27.79 C19.211,27.79 21.38,29.959 21.38,32.625 C21.38,35.292 19.211,37.461 16.544,37.461 L16.544,37.461 Z M16.544,29.79 C14.981,29.79 13.709,31.062 13.709,32.625 C13.709,34.189 14.981,35.461 16.544,35.461 C18.108,35.461 19.38,34.189 19.38,32.625 C19.38,31.062 18.108,29.79 16.544,29.79 L16.544,29.79 Z" id="Fill-9"></path>
                    <path d="M4.999,33.619 L2.725,33.619 C1.719,33.619 0.9,32.8 0.9,31.794 L0.9,26.4 C0.9,25.394 1.719,24.575 2.725,24.575 L4.999,24.575 C6.005,24.575 6.823,25.394 6.823,26.4 L6.823,31.794 C6.823,32.8 6.005,33.619 4.999,33.619 L4.999,33.619 Z M2.9,31.619 L4.823,31.619 L4.823,26.575 L2.9,26.575 L2.9,31.619 Z" id="Fill-10"></path>
                    <path d="M15.969,19.58 C14.726,19.58 13.179,19.198 12.011,18.53 C10.741,17.804 10.364,16.825 10.271,16.131 C10.125,15.036 10.597,14.002 11.133,13.458 C11.308,13.274 12.808,11.749 15.705,10.48 C15.971,10.364 16.273,10.369 16.534,10.492 C19.331,11.816 18.707,17.163 18.252,18.419 C18.178,18.687 17.981,19.061 17.465,19.31 C17.085,19.493 16.561,19.58 15.969,19.58 L15.969,19.58 Z M15.988,12.55 C13.725,13.636 12.596,14.821 12.584,14.834 C12.577,14.842 12.567,14.852 12.56,14.859 C12.424,14.995 12.195,15.429 12.253,15.865 C12.302,16.229 12.547,16.533 13.003,16.794 C14.259,17.512 15.844,17.659 16.438,17.552 C16.688,16.642 16.826,13.557 15.988,12.55 L15.988,12.55 Z" id="Fill-11"></path>
                    <path d="M36.593,31.106 C36.041,31.106 35.593,30.659 35.593,30.106 L35.593,24.835 C35.593,24.283 36.041,23.835 36.593,23.835 C37.146,23.835 37.593,24.283 37.593,24.835 L37.593,30.106 C37.593,30.659 37.146,31.106 36.593,31.106" id="Fill-12"></path>
                    <path d="M41.381,31.215 C40.829,31.215 40.381,30.768 40.381,30.215 L40.381,24.944 C40.381,24.392 40.829,23.944 41.381,23.944 C41.933,23.944 42.381,24.392 42.381,24.944 L42.381,30.215 C42.381,30.768 41.933,31.215 41.381,31.215" id="Fill-13"></path>
                    <path d="M46.169,31.215 C45.617,31.215 45.169,30.768 45.169,30.215 L45.169,24.944 C45.169,24.392 45.617,23.944 46.169,23.944 C46.721,23.944 47.169,24.392 47.169,24.944 L47.169,30.215 C47.169,30.768 46.721,31.215 46.169,31.215" id="Fill-14"></path>
                    <path d="M50.959,31.215 C50.406,31.215 49.958,30.768 49.958,30.215 L49.958,24.944 C49.958,24.392 50.406,23.944 50.959,23.944 C51.511,23.944 51.959,24.392 51.959,24.944 L51.959,30.215 C51.959,30.768 51.511,31.215 50.959,31.215" id="Fill-15"></path>
                    <path d="M56.377,23.3 L35.798,23.3 L35.798,11.36 C35.798,10.661 36.367,10.092 37.066,10.092 L55.108,10.092 C55.808,10.092 56.377,10.661 56.377,11.36 L56.377,23.3 L56.377,23.3 Z M37.798,21.3 L54.376,21.3 L54.376,12.092 L37.798,12.092 L37.798,21.3 Z" id="Fill-16"></path>
                    <path d="M70.761,23.305 L54.406,23.305 L54.406,13.852 C54.406,13.187 54.947,12.646 55.613,12.646 L69.553,12.646 C70.219,12.646 70.761,13.187 70.761,13.852 L70.761,23.305 L70.761,23.305 Z M56.406,21.305 L68.761,21.305 L68.761,14.646 L56.406,14.646 L56.406,21.305 Z" id="Fill-17"></path>
                    <path d="M54.393,12.094 L38.038,12.094 L38.038,2.643 C38.038,1.977 38.58,1.435 39.246,1.435 L53.185,1.435 C53.852,1.435 54.393,1.977 54.393,2.643 L54.393,12.094 L54.393,12.094 Z M40.038,10.094 L52.393,10.094 L52.393,3.435 L40.038,3.435 L40.038,10.094 Z" id="Fill-18"></path>
                </g>
            </g>
        </g>
    </g>
</svg>