<?xml version="1.0" encoding="UTF-8" standalone="no"?>
<svg width="32px" height="24px" viewBox="0 0 32 24" version="1.1" xmlns="http://www.w3.org/2000/svg" xmlns:xlink="http://www.w3.org/1999/xlink" xmlns:sketch="http://www.bohemiancoding.com/sketch/ns">
    <!-- Generator: Sketch 3.3.3 (12072) - http://www.bohemiancoding.com/sketch -->
    <title>My Evron Wallet</title>
    <desc>Created with Sketch.</desc>
    <defs></defs>
    <g id="Page-1" stroke="none" stroke-width="1" fill="none" fill-rule="evenodd" sketch:type="MSPage">
        <g id="Homepage" sketch:type="MSArtboardGroup" transform="translate(-1086.000000, -3647.000000)" fill="#000000">
            <g id="Footer" sketch:type="MSLayerGroup" transform="translate(57.000000, 3624.000000)">
                <g id="My-Evron-Wallet" transform="translate(1029.000000, 23.000000)" sketch:type="MSShapeGroup">
                    <g id="Wallet-Icon" transform="translate(0.563950, 0.151962)">
                        <path d="M27.5536979,23.5555563 L1.5670871,23.5555563 C0.898547099,23.5555563 0.354703432,23.0117126 0.354703432,22.3431726 L0.356275235,2.99480771 C0.356275235,2.70559605 0.590473808,2.47087354 0.880209404,2.47087354 L27.5536979,2.47087354 C28.6015663,2.47087354 29.4545311,3.32331443 29.4545311,4.3717067 L29.4545311,10.4252421 C29.4545311,10.7144538 29.2198086,10.9491763 28.9305969,10.9491763 C28.6408613,10.9491763 28.4066628,10.7144538 28.4066628,10.4252421 L28.4066628,4.3717067 C28.4066628,3.90121382 28.0236669,3.51874188 27.5536979,3.51874188 L1.40414357,3.51874188 L1.40257177,22.3431726 C1.40257177,22.4322414 1.47749436,22.507688 1.5670871,22.507688 L27.5536979,22.507688 C28.0236669,22.507688 28.4066628,22.125216 28.4066628,21.6547231 L28.4066628,15.6006638 C28.4066628,15.3114521 28.6408613,15.0767296 28.9305969,15.0767296 C29.2198086,15.0767296 29.4545311,15.3114521 29.4545311,15.6006638 L29.4545311,21.6547231 C29.4545311,22.7025915 28.6015663,23.5555563 27.5536979,23.5555563" id="Fill-1"></path>
                        <path d="M27.2891112,22.3777523 L26.7546983,22.3777523 C26.4654867,22.3777523 26.2307642,22.1430298 26.2307642,21.8538181 C26.2307642,21.5646065 26.4654867,21.3298839 26.7546983,21.3298839 L27.2891112,21.3298839 C27.5788468,21.3298839 27.8130454,21.5646065 27.8130454,21.8538181 C27.8130454,22.1430298 27.5788468,22.3777523 27.2891112,22.3777523 L27.2891112,22.3777523 Z M25.1519837,22.3777523 L24.6175709,22.3777523 C24.3283592,22.3777523 24.0936367,22.1430298 24.0936367,21.8538181 C24.0936367,21.5646065 24.3283592,21.3298839 24.6175709,21.3298839 L25.1519837,21.3298839 C25.4417193,21.3298839 25.6759179,21.5646065 25.6759179,21.8538181 C25.6759179,22.1430298 25.4417193,22.3777523 25.1519837,22.3777523 L25.1519837,22.3777523 Z M23.0148562,22.3777523 L22.4804434,22.3777523 C22.1907078,22.3777523 21.9565092,22.1430298 21.9565092,21.8538181 C21.9565092,21.5646065 22.1907078,21.3298839 22.4804434,21.3298839 L23.0148562,21.3298839 C23.3040679,21.3298839 23.5387904,21.5646065 23.5387904,21.8538181 C23.5387904,22.1430298 23.3040679,22.3777523 23.0148562,22.3777523 L23.0148562,22.3777523 Z M20.8777288,22.3777523 L20.342792,22.3777523 C20.0530564,22.3777523 19.8188578,22.1430298 19.8188578,21.8538181 C19.8188578,21.5646065 20.0530564,21.3298839 20.342792,21.3298839 L20.8777288,21.3298839 C21.1669404,21.3298839 21.4016629,21.5646065 21.4016629,21.8538181 C21.4016629,22.1430298 21.1669404,22.3777523 20.8777288,22.3777523 L20.8777288,22.3777523 Z M18.7400773,22.3777523 L18.2056645,22.3777523 C17.9159289,22.3777523 17.6817303,22.1430298 17.6817303,21.8538181 C17.6817303,21.5646065 17.9159289,21.3298839 18.2056645,21.3298839 L18.7400773,21.3298839 C19.029289,21.3298839 19.2640115,21.5646065 19.2640115,21.8538181 C19.2640115,22.1430298 19.029289,22.3777523 18.7400773,22.3777523 L18.7400773,22.3777523 Z M16.6024259,22.3777523 L16.068537,22.3777523 C15.7788014,22.3777523 15.5446029,22.1430298 15.5446029,21.8538181 C15.5446029,21.5646065 15.7788014,21.3298839 16.068537,21.3298839 L16.6024259,21.3298839 C16.8921615,21.3298839 17.1263601,21.5646065 17.1263601,21.8538181 C17.1263601,22.1430298 16.8921615,22.3777523 16.6024259,22.3777523 L16.6024259,22.3777523 Z M14.4652985,22.3777523 L13.9314095,22.3777523 C13.641674,22.3777523 13.4074754,22.1430298 13.4074754,21.8538181 C13.4074754,21.5646065 13.641674,21.3298839 13.9314095,21.3298839 L14.4652985,21.3298839 C14.7550341,21.3298839 14.9892326,21.5646065 14.9892326,21.8538181 C14.9892326,22.1430298 14.7550341,22.3777523 14.4652985,22.3777523 L14.4652985,22.3777523 Z M12.328171,22.3777523 L11.7937581,22.3777523 C11.5040225,22.3777523 11.269824,22.1430298 11.269824,21.8538181 C11.269824,21.5646065 11.5040225,21.3298839 11.7937581,21.3298839 L12.328171,21.3298839 C12.6179066,21.3298839 12.8521052,21.5646065 12.8521052,21.8538181 C12.8521052,22.1430298 12.6179066,22.3777523 12.328171,22.3777523 L12.328171,22.3777523 Z M10.1910435,22.3777523 L9.65663067,22.3777523 C9.36689507,22.3777523 9.1326965,22.1430298 9.1326965,21.8538181 C9.1326965,21.5646065 9.36689507,21.3298839 9.65663067,21.3298839 L10.1910435,21.3298839 C10.4807791,21.3298839 10.7149777,21.5646065 10.7149777,21.8538181 C10.7149777,22.1430298 10.4807791,22.3777523 10.1910435,22.3777523 L10.1910435,22.3777523 Z M8.05339211,22.3777523 L7.51950319,22.3777523 C7.2297676,22.3777523 6.99556902,22.1430298 6.99556902,21.8538181 C6.99556902,21.5646065 7.2297676,21.3298839 7.51950319,21.3298839 L8.05339211,21.3298839 C8.3431277,21.3298839 8.57732628,21.5646065 8.57732628,21.8538181 C8.57732628,22.1430298 8.3431277,22.3777523 8.05339211,22.3777523 L8.05339211,22.3777523 Z M5.91626463,22.3777523 L5.38185178,22.3777523 C5.09264012,22.3777523 4.85844155,22.1430298 4.85844155,21.8538181 C4.85844155,21.5646065 5.09264012,21.3298839 5.38185178,21.3298839 L5.91626463,21.3298839 C6.20600023,21.3298839 6.4401988,21.5646065 6.4401988,21.8538181 C6.4401988,22.1430298 6.20600023,22.3777523 5.91626463,22.3777523 L5.91626463,22.3777523 Z M3.77913716,22.3777523 L3.24472431,22.3777523 C2.95551265,22.3777523 2.72079014,22.1430298 2.72079014,21.8538181 C2.72079014,21.5646065 2.95551265,21.3298839 3.24472431,21.3298839 L3.77913716,21.3298839 C4.06887275,21.3298839 4.30307133,21.5646065 4.30307133,21.8538181 C4.30307133,22.1430298 4.06887275,22.3777523 3.77913716,22.3777523 L3.77913716,22.3777523 Z M2.09364094,21.7809913 C1.80390534,21.7809913 1.56970677,21.5462688 1.56970677,21.2570571 L1.56970677,20.7226442 C1.56970677,20.4334326 1.80390534,20.1987101 2.09364094,20.1987101 C2.38337653,20.1987101 2.61757511,20.4334326 2.61757511,20.7226442 L2.61757511,21.2570571 C2.61757511,21.5462688 2.38337653,21.7809913 2.09364094,21.7809913 L2.09364094,21.7809913 Z M27.7155936,21.0569142 C27.4263819,21.0569142 27.1916594,20.8221917 27.1916594,20.5324561 L27.1916594,19.9980433 C27.1916594,19.7088316 27.4263819,19.4741091 27.7155936,19.4741091 C28.0053292,19.4741091 28.2395278,19.7088316 28.2395278,19.9980433 L28.2395278,20.5324561 C28.2395278,20.8221917 28.0053292,21.0569142 27.7155936,21.0569142 L27.7155936,21.0569142 Z M2.09364094,19.6438638 C1.80390534,19.6438638 1.56970677,19.4091413 1.56970677,19.1199296 L1.56970677,18.5855168 C1.56970677,18.2963051 1.80390534,18.0615826 2.09364094,18.0615826 C2.38337653,18.0615826 2.61757511,18.2963051 2.61757511,18.5855168 L2.61757511,19.1199296 C2.61757511,19.4091413 2.38337653,19.6438638 2.09364094,19.6438638 L2.09364094,19.6438638 Z M27.7155936,18.9192628 C27.4263819,18.9192628 27.1916594,18.6845403 27.1916594,18.3953287 L27.1916594,17.8609158 C27.1916594,17.5717042 27.4263819,17.3369816 27.7155936,17.3369816 C28.0053292,17.3369816 28.2395278,17.5717042 28.2395278,17.8609158 L28.2395278,18.3953287 C28.2395278,18.6845403 28.0053292,18.9192628 27.7155936,18.9192628 L27.7155936,18.9192628 Z M2.09364094,17.5067363 C1.80390534,17.5067363 1.56970677,17.2720138 1.56970677,16.9828021 L1.56970677,16.4483893 C1.56970677,16.1586537 1.80390534,15.9244551 2.09364094,15.9244551 C2.38337653,15.9244551 2.61757511,16.1586537 2.61757511,16.4483893 L2.61757511,16.9828021 C2.61757511,17.2720138 2.38337653,17.5067363 2.09364094,17.5067363 L2.09364094,17.5067363 Z M27.7155936,16.7821354 C27.4263819,16.7821354 27.1916594,16.5474129 27.1916594,16.2582012 L27.1916594,15.7237883 C27.1916594,15.4340527 27.4263819,15.1998542 27.7155936,15.1998542 C28.0053292,15.1998542 28.2395278,15.4340527 28.2395278,15.7237883 L28.2395278,16.2582012 C28.2395278,16.5474129 28.0053292,16.7821354 27.7155936,16.7821354 L27.7155936,16.7821354 Z M2.09364094,15.3690849 C1.80390534,15.3690849 1.56970677,15.1343624 1.56970677,14.8451507 L1.56970677,14.3107379 C1.56970677,14.0215262 1.80390534,13.7873277 2.09364094,13.7873277 C2.38337653,13.7873277 2.61757511,14.0215262 2.61757511,14.3107379 L2.61757511,14.8451507 C2.61757511,15.1343624 2.38337653,15.3690849 2.09364094,15.3690849 L2.09364094,15.3690849 Z M2.09364094,13.2319574 C1.80390534,13.2319574 1.56970677,12.9972349 1.56970677,12.7080233 L1.56970677,12.1736104 C1.56970677,11.8843988 1.80390534,11.6496762 2.09364094,11.6496762 C2.38337653,11.6496762 2.61757511,11.8843988 2.61757511,12.1736104 L2.61757511,12.7080233 C2.61757511,12.9972349 2.38337653,13.2319574 2.09364094,13.2319574 L2.09364094,13.2319574 Z M2.09364094,11.094306 C1.80390534,11.094306 1.56970677,10.8595835 1.56970677,10.5703719 L1.56970677,10.0364829 C1.56970677,9.74727128 1.80390534,9.51254877 2.09364094,9.51254877 C2.38337653,9.51254877 2.61757511,9.74727128 2.61757511,10.0364829 L2.61757511,10.5703719 C2.61757511,10.8595835 2.38337653,11.094306 2.09364094,11.094306 L2.09364094,11.094306 Z M27.7155936,9.83372041 C27.4263819,9.83372041 27.1916594,9.59952184 27.1916594,9.30978625 L27.1916594,8.77537339 C27.1916594,8.48616173 27.4263819,8.25143922 27.7155936,8.25143922 C28.0053292,8.25143922 28.2395278,8.48616173 28.2395278,8.77537339 L28.2395278,9.30978625 C28.2395278,9.59952184 28.0053292,9.83372041 27.7155936,9.83372041 L27.7155936,9.83372041 Z M2.09364094,8.95717855 C1.80390534,8.95717855 1.56970677,8.72245604 1.56970677,8.43324438 L1.56970677,7.89883153 C1.56970677,7.60961987 1.80390534,7.37489736 2.09364094,7.37489736 C2.38337653,7.37489736 2.61757511,7.60961987 2.61757511,7.89883153 L2.61757511,8.43324438 C2.61757511,8.72245604 2.38337653,8.95717855 2.09364094,8.95717855 L2.09364094,8.95717855 Z M27.7155936,7.69659294 C27.4263819,7.69659294 27.1916594,7.46187043 27.1916594,7.17265877 L27.1916594,6.63824592 C27.1916594,6.34903426 27.4263819,6.11431175 27.7155936,6.11431175 C28.0053292,6.11431175 28.2395278,6.34903426 28.2395278,6.63824592 L28.2395278,7.17265877 C28.2395278,7.46187043 28.0053292,7.69659294 27.7155936,7.69659294 L27.7155936,7.69659294 Z M2.09364094,6.82005108 C1.80390534,6.82005108 1.56970677,6.58532857 1.56970677,6.29611691 L1.56970677,5.76170405 C1.56970677,5.47249239 1.80390534,5.23776989 2.09364094,5.23776989 C2.38337653,5.23776989 2.61757511,5.47249239 2.61757511,5.76170405 L2.61757511,6.29611691 C2.61757511,6.58532857 2.38337653,6.82005108 2.09364094,6.82005108 L2.09364094,6.82005108 Z M27.7155936,5.55946547 C27.4263819,5.55946547 27.1916594,5.32474296 27.1916594,5.0355313 L27.1916594,4.50897746 C27.1916594,4.2197658 27.4263819,3.98137575 27.7155936,3.98137575 C28.0053292,3.98137575 28.2395278,4.21190678 28.2395278,4.50111844 L28.2395278,5.0355313 C28.2395278,5.32474296 28.0053292,5.55946547 27.7155936,5.55946547 L27.7155936,5.55946547 Z M2.26077594,4.74317603 C2.08159045,4.74317603 1.90607251,4.65043968 1.80862075,4.48435255 C1.66244312,4.23443595 1.74574865,3.91378824 1.99566525,3.76708667 C2.12664879,3.69006835 2.27649396,3.64920149 2.42843487,3.64867755 L2.78628191,3.64867755 C3.0760175,3.64867755 3.31021608,3.88340006 3.31021608,4.17261172 C3.31021608,4.46182338 3.0760175,4.69654589 2.78628191,4.69654589 L2.47663682,4.69654589 C2.40747751,4.72798194 2.33360279,4.74317603 2.26077594,4.74317603 L2.26077594,4.74317603 Z M26.2962559,4.69654589 L25.762367,4.69654589 C25.4726314,4.69654589 25.2384328,4.46182338 25.2384328,4.17261172 C25.2384328,3.88340006 25.4726314,3.64867755 25.762367,3.64867755 L26.2962559,3.64867755 C26.5859915,3.64867755 26.8201901,3.88340006 26.8201901,4.17261172 C26.8201901,4.46182338 26.5859915,4.69654589 26.2962559,4.69654589 L26.2962559,4.69654589 Z M24.1591285,4.69654589 L23.6252395,4.69654589 C23.3355039,4.69654589 23.1013054,4.46182338 23.1013054,4.17261172 C23.1013054,3.88340006 23.3355039,3.64867755 23.6252395,3.64867755 L24.1591285,3.64867755 C24.4488641,3.64867755 24.6830626,3.88340006 24.6830626,4.17261172 C24.6830626,4.46182338 24.4488641,4.69654589 24.1591285,4.69654589 L24.1591285,4.69654589 Z M22.022001,4.69654589 L21.4881121,4.69654589 C21.1983765,4.69654589 20.9641779,4.46182338 20.9641779,4.17261172 C20.9641779,3.88340006 21.1983765,3.64867755 21.4881121,3.64867755 L22.022001,3.64867755 C22.3117366,3.64867755 22.5459352,3.88340006 22.5459352,4.17261172 C22.5459352,4.46182338 22.3117366,4.69654589 22.022001,4.69654589 L22.022001,4.69654589 Z M19.8848735,4.69654589 L19.3504607,4.69654589 C19.0607251,4.69654589 18.8265265,4.46182338 18.8265265,4.17261172 C18.8265265,3.88340006 19.0607251,3.64867755 19.3504607,3.64867755 L19.8848735,3.64867755 C20.1746091,3.64867755 20.4088077,3.88340006 20.4088077,4.17261172 C20.4088077,4.46182338 20.1746091,4.69654589 19.8848735,4.69654589 L19.8848735,4.69654589 Z M17.7472221,4.69654589 L17.2133332,4.69654589 C16.9235976,4.69654589 16.6888751,4.46182338 16.6888751,4.17261172 C16.6888751,3.88340006 16.9235976,3.64867755 17.2133332,3.64867755 L17.7472221,3.64867755 C18.0369577,3.64867755 18.2711563,3.88340006 18.2711563,4.17261172 C18.2711563,4.46182338 18.0369577,4.69654589 17.7472221,4.69654589 L17.7472221,4.69654589 Z M15.6100946,4.69654589 L15.0756818,4.69654589 C14.7864701,4.69654589 14.5517476,4.46182338 14.5517476,4.17261172 C14.5517476,3.88340006 14.7864701,3.64867755 15.0756818,3.64867755 L15.6100946,3.64867755 C15.8998302,3.64867755 16.1340288,3.88340006 16.1340288,4.17261172 C16.1340288,4.46182338 15.8998302,4.69654589 15.6100946,4.69654589 L15.6100946,4.69654589 Z M13.4729672,4.69654589 L12.9385543,4.69654589 C12.6493426,4.69654589 12.4146201,4.46182338 12.4146201,4.17261172 C12.4146201,3.88340006 12.6493426,3.64867755 12.9385543,3.64867755 L13.4729672,3.64867755 C13.7627027,3.64867755 13.9969013,3.88340006 13.9969013,4.17261172 C13.9969013,4.46182338 13.7627027,4.69654589 13.4729672,4.69654589 L13.4729672,4.69654589 Z M11.3358397,4.69654589 L10.8009029,4.69654589 C10.5116912,4.69654589 10.2769687,4.46182338 10.2769687,4.17261172 C10.2769687,3.88340006 10.5116912,3.64867755 10.8009029,3.64867755 L11.3358397,3.64867755 C11.6250513,3.64867755 11.8597738,3.88340006 11.8597738,4.17261172 C11.8597738,4.46182338 11.6250513,4.69654589 11.3358397,4.69654589 L11.3358397,4.69654589 Z M9.1987122,4.69654589 L8.66377542,4.69654589 C8.37403982,4.69654589 8.13984125,4.46182338 8.13984125,4.17261172 C8.13984125,3.88340006 8.37403982,3.64867755 8.66377542,3.64867755 L9.1987122,3.64867755 C9.48792386,3.64867755 9.72264637,3.88340006 9.72264637,4.17261172 C9.72264637,4.46182338 9.48792386,4.69654589 9.1987122,4.69654589 L9.1987122,4.69654589 Z M7.06106079,4.69654589 L6.52664794,4.69654589 C6.23691235,4.69654589 6.00271377,4.46182338 6.00271377,4.17261172 C6.00271377,3.88340006 6.23691235,3.64867755 6.52664794,3.64867755 L7.06106079,3.64867755 C7.35027245,3.64867755 7.58499496,3.88340006 7.58499496,4.17261172 C7.58499496,4.46182338 7.35027245,4.69654589 7.06106079,4.69654589 L7.06106079,4.69654589 Z M4.92393332,4.69654589 L4.38952047,4.69654589 C4.09978487,4.69654589 3.8655863,4.46182338 3.8655863,4.17261172 C3.8655863,3.88340006 4.09978487,3.64867755 4.38952047,3.64867755 L4.92393332,3.64867755 C5.21314498,3.64867755 5.44786749,3.88340006 5.44786749,4.17261172 C5.44786749,4.46182338 5.21314498,4.69654589 4.92393332,4.69654589 L4.92393332,4.69654589 Z" id="Fill-2"></path>
                        <path d="M25.9247866,3.51926581 L25.4495783,3.51926581 C25.1598427,3.51926581 24.9256441,3.2845433 24.9256441,2.99533164 C24.9256441,2.72236194 25.1346939,2.49811812 25.4008524,2.47349321 L25.4008524,2.36870638 C25.4008524,1.89821349 25.0183805,1.51574155 24.5473637,1.51574155 L2.94346216,1.51574155 C2.11878978,1.51574155 1.42824454,2.18637729 1.40361964,3.01052573 C1.39471276,3.30026133 1.15894238,3.53603171 0.86344351,3.51874188 C0.574755783,3.509835 0.34684442,3.26830134 0.355751301,2.97961362 C0.397666034,1.59433168 1.55870415,0.467873213 2.94346216,0.467873213 L24.5473637,0.467873213 C25.5957559,0.467873213 26.4487208,1.32031411 26.4487208,2.36870638 L26.4487208,2.99533164 C26.4487208,3.2845433 26.2145222,3.51926581 25.9247866,3.51926581" id="Fill-3"></path>
                        <path d="M29.9826567,16.1251219 L24.3068779,16.1251219 C22.5904696,16.1251219 21.194185,14.7288374 21.194185,13.012429 C21.194185,11.2970685 22.5904696,9.90078399 24.3068779,9.90078399 L29.9826567,9.90078399 C30.6863003,9.90078399 31.2589604,10.473444 31.2589604,11.1770876 L31.2589604,14.8482943 C31.2589604,15.5524619 30.6863003,16.1251219 29.9826567,16.1251219 L29.9826567,16.1251219 Z M24.3068779,10.9491763 C23.1683689,10.9491763 22.2420533,11.874444 22.2420533,13.012429 C22.2420533,14.150938 23.1683689,15.0772536 24.3068779,15.0772536 L29.9826567,15.0772536 C30.1063052,15.0772536 30.211092,14.9724667 30.211092,14.8482943 L30.211092,11.1770876 C30.211092,11.0534392 30.1063052,10.9491763 29.9826567,10.9491763 L24.3068779,10.9491763 L24.3068779,10.9491763 Z" id="Fill-4"></path>
                        <path d="M24.1994714,14.7780872 C23.2260017,14.7780872 22.4338132,13.9864226 22.4338132,13.012953 C22.4338132,12.0394833 23.2260017,11.2478187 24.1994714,11.2478187 C25.1729411,11.2478187 25.9651295,12.0394833 25.9651295,13.012953 C25.9651295,13.9864226 25.1729411,14.7780872 24.1994714,14.7780872 L24.1994714,14.7780872 Z M24.1994714,12.2956871 C23.8039011,12.2956871 23.4816816,12.6173827 23.4816816,13.012953 C23.4816816,13.4085232 23.8039011,13.7302188 24.1994714,13.7302188 C24.5950417,13.7302188 24.9172612,13.4085232 24.9172612,13.012953 C24.9172612,12.6173827 24.5950417,12.2956871 24.1994714,12.2956871 L24.1994714,12.2956871 Z" id="Fill-5"></path>
                    </g>
                </g>
            </g>
        </g>
    </g>
</svg>