<?xml version="1.0" encoding="utf-8"?>
<!-- Generator: Adobe Illustrator 19.0.0, SVG Export Plug-In . SVG Version: 6.00 Build 0)  -->
<svg version="1.2" baseProfile="tiny" id="Layer_1" xmlns="http://www.w3.org/2000/svg" xmlns:xlink="http://www.w3.org/1999/xlink"
	 x="0px" y="0px" viewBox="-366.5 263.5 383.9 69.8" xml:space="preserve">
<g id="XMLID_1_">
	<g>
		<path fill="#6D6E71" d="M-247.7,268c-0.7-0.6-1.5-1-2.3-1.4c-0.8-0.4-1.8-0.7-2.8-1c-1-0.3-2.1-0.4-3.3-0.4
			c-1.9,0-3.7,0.3-5.3,0.9c-1.6,0.5-3,1.4-4.2,2.6c-1.2,1.3-2.2,2.8-2.9,4.6c-0.7,1.8-1,4-1,6.6c0,2.2,0.3,4.2,0.9,6
			c0.6,1.9,1.5,3.4,2.7,4.6c1.2,1.2,2.6,2.2,4.3,2.9c1.7,0.7,3.6,1,5.7,1c0.6,0,1.3,0,2-0.1c0.7-0.1,1.4-0.2,2-0.3
			c0.7-0.1,1.3-0.3,1.8-0.5c0.6-0.2,1-0.4,1.4-0.6c0-0.9,0.1-1.8,0.1-2.8c0-0.9,0-1.8,0-2.8c0-1.1,0-2.1-0.1-3.2
			c0-1.1-0.1-2.1-0.2-3.1c0.8,0.2,1.5,0.2,2.2,0.2c0.3,0,0.7,0,1,0c0.3,0,0.7-0.1,1-0.2c-0.1,0.7-0.1,1.8-0.1,3.3s0,3.5,0,6
			c0,0.6,0,1.2,0,1.9c0,0.6,0,1.2,0,1.9c-0.6,0.2-1.4,0.5-2.4,0.8c-1,0.3-2,0.5-3.1,0.6c-1.1,0.2-2.2,0.3-3.3,0.5
			c-1.1,0.1-2.1,0.2-3,0.2c-2.7,0-5.2-0.3-7.4-1c-2.2-0.7-4-1.7-5.6-3c-1.5-1.4-2.7-3.1-3.5-5.1s-1.2-4.4-1.2-7.1
			c0-2.6,0.4-4.9,1.3-6.9s2.1-3.7,3.6-5.2c1.6-1.4,3.4-2.5,5.7-3.2c2.5-0.8,4.9-1.2,7.6-1.2c1.6,0,2.9,0.1,4.1,0.3
			c1.2,0.2,2.3,0.4,3.2,0.7c0.9,0.3,1.7,0.6,2.5,0.9c0.7,0.3,1.3,0.6,1.9,0.9c-0.2,0.4-0.5,1-0.7,1.7s-0.3,1.3-0.4,1.9h-0.5
			C-246.5,269.1-247,268.6-247.7,268z"/>
		<path fill="#6D6E71" d="M-236.7,270c-0.1-2-0.2-3.9-0.3-5.9c0.8,0.1,1.6,0.1,2.4,0.2c0.8,0,1.6,0.1,2.4,0.1c0.8,0,1.6,0,2.4-0.1
			c0.8-0.1,1.6-0.1,2.4-0.1c1.3,0,2.5,0.1,3.7,0.3s2.2,0.6,3.1,1.1c0.9,0.5,1.6,1.2,2.1,2c0.5,0.9,0.8,1.9,0.8,3.2
			c0,2.3-0.7,4-2.1,5.3c-1.4,1.3-3.3,2.2-5.6,2.7v0.1c2.7,0.1,4.9,0.8,6.4,2c1.6,1.2,2.4,3.1,2.4,5.7c0,1.7-0.4,3.1-1.1,4.3
			c-0.7,1.2-1.6,2.1-2.7,2.8c-1.1,0.7-2.4,1.2-3.7,1.5c-1.4,0.3-2.7,0.4-4.1,0.4c-0.7,0-1.5,0-2.2,0c-0.7,0-1.5,0-2.2,0
			c-0.7,0-1.5,0-2.2,0s-1.5,0-2.2,0.1c0.1-2,0.2-3.9,0.3-5.8c0.1-1.9,0.1-3.9,0.1-5.9v-7.9C-236.6,273.9-236.7,271.9-236.7,270z
			 M-227.2,277.8c1.1-0.2,2-0.6,2.8-1.1s1.5-1.2,2-2c0.5-0.8,0.8-1.9,0.8-3.2c0-1.2-0.2-2.3-0.7-3s-1-1.3-1.7-1.7
			c-0.7-0.4-1.5-0.7-2.4-0.8c-0.9-0.1-1.8-0.2-2.7-0.2c-0.8,0-1.5,0-2,0.1c-0.5,0-1,0.1-1.5,0.2c-0.1,1.5-0.1,2.9-0.2,4.4
			c-0.1,1.4-0.1,2.9-0.1,4.4v3.4h2.5C-229.3,278.2-228.3,278.1-227.2,277.8z M-232.8,289.2c0.1,1.5,0.1,3.1,0.2,4.6
			c0.6,0.1,1.3,0.1,2.1,0.2c0.8,0,1.6,0.1,2.4,0.1c1,0,1.9-0.2,2.8-0.5c0.9-0.3,1.7-0.8,2.4-1.5s1.2-1.5,1.6-2.4
			c0.4-1,0.6-2.1,0.6-3.3c0-1.3-0.2-2.4-0.7-3.2c-0.5-0.8-1.2-1.5-2-2c-0.9-0.5-1.9-0.8-3.2-1c-1.2-0.2-2.6-0.3-4.1-0.3h-2.1v4.6
			C-232.9,286.1-232.8,287.6-232.8,289.2z"/>
		<path fill="#6D6E71" d="M-208.7,270c-0.1-2-0.2-3.9-0.3-5.9c1.4,0.1,2.7,0.1,4.1,0.2c1.4,0,2.7,0.1,4.1,0.1c1.4,0,2.7,0,4.1-0.1
			c1.3,0,2.7-0.1,4.1-0.2c-0.1,0.5-0.1,0.9-0.1,1.4s0,0.9,0.1,1.4c-1-0.1-1.9-0.1-2.7-0.2c-0.8-0.1-1.7-0.2-2.6-0.2
			c-0.9-0.1-1.9-0.1-3-0.2c-1.1,0-2.4-0.1-3.9-0.1c0,1-0.1,1.9-0.1,2.8s-0.1,1.9-0.1,3c0,1.2,0,2.4,0,3.5s0,2,0,2.6
			c1.3,0,2.5,0,3.6,0s2-0.1,2.9-0.1c0.9,0,1.7-0.1,2.5-0.1c0.7,0,1.5-0.1,2.1-0.2c-0.1,0.5-0.1,0.9-0.1,1.4s0,0.9,0.1,1.4
			c-0.8-0.1-1.7-0.2-2.8-0.2c-1.1-0.1-2.1-0.1-3.2-0.1s-2,0-3,0c-0.9,0-1.7,0-2.2,0c0,0.3,0,0.6,0,0.9c0,0.3,0,0.7,0,1.2v1.8v2.8
			c0,1.7,0,3.2,0,4.3c0,1.1,0,2,0.1,2.6c1,0,2.1,0,3.2,0c1.2,0,2.3,0,3.4-0.1c1.1,0,2.2-0.1,3.2-0.2s1.9-0.2,2.6-0.3
			c-0.1,0.2-0.1,0.5-0.1,0.7c0,0.3,0,0.5,0,0.7c0,0.5,0,0.9,0.1,1.2c-1.2-0.3-2.5-0.3-3.9-0.3c-1.4,0-2.7,0-4.1,0s-2.8,0-4.2,0
			c-1.4,0-2.8,0-4.2,0.1c0.1-2,0.2-3.9,0.3-5.8c0.1-1.9,0.1-3.9,0.1-5.9V276C-208.6,273.9-208.7,271.9-208.7,270z"/>
		<path fill="#6D6E71" d="M-171.1,283.7c-4-4.3-7.9-8.5-11.9-12.7c0,0.9-0.1,2-0.1,3.4s0,3.4,0,5.9c0,0.6,0,1.4,0,2.4
			c0,0.9,0,1.9,0,3c0,1,0,2.1,0.1,3.2c0,1.1,0.1,2.1,0.1,3s0.1,1.7,0.1,2.4c0,0.7,0.1,1.2,0.1,1.4c-0.5-0.1-1-0.1-1.6-0.1
			c-0.6,0-1.2,0-1.7,0.1c0.1-0.3,0.1-0.9,0.2-1.7c0.1-0.8,0.1-1.8,0.2-3c0.1-1.1,0.1-2.4,0.2-3.7c0.1-1.3,0.1-2.7,0.2-4
			c0-1.3,0.1-2.7,0.1-3.9c0-1.3,0-2.4,0-3.4c0-2.9,0-5.4,0-7.6c0-2.1-0.1-3.7-0.1-4.7h0.7c1.9,2,3.9,4.2,6,6.5
			c2.1,2.3,4.2,4.6,6.3,6.8c2.1,2.2,4.1,4.4,6,6.4c1.9,2,3.5,3.7,4.9,5.1v-6.2c0-3.2,0-6.3-0.1-9.4c0-3-0.1-5.9-0.3-8.6
			c0.6,0.2,1.1,0.2,1.6,0.2c0.4,0,0.9-0.1,1.5-0.2c-0.1,0.7-0.1,1.7-0.2,3c-0.2,1.2-0.2,2.6-0.3,4.1s-0.1,3-0.2,4.5
			s-0.1,2.6-0.1,3.5c0,0.8,0,1.7,0,2.7s0,2.1,0,3.3c0,1.1,0,2.3,0,3.4c0,1.1,0,2.2,0,3.2s0,1.9,0,2.6c0,0.7,0,1.2,0,1.5h-0.6
			C-163.4,292.1-167.2,287.9-171.1,283.7z"/>
		<path fill="#6D6E71" d="M-125.5,268c-0.7-0.6-1.5-1-2.3-1.4c-0.8-0.4-1.8-0.7-2.8-1c-1-0.3-2.1-0.4-3.3-0.4
			c-1.9,0-3.7,0.3-5.3,0.9s-3.1,1.5-4.3,2.7c-1.2,1.2-2.2,2.7-2.8,4.6c-0.7,1.8-1,4-1,6.6c0,2.2,0.3,4.2,0.9,6s1.5,3.3,2.7,4.6
			c1.2,1.2,2.6,2.2,4.3,2.9c1.7,0.7,3.6,1,5.7,1c0.6,0,1.3,0,2-0.1c0.7-0.1,1.4-0.2,2-0.3c0.7-0.1,1.3-0.3,1.8-0.5
			c0.6-0.2,1-0.4,1.4-0.6c0-0.9,0.1-1.8,0.1-2.8c0-0.9,0-1.8,0-2.8c0-1.1,0-2.1-0.1-3.2c0-1.1-0.1-2.1-0.2-3.1
			c0.8,0.2,1.5,0.2,2.2,0.2c0.3,0,0.7,0,1,0s0.7-0.1,1-0.2c-0.1,0.7-0.1,1.8-0.1,3.3s0,3.5,0,6c0,0.6,0,1.2,0,1.9c0,0.6,0,1.2,0,1.9
			c-0.6,0.2-1.4,0.5-2.4,0.8s-2,0.5-3.1,0.6c-1.1,0.2-2.2,0.3-3.3,0.5c-1.1,0.1-2.1,0.2-3,0.2c-2.7,0-5.2-0.3-7.4-1
			c-2.2-0.7-4-1.7-5.6-3c-1.5-1.4-2.7-3.1-3.5-5.1s-1.2-4.4-1.2-7.1c0-2.6,0.4-4.9,1.3-6.9s2.1-3.7,3.6-5.2c1.6-1.4,3.4-2.5,5.7-3.2
			c2.2-0.7,4.7-1.1,7.4-1.1c1.6,0,2.9,0.1,4.1,0.3s2.3,0.4,3.2,0.7c0.9,0.3,1.7,0.6,2.5,0.9c0.7,0.3,1.3,0.6,1.9,0.9
			c-0.2,0.4-0.5,1-0.7,1.7c-0.2,0.7-0.3,1.3-0.4,1.9h-0.6C-124.3,269.1-124.8,268.6-125.5,268z"/>
		<path fill="#6D6E71" d="M-89.1,295.6c-0.4-0.1-0.8-0.1-1.2-0.1s-0.8,0-1.2,0s-0.8,0-1.2,0s-0.8,0-1.2,0.1
			c-0.2-0.7-0.5-1.5-0.9-2.5s-0.8-2-1.2-3.1s-0.9-2.2-1.4-3.3c-0.5-1.1-0.9-2.2-1.3-3.2c-1,0-2-0.1-3-0.1s-2,0-3,0
			c-0.9,0-1.9,0-2.8,0c-0.9,0-1.8,0-2.8,0.1c-1,2.4-1.9,4.6-2.7,6.8c-0.8,2.2-1.4,3.9-1.8,5.3c-0.5-0.1-1.1-0.1-1.7-0.1
			c-0.6,0-1.2,0-1.7,0.1c2.5-5.3,4.9-10.7,7.2-15.9c2.4-5.3,4.7-10.7,7.1-16.1h0.9c0.7,1.8,1.5,3.7,2.4,5.7s1.7,4.1,2.6,6.3
			c0.9,2.1,1.8,4.2,2.7,6.3s1.7,4,2.5,5.8c0.8,1.8,1.5,3.4,2.1,4.8C-90,293.8-89.5,294.8-89.1,295.6z M-109.4,281.3
			c0.8,0,1.6,0,2.5,0s1.7,0,2.5,0c0.9,0,1.7,0,2.6,0c0.9,0,1.7,0,2.6-0.1l-5.1-11.6L-109.4,281.3z"/>
	</g>
	<g>
		<path fill="#6D6E71" d="M-272.8,309.3c-0.1-1.8-0.1-3.5-0.2-5.3c0.7,0.1,1.5,0.1,2.2,0.1c0.7,0,1.5,0.1,2.2,0.1s1.5,0,2.2-0.1
			c0.7-0.1,1.5-0.1,2.2-0.1c1.2,0,2.3,0.1,3.4,0.3c1.1,0.2,2,0.5,2.8,1c0.8,0.5,1.4,1.1,1.9,1.8c0.5,0.8,0.7,1.7,0.7,2.9
			c0,2-0.6,3.7-1.9,4.8c-1.3,1.2-3,2-5,2.4v0.1c2.5,0.1,4.4,0.7,5.8,1.8s2.1,2.8,2.1,5.2c0,1.5-0.3,2.8-1,3.9
			c-0.6,1.1-1.5,1.9-2.5,2.6c-1,0.7-2.2,1.1-3.4,1.4c-1.2,0.2-2.4,0.3-3.7,0.3c-0.7,0-1.3,0-2,0c-0.7,0-1.3,0-2,0c-0.7,0-1.3,0-2,0
			c-0.7,0-1.4,0-2,0.1c0.1-1.8,0.2-3.5,0.2-5.3c0.1-1.8,0.1-3.6,0.1-5.4v-7.1C-272.7,312.9-272.7,311.1-272.8,309.3z M-264.2,316.5
			c1-0.2,1.8-0.5,2.5-1c0.7-0.5,1.4-1.1,1.8-1.8c0.5-0.8,0.7-1.7,0.7-2.9c0-1.1-0.2-2-0.6-2.7c-0.4-0.7-0.9-1.2-1.6-1.6
			c-0.6-0.4-1.4-0.6-2.2-0.7c-0.8-0.1-1.6-0.2-2.4-0.2c-0.7,0-1.3,0-1.8,0.1c-0.5,0.1-0.8,0-1.2,0.1c-0.1,1.3-0.1,2.6-0.2,3.9
			c-0.1,1.3-0.1,2.6-0.1,3.9v3.1h2.3C-266.1,316.8-265.1,316.7-264.2,316.5z M-269.2,326.7c0.1,1.4,0.1,2.8,0.2,4.2
			c0.5,0.1,1.2,0.1,1.9,0.1s1.5,0.1,2.2,0.1c0.9,0,1.7-0.1,2.6-0.5c0.8-0.3,1.5-0.8,2.1-1.3c0.6-0.6,1.1-1.3,1.5-2.2
			c0.4-0.9,0.5-1.9,0.5-3c0-1.2-0.2-2.2-0.6-2.9c-0.4-0.8-1-1.4-1.8-1.8s-1.8-0.7-2.9-0.9c-1.1-0.2-2.4-0.2-3.8-0.2h-2v4.2
			C-269.3,323.9-269.3,325.3-269.2,326.7z"/>
		<path fill="#6D6E71" d="M-247.4,309.4c-0.1-1.8-0.1-3.6-0.2-5.4c0.4,0.1,0.7,0.1,1,0.1s0.7,0.1,1,0.1s0.7,0,1-0.1
			c0.3,0,0.7-0.1,1-0.1c-0.1,1.8-0.2,3.6-0.2,5.4c0,1.8-0.1,3.5-0.1,5.4v7.1c0,1.8,0,3.6,0.1,5.4c0.1,1.8,0.1,3.5,0.2,5.2
			c-0.6-0.1-1.3-0.1-2-0.1s-1.4,0-2,0.1c0.1-1.7,0.2-3.5,0.2-5.2c0.1-1.8,0.1-3.6,0.1-5.4v-7.1
			C-247.3,312.9-247.4,311.2-247.4,309.4z"/>
		<path fill="#6D6E71" d="M-237,312c0.8-1.8,1.8-3.4,3.2-4.7c1.4-1.3,3-2.2,4.9-2.9c1.9-0.7,4-1,6.3-1s4.4,0.3,6.3,1
			c1.9,0.7,3.6,1.6,4.9,2.9c1.4,1.3,2.4,2.8,3.2,4.7c0.8,1.8,1.1,3.9,1.1,6.3c0,2.4-0.4,4.4-1.1,6.3c-0.8,1.8-1.8,3.4-3.2,4.7
			c-1.4,1.3-3,2.2-4.9,2.8c-1.9,0.6-4,0.9-6.3,0.9s-4.4-0.3-6.3-0.9c-1.9-0.6-3.5-1.6-4.9-2.8c-1.4-1.3-2.4-2.8-3.2-4.7
			c-0.8-1.8-1.1-3.9-1.1-6.3C-238.1,316-237.7,313.9-237,312z M-212,312.4c-0.6-1.7-1.4-3.1-2.4-4.1c-1-1.1-2.3-1.9-3.7-2.4
			c-1.4-0.5-2.9-0.8-4.5-0.8c-1.6,0-3.1,0.3-4.5,0.8c-1.4,0.5-2.6,1.3-3.7,2.4c-1,1.1-1.8,2.5-2.4,4.1c-0.6,1.7-0.9,3.7-0.9,6
			c0,2.3,0.3,4.3,0.9,6c0.6,1.7,1.4,3.1,2.4,4.1c1,1.1,2.3,1.9,3.7,2.4c1.4,0.5,2.9,0.8,4.5,0.8c1.6,0,3.1-0.3,4.5-0.8
			c1.4-0.5,2.6-1.3,3.7-2.4c1-1.1,1.8-2.5,2.4-4.1c0.6-1.7,0.9-3.7,0.9-6C-211.1,316.1-211.4,314.1-212,312.4z"/>
		<path fill="#6D6E71" d="M-201.3,309.3c-0.1-1.8-0.1-3.5-0.2-5.3c0.7,0.1,1.5,0.1,2.2,0.1c0.7,0,1.5,0.1,2.2,0.1
			c0.7,0,1.5,0,2.2-0.1c0.7-0.1,1.5-0.1,2.2-0.1c1.2,0,2.3,0.1,3.4,0.3c1.1,0.2,2,0.5,2.8,1s1.4,1.1,1.9,1.8
			c0.5,0.7,0.7,1.7,0.7,2.9c0,2-0.6,3.7-1.9,4.8c-1.3,1.2-3,2-5,2.4v0.1c2.5,0.1,4.4,0.7,5.8,1.8s2.1,2.8,2.1,5.2
			c0,1.5-0.3,2.8-1,3.9c-0.6,1.1-1.5,1.9-2.5,2.6c-1,0.7-2.2,1.1-3.4,1.4c-1.2,0.2-2.5,0.3-3.7,0.3c-0.7,0-1.3,0-2,0
			c-0.7,0-1.3,0-2,0c-0.7,0-1.3,0-2,0c-0.7,0-1.4,0-2,0.1c0.1-1.8,0.2-3.5,0.2-5.3c0.1-1.8,0.1-3.6,0.1-5.4v-7.1
			C-201.2,312.9-201.2,311.1-201.3,309.3z M-192.7,316.5c1-0.2,1.8-0.5,2.5-1c0.7-0.5,1.4-1.1,1.8-1.8c0.5-0.8,0.7-1.7,0.7-2.9
			c0-1.1-0.2-2-0.6-2.7c-0.4-0.7-0.9-1.2-1.6-1.6c-0.6-0.4-1.4-0.6-2.2-0.7c-0.8-0.1-1.6-0.2-2.4-0.2c-0.7,0-1.3,0-1.8,0.1
			c-0.5,0-0.9,0.1-1.3,0.1c-0.1,1.3-0.1,2.6-0.2,3.9c-0.1,1.3-0.1,2.6-0.1,3.9v3.1h2.2C-194.6,316.8-193.6,316.7-192.7,316.5z
			 M-197.7,326.7c0.1,1.4,0.1,2.8,0.2,4.2c0.5,0.1,1.2,0.1,1.9,0.1c0.7,0,1.5,0.1,2.2,0.1c0.9,0,1.7-0.1,2.6-0.5
			c0.8-0.3,1.5-0.8,2.1-1.3c0.6-0.6,1.1-1.3,1.5-2.2c0.4-0.9,0.5-1.9,0.5-3c0-1.2-0.2-2.2-0.6-2.9c-0.4-0.8-1-1.4-1.8-1.8
			c-0.8-0.4-1.8-0.7-2.9-0.9c-1.1-0.2-2.4-0.2-3.8-0.2h-1.9v4.2C-197.8,323.9-197.8,325.3-197.7,326.7z"/>
		<path fill="#6D6E71" d="M-154.5,332.5c-0.4-0.1-0.8-0.1-1.1-0.1c-0.3,0-0.7,0-1.1,0c-0.4,0-0.8,0-1.1,0s-0.7,0-1.1,0.1
			c-0.2-0.6-0.5-1.4-0.8-2.3c-0.3-0.9-0.7-1.8-1.1-2.8s-0.8-2-1.2-3s-0.8-2-1.2-2.9c-0.9,0-1.8-0.1-2.7-0.1s-1.8,0-2.7,0
			c-0.9,0-1.7,0-2.5,0s-1.7,0-2.5,0.1c-0.9,2.2-1.7,4.2-2.4,6.2c-0.7,2-1.3,3.6-1.6,4.8c-0.5-0.1-1-0.1-1.5-0.1
			c-0.6,0-1.1,0-1.5,0.1c2.2-4.8,4.4-9.7,6.6-14.4c2.1-4.8,4.3-9.7,6.4-14.6h0.8c0.7,1.6,1.4,3.3,2.2,5.2c0.8,1.9,1.6,3.8,2.4,5.7
			c0.8,1.9,1.6,3.8,2.4,5.7s1.6,3.6,2.3,5.2c0.7,1.6,1.3,3.1,1.9,4.3C-155.3,330.9-154.8,331.9-154.5,332.5z M-172.9,319.6
			c0.7,0,1.5,0,2.2,0c0.8,0,1.5,0,2.2,0c0.8,0,1.5,0,2.3,0s1.5,0,2.3-0.1l-4.6-10.5L-172.9,319.6z"/>
		<path fill="#6D6E71" d="M-149.8,327.3c0.1-1.8,0.1-3.6,0.1-5.4v-7.1c0-1.8,0-3.6-0.1-5.4c-0.1-1.8-0.1-3.6-0.2-5.4
			c0.4,0.1,0.7,0.1,1,0.1c0.3,0,0.7,0.1,1,0.1c0.3,0,0.7,0,1-0.1c0.3,0,0.7-0.1,1-0.1c-0.1,1.8-0.2,3.6-0.2,5.4
			c-0.1,1.8-0.1,3.5-0.1,5.4v2.3c0,0.2,0.1,0.3,0.2,0.3s0.3-0.1,0.6-0.4c1-0.8,2-1.8,3.1-2.8s2.1-2.1,3.2-3.3
			c1.1-1.1,2.1-2.3,3.2-3.5c1.1-1.2,2.1-2.3,3-3.4c0.3,0.1,0.6,0.1,0.9,0.1s0.6,0.1,0.8,0.1c0.3,0,0.7,0,1-0.1c0.3,0,0.7-0.1,1-0.1
			c-1,0.8-2.1,1.8-3.3,2.9c-1.2,1.1-2.4,2.3-3.7,3.5c-1.3,1.2-2.4,2.4-3.5,3.5s-2.1,2.2-2.8,3c2.2,2.5,4.5,5.1,6.8,7.7
			c2.3,2.6,4.6,5.2,7,7.9c-0.4-0.1-0.8-0.1-1.2-0.1s-0.8,0-1.2,0s-0.8,0-1.1,0c-0.4,0-0.8,0-1.1,0.1c-1-1.1-2.1-2.4-3.3-3.9
			c-1.2-1.5-2.4-2.9-3.5-4.3c-1.1-1.4-2.2-2.6-3.1-3.7s-1.6-1.9-2.1-2.3c-0.2-0.2-0.4-0.3-0.5-0.3s-0.2,0.1-0.2,0.2v3.6
			c0,1.8,0,3.6,0.1,5.4c0.1,1.8,0.1,3.5,0.2,5.2c-0.6-0.1-1.3-0.1-2-0.1c-0.7,0-1.4,0-2,0.1C-150,330.8-149.9,329.1-149.8,327.3z"/>
		<path fill="#6D6E71" d="M-102.8,308.4c0-2.1-0.1-3.6-0.2-4.4c0.3,0.1,0.6,0.1,0.9,0.1c0.3,0,0.6,0.1,0.8,0.1
			c0.4,0,0.8-0.1,1.2-0.2c-0.1,1-0.2,2.1-0.2,3.5c-0.1,1.3-0.2,2.8-0.2,4.3s-0.1,3.1-0.2,4.7c-0.1,1.6-0.1,3.2-0.1,4.7
			c0,1.9-0.3,3.5-0.9,5c-0.5,1.5-1.3,2.7-2.3,3.7s-2.2,1.8-3.7,2.3s-3.1,0.8-5,0.8c-4.1,0-7.2-0.9-9-2.8c-1.9-1.9-2.8-4.9-2.8-8.9
			c0-1.3,0-2.5,0.1-3.5s0.1-2,0.1-3.1c0-2.3,0-4.4-0.1-6.2s-0.1-3.3-0.2-4.6c0.3,0.1,0.7,0.1,1.1,0.1c0.4,0,0.7,0.1,1.1,0.1
			c0.3,0,0.6,0,0.9-0.1c0.3,0,0.6-0.1,0.9-0.1c-0.1,0.6-0.1,1.4-0.2,2.4s-0.1,2.1-0.2,3.3c-0.1,1.2-0.1,2.6-0.1,4s0,2.9,0,4.5
			c0,0.9,0,1.9,0,2.9s0.1,2,0.3,2.9c0.2,1,0.4,1.9,0.8,2.7c0.4,0.9,0.9,1.6,1.6,2.3c0.7,0.7,1.6,1.2,2.6,1.5c1,0.3,2.4,0.6,3.9,0.6
			s2.8-0.2,3.8-0.7c1-0.4,1.9-1,2.6-1.7c0.7-0.7,1.2-1.5,1.6-2.5c0.4-0.9,0.6-1.9,0.8-2.9s0.3-2,0.3-3.1c0-1,0-2,0-2.8
			C-102.7,313.6-102.7,310.5-102.8,308.4z"/>
		<path fill="#6D6E71" d="M-76.4,308.3c0.3-0.7,0.8-1.4,1.3-2c0.6-0.6,1.2-1,2-1.3s1.6-0.5,2.6-0.5c1.6,0,2.9,0.4,4,1.2
			c1,0.8,1.6,1.9,1.6,3.5c0,0.8-0.2,1.5-0.5,2.2c-0.4,0.7-0.8,1.4-1.4,2c-0.6,0.6-1.2,1.2-1.8,1.7c-0.7,0.5-1.3,0.9-1.9,1.3
			c1.2,1.6,2.5,3.2,3.7,4.7s2.4,3,3.7,4.3c1-1.4,1.9-2.8,2.7-4c0.8-1.3,1.6-2.7,2.2-4.2c0.2,0.4,0.4,0.7,0.7,0.9
			c0.3,0.3,0.6,0.5,0.9,0.7c-0.9,1.3-1.7,2.6-2.6,3.9c-0.9,1.2-1.9,2.5-3,3.9l5.3,5.9c-0.4-0.1-0.9-0.1-1.3-0.1c-0.4,0-0.9,0-1.3,0
			c-0.4,0-0.8,0-1.2,0s-0.8,0-1.2,0.1c-0.2-0.3-0.6-0.8-1-1.4c-0.5-0.6-1-1.3-1.6-2c-1.2,1.2-2.5,2.2-3.9,2.9
			c-1.4,0.7-3.1,1.1-5,1.1c-1.1,0-2.1-0.1-3.1-0.4c-1-0.3-1.8-0.7-2.5-1.3c-0.7-0.6-1.3-1.3-1.7-2.2s-0.6-1.9-0.6-3.1
			c0-0.9,0.2-1.8,0.6-2.7c0.4-0.9,0.9-1.7,1.6-2.5c0.7-0.8,1.5-1.5,2.4-2.1c0.9-0.6,1.9-1.2,3-1.6c-0.8-1.2-1.5-2.3-2-3.3
			s-0.8-2.1-0.8-3.2C-76.9,309.9-76.7,309.1-76.4,308.3z M-77.8,327.6c0.3,0.7,0.7,1.3,1.3,1.9c0.5,0.5,1.2,1,1.9,1.3
			c0.7,0.3,1.6,0.5,2.5,0.5c1.4,0,2.6-0.3,3.6-0.8s2-1.2,2.9-2.2c-1.4-1.7-2.8-3.3-4-4.9c-1.3-1.6-2.5-3.3-3.8-5.1
			c-1.5,0.9-2.7,1.9-3.6,3c-0.9,1.1-1.3,2.5-1.3,4.2C-78.2,326.2-78.1,326.9-77.8,327.6z M-68,306.7c-0.6-0.7-1.4-1-2.4-1
			c-1.1,0-1.9,0.4-2.6,1.1c-0.6,0.7-1,1.7-1,2.8c0,0.8,0.2,1.8,0.7,2.9s1.1,2.1,1.9,3.1c1.4-0.9,2.5-1.9,3.2-3.1s1.1-2.3,1.1-3.3
			S-67.4,307.3-68,306.7z"/>
		<path fill="#6D6E71" d="M-18.7,331.6c-0.5,0.3-1.2,0.5-2,0.7c-0.8,0.2-1.6,0.4-2.6,0.6c-0.9,0.2-1.9,0.2-2.9,0.2
			c-2.2,0-4.2-0.3-6.1-0.9c-1.9-0.6-3.5-1.6-4.8-2.8c-1.3-1.3-2.4-2.8-3.2-4.7c-0.8-1.8-1.1-3.9-1.1-6.3s0.4-4.4,1.1-6.3
			c0.8-1.8,1.8-3.4,3.2-4.7c1.4-1.3,3-2.2,4.9-2.9c1.9-0.7,4-1,6.3-1c1.8,0,3.5,0.2,5,0.6c1.5,0.4,2.8,0.8,4,1.3
			c-0.2,0.4-0.4,0.9-0.5,1.6c-0.1,0.7-0.2,1.2-0.3,1.7l-0.2,0.1c-0.3-0.3-0.7-0.7-1.2-1.1s-1.1-0.8-1.7-1.2c-0.6-0.4-1.4-0.7-2.2-1
			c-0.8-0.3-1.7-0.4-2.7-0.4c-1.6,0-3.1,0.3-4.5,0.8s-2.6,1.3-3.7,2.4c-1,1.1-1.8,2.5-2.4,4.1c-0.6,1.7-0.9,3.7-0.9,6
			c0,2.3,0.3,4.3,0.9,6c0.6,1.7,1.4,3.1,2.4,4.1c1,1.1,2.3,1.9,3.7,2.4s2.9,0.8,4.5,0.8c1,0,1.9-0.1,2.8-0.4
			c0.8-0.2,1.6-0.5,2.3-0.9c0.7-0.3,1.3-0.7,1.9-1.1c0.6-0.4,1-0.8,1.4-1.1l0.2,0.2l-0.4,2.5C-17.8,331.1-18.2,331.3-18.7,331.6z"/>
		<path fill="#6D6E71" d="M-12.5,312c0.8-1.8,1.8-3.4,3.2-4.7c1.4-1.3,3-2.2,4.9-2.9c1.9-0.7,4-1,6.3-1s4.4,0.3,6.3,1
			c1.9,0.7,3.6,1.6,4.9,2.9c1.4,1.3,2.4,2.8,3.2,4.7c0.8,1.8,1.1,3.9,1.1,6.3c0,2.4-0.4,4.4-1.1,6.3c-0.8,1.8-1.8,3.4-3.2,4.7
			c-1.4,1.3-3,2.2-4.9,2.8s-4,0.9-6.3,0.9s-4.4-0.3-6.3-0.9s-3.5-1.6-4.9-2.8c-1.4-1.3-2.4-2.8-3.2-4.7c-0.8-1.8-1.1-3.9-1.1-6.3
			C-13.6,316-13.3,313.9-12.5,312z M12.5,312.4c-0.6-1.7-1.4-3.1-2.4-4.1c-1-1.1-2.3-1.9-3.7-2.4c-1.4-0.5-2.9-0.8-4.5-0.8
			s-3.1,0.3-4.5,0.8s-2.6,1.3-3.7,2.4c-1,1.1-1.8,2.5-2.4,4.1c-0.6,1.7-0.9,3.7-0.9,6c0,2.3,0.3,4.3,0.9,6c0.6,1.7,1.4,3.1,2.4,4.1
			c1,1.1,2.3,1.9,3.7,2.4c1.4,0.5,2.9,0.8,4.5,0.8s3.1-0.3,4.5-0.8s2.6-1.3,3.7-2.4c1-1.1,1.8-2.5,2.4-4.1c0.6-1.7,0.9-3.7,0.9-6
			C13.4,316.1,13.1,314.1,12.5,312.4z"/>
	</g>
</g>
<g id="XMLID_2_">
	<rect id="XMLID_15_" x="-366.7" y="263" fill="#0095DA" width="69.5" height="69.5"/>
	<path id="XMLID_8_" fill="#0089CF" d="M-339.5,306.7c0,0-0.1,2.8-0.2,4.7c0,0.7-0.1,2.1-0.2,4.6c-2,1.6-4.8,2.8-7.9,3.2
		c-4,0.6-7.1-0.6-9.4-3.5c-2-2.5-3-6.1-2.7-10.7c0.2-5.1,1.6-9.2,4.1-12.3c2.5-3.1,5.9-5,10.3-5.6c1.5-0.2,4.1-0.6,4.1-0.6l0.1-2.3
		c-1.5,0.2-2.7,0.4-4.1,0.6c-6.8,1-12.3,3-16.1,7.3c-2.5,2.8-4.2,6-5,9.7v10.9c0.8,2.8,2.1,5.1,4.3,6.8c3.4,2.7,7.8,3.6,13.2,2.8
		c5.6-0.8,10.8-2.8,15.7-6c0-1.5,0.1-3.3,0.2-5c0.2-4.3,0.3-5.6,0.3-5.6L-339.5,306.7z"/>
	<g>
		<path fill="#0089CF" d="M-318.1,299.8c-1.6-1-4-1.4-7.4-1.3c2.5-0.7,4.6-1.9,6.3-3.4c2-1.8,3-3.9,3.2-6.2c0.3-5.7-3.3-8.1-10.7-7
			c-0.3,0-1.5,0.3-3.6,0.7c-2.1,0.4-3.4,0.6-3.8,0.7c-2.2,0.3-3.9,0.6-4.6,0.6c0,4.5-0.1,10.1-0.4,17.4c0,0.3,0,0.5,0,0.8l6.5-0.9
			c0.7-0.2,1.4-0.4,1.9-0.4c2.9-0.4,5.1-0.2,6.4,0.7c1.5,1.1,2.2,3,2.1,6c-0.2,5.1-3,8.1-8.2,8.8c-0.2,0-0.4,0-0.7,0.1l-0.1,2.6
			c1.2-0.1,2.1-0.2,2.7-0.3c4.3-0.6,7.5-2.1,9.8-4.5c2.2-2.4,3.4-4.9,3.6-7.6C-315.1,303.4-316.1,301.1-318.1,299.8z M-332.7,298.4
			l0.4-8.6c0-1,0.1-2.4,0.3-4.4c1.3-0.3,2.5-0.5,3.7-0.7c1.8-0.3,3.2,0.1,4.1,1.1s1.3,2.4,1.3,4.2c-0.2,4.7-2.8,7.5-7.6,8.2
			C-331,298.3-331.7,298.4-332.7,298.4z"/>
	</g>
	<path id="XMLID_5_" fill="#0089CF" d="M-297.2,277.6c-0.6,0.1-1.3,0.1-1.8,0.2c-6.3,0.9-11.3,3.2-15.1,6.9c0.4,1,0.6,2.3,0.6,3.8
		c-0.1,2.3-1.2,4.3-3.2,6.2c-1.1,1-2.4,1.9-3.8,2.5c0,0.3-0.1,0.6-0.1,0.9c2.2,0.1,3.8,0.5,5,1.3c1.1,0.7,1.8,1.6,2.3,2.9
		c-0.1-1.1-0.2-2.4-0.1-3.7c0.2-5.1,1.6-9.2,4.1-12.3c2.5-3.1,5.9-5,10.3-5.6c0.5-0.1,1.2-0.1,1.8-0.2V277.6z"/>
	<g>
		<path fill="#FFFFFF" d="M-319.5,297.9c-1.6-1-4-1.4-7.4-1.3c2.5-0.7,4.6-1.9,6.3-3.4c2-1.8,3-3.9,3.2-6.2c0.3-5.7-3.3-8.1-10.7-7
			c-0.3,0-1.5,0.3-3.6,0.7s-3.4,0.6-3.8,0.7c-2.2,0.3-3.9,0.6-4.6,0.6c0,4.5-0.1,10.1-0.4,17.4c0,0.3,0,0.5,0,0.8l6.5-0.9
			c0.7-0.2,1.4-0.4,1.9-0.4c2.9-0.4,5.1-0.2,6.4,0.7c1.5,1.1,2.2,3,2.1,6c-0.2,5.1-3,8.1-8.2,8.8c-0.2,0-0.4,0-0.7,0.1l-0.1,2.6
			c1.2-0.1,2.1-0.2,2.7-0.3c4.3-0.6,7.5-2.1,9.8-4.5c2.2-2.4,3.4-4.9,3.6-7.6C-316.5,301.5-317.5,299.2-319.5,297.9z M-334.1,296.5
			l0.4-8.6c0-1,0.1-2.4,0.3-4.4c1.3-0.3,2.5-0.5,3.7-0.7c1.8-0.3,3.2,0.1,4.1,1.1s1.3,2.4,1.3,4.2c-0.2,4.7-2.8,7.5-7.6,8.2
			C-332.4,296.4-333.1,296.4-334.1,296.5z"/>
	</g>
	<polygon id="XMLID_10_" fill="#FFFFFF" points="-336.4,309.3 -348.6,311 -345.9,305.5 -337.1,304.2 	"/>
	<rect id="XMLID_9_" x="-366.7" y="263" fill="none" width="69.5" height="69.5"/>
	<path id="XMLID_3_" fill="#FFFFFF" d="M-297.2,275.6c-1.2,0.1-2.3,0.2-3.2,0.3c-6.3,0.9-11.3,3.2-15.1,6.9c0.4,1,0.6,2.3,0.6,3.8
		c-0.1,2.3-1.2,4.3-3.2,6.2c-1.1,1-2.4,1.9-3.8,2.5c0,0.3-0.1,0.6-0.1,0.9c2.2,0.1,3.8,0.5,5,1.3c1.1,0.7,1.8,1.6,2.3,2.9
		c-0.1-1.1-0.2-2.4-0.1-3.7c0.2-5.1,1.6-9.2,4.1-12.3s5.9-5,10.3-5.6c1-0.1,2.1-0.2,3.2-0.3V275.6z"/>
	<path id="XMLID_4_" fill="#0089CF" d="M-297.2,311.8c-1.6,0.5-3.2,0.9-4.5,1.1c-4,0.6-7.1-0.6-9.4-3.5c-1-1.2-1.7-2.6-2.1-4.3
		c0,0.4,0,0.8,0,1.2c-0.1,2.4-1.1,4.7-3,6.9c3.4,2.7,7.8,3.6,13.2,2.8c1.7-0.2,3.8-0.7,5.8-1.2
		C-297.2,314.8-297.2,311.8-297.2,311.8z"/>
	<path id="XMLID_6_" fill="#FFFFFF" d="M-297.2,309.4c-2,0.8-4.3,1.4-5.9,1.6c-4,0.6-7.1-0.6-9.4-3.5c-1-1.2-1.7-2.6-2.1-4.3
		c0,0.4,0,0.8,0,1.2c-0.1,2.4-1.1,4.7-3,6.9c3.4,2.7,7.8,3.6,13.2,2.8c2.1-0.3,4.8-0.9,7.3-1.6v-3.1H-297.2z"/>
	<path id="XMLID_7_" fill="#FFFFFF" d="M-340.9,304.8c0,0-0.1,2.8-0.2,4.7c0,0.7-0.1,2.1-0.2,4.6c-2,1.6-4.8,2.8-7.9,3.2
		c-4,0.6-7.1-0.6-9.4-3.5c-2-2.5-3-6.1-2.7-10.7c0.2-5.1,1.6-9.2,4.1-12.3c2.5-3.1,5.9-5,10.3-5.6c1.5-0.2,4.1-0.6,4.1-0.6l0.1-2.3
		c-1.5,0.2-2.7,0.4-4.1,0.6c-6.8,1-12.3,3-16.1,7.3c-1.5,1.7-2.7,3.6-3.6,5.6v18.4c0.8,1.3,1.7,2.5,2.9,3.4
		c3.4,2.7,7.8,3.6,13.2,2.8c5.6-0.8,10.8-2.8,15.7-6c0-1.5,0.1-3.3,0.2-5c0.2-4.3,0.3-5.6,0.3-5.6L-340.9,304.8z"/>
</g>
<g id="XMLID_109_">
</g>
<g id="XMLID_110_">
</g>
<g id="XMLID_111_">
</g>
<g id="XMLID_112_">
</g>
<g id="XMLID_113_">
</g>
<g id="XMLID_114_">
</g>
</svg>
