<?xml version="1.0" encoding="UTF-8" standalone="no"?>
<svg width="65px" height="42px" viewBox="0 0 65 42" version="1.1" xmlns="http://www.w3.org/2000/svg" xmlns:xlink="http://www.w3.org/1999/xlink" xmlns:sketch="http://www.bohemiancoding.com/sketch/ns">
    <!-- Generator: Sketch 3.3.3 (12072) - http://www.bohemiancoding.com/sketch -->
    <title>Time Icon</title>
    <desc>Created with Sketch.</desc>
    <defs></defs>
    <g id="Page-1" stroke="none" stroke-width="1" fill="none" fill-rule="evenodd" sketch:type="MSPage">
        <g id="Homepage" sketch:type="MSArtboardGroup" transform="translate(-310.000000, -2466.000000)" fill="#4A8A26">
            <g id="Time-Icon" sketch:type="MSLayerGroup" transform="translate(310.000000, 2466.000000)">
                <path d="M47.1924375,41.3207308 C46.242625,41.3207308 45.4699375,40.5526154 45.4699375,39.6084231 C45.4699375,38.6642308 46.242625,37.8961154 47.1924375,37.8961154 C54.988375,37.8961154 61.33075,31.5912692 61.33075,23.8414615 C61.33075,16.0916538 54.988375,9.786 47.1924375,9.786 C46.242625,9.786 45.4699375,9.01788462 45.4699375,8.0745 L45.4699375,3.59342308 L43.4646875,3.59342308 C42.514875,3.59342308 41.743,2.82530769 41.743,1.88192308 C41.743,0.937730769 42.514875,0.170423077 43.4646875,0.170423077 L50.9429375,0.170423077 C51.89275,0.170423077 52.664625,0.937730769 52.664625,1.88192308 C52.664625,2.82530769 51.89275,3.59342308 50.9429375,3.59342308 L48.9133125,3.59342308 L48.9133125,6.42761538 L49.703875,6.5415 C58.29525,7.76838462 64.774125,15.2064231 64.774125,23.8422692 C64.774125,33.4796538 56.8871875,41.3207308 47.1924375,41.3207308" id="Fill-1" sketch:type="MSShapeGroup"></path>
                <path d="M47.1924375,26.0117308 C46.8219375,26.0117308 46.4546875,25.8905769 46.15975,25.6684615 C45.7275,25.347 45.47075,24.8357308 45.47075,24.3002308 L45.47075,15.5157692 C45.47075,14.5715769 46.242625,13.8042692 47.1924375,13.8042692 C47.6515,13.8042692 48.0845625,13.9819615 48.40875,14.3050385 C48.73375,14.6281154 48.9125,15.0578077 48.9125,15.5149615 L48.9125,22.0265769 L53.659125,20.6631923 C53.8110625,20.6211923 53.9719375,20.5985769 54.132,20.5985769 C54.8981875,20.5985769 55.5806875,21.1066154 55.791125,21.8327308 C56.0551875,22.7397692 55.5270625,23.6904231 54.6138125,23.9529231 L47.669375,25.9446923 C47.513375,25.9891154 47.3525,26.0117308 47.1924375,26.0117308" id="Fill-2" sketch:type="MSShapeGroup"></path>
                <path d="M2.0629375,9.68503846 C1.113125,9.68503846 0.3404375,8.91692308 0.3404375,7.97353846 C0.3404375,7.03015385 1.113125,6.26203846 2.0629375,6.26203846 L36.7469375,6.26203846 C37.69675,6.26203846 38.468625,7.03015385 38.468625,7.97353846 C38.468625,8.91692308 37.69675,9.68503846 36.7469375,9.68503846 L2.0629375,9.68503846" id="Fill-3" sketch:type="MSShapeGroup"></path>
                <path d="M2.0629375,9.68503846 C1.113125,9.68503846 0.3404375,8.91692308 0.3404375,7.97353846 C0.3404375,7.03015385 1.113125,6.26203846 2.0629375,6.26203846 L36.7469375,6.26203846 C37.69675,6.26203846 38.468625,7.03015385 38.468625,7.97353846 C38.468625,8.91692308 37.69675,9.68503846 36.7469375,9.68503846 L2.0629375,9.68503846" id="Fill-4" sketch:type="MSShapeGroup"></path>
                <path d="M2.0629375,9.68503846 C1.113125,9.68503846 0.3404375,8.91692308 0.3404375,7.97353846 C0.3404375,7.03015385 1.113125,6.26203846 2.0629375,6.26203846 L36.7469375,6.26203846 C37.69675,6.26203846 38.468625,7.03015385 38.468625,7.97353846 C38.468625,8.91692308 37.69675,9.68503846 36.7469375,9.68503846 L2.0629375,9.68503846" id="Fill-5" sketch:type="MSShapeGroup"></path>
                <path d="M2.0629375,9.68503846 C1.113125,9.68503846 0.3404375,8.91692308 0.3404375,7.97353846 C0.3404375,7.03015385 1.113125,6.26203846 2.0629375,6.26203846 L36.7469375,6.26203846 C37.69675,6.26203846 38.468625,7.03015385 38.468625,7.97353846 C38.468625,8.91692308 37.69675,9.68503846 36.7469375,9.68503846 L2.0629375,9.68503846" id="Fill-6" sketch:type="MSShapeGroup"></path>
                <path d="M8.7091875,20.2286538 C7.759375,20.2286538 6.9875,19.4613462 6.9875,18.5171538 C6.9875,17.5737692 7.759375,16.8056538 8.7091875,16.8056538 L36.7469375,16.8056538 C37.69675,16.8056538 38.468625,17.5737692 38.468625,18.5171538 C38.468625,19.4613462 37.69675,20.2286538 36.7469375,20.2286538 L8.7091875,20.2286538" id="Fill-7" sketch:type="MSShapeGroup"></path>
                <path d="M8.7091875,20.2286538 C7.759375,20.2286538 6.9875,19.4613462 6.9875,18.5171538 C6.9875,17.5737692 7.759375,16.8056538 8.7091875,16.8056538 L36.7469375,16.8056538 C37.69675,16.8056538 38.468625,17.5737692 38.468625,18.5171538 C38.468625,19.4613462 37.69675,20.2286538 36.7469375,20.2286538 L8.7091875,20.2286538" id="Fill-8" sketch:type="MSShapeGroup"></path>
                <path d="M8.7091875,20.2286538 C7.759375,20.2286538 6.9875,19.4613462 6.9875,18.5171538 C6.9875,17.5737692 7.759375,16.8056538 8.7091875,16.8056538 L36.7469375,16.8056538 C37.69675,16.8056538 38.468625,17.5737692 38.468625,18.5171538 C38.468625,19.4613462 37.69675,20.2286538 36.7469375,20.2286538 L8.7091875,20.2286538" id="Fill-9" sketch:type="MSShapeGroup"></path>
                <path d="M8.7091875,20.2286538 C7.759375,20.2286538 6.9875,19.4613462 6.9875,18.5171538 C6.9875,17.5737692 7.759375,16.8056538 8.7091875,16.8056538 L36.7469375,16.8056538 C37.69675,16.8056538 38.468625,17.5737692 38.468625,18.5171538 C38.468625,19.4613462 37.69675,20.2286538 36.7469375,20.2286538 L8.7091875,20.2286538" id="Fill-10" sketch:type="MSShapeGroup"></path>
                <path d="M18.6785625,30.7746923 C17.72875,30.7746923 16.9560625,30.0065769 16.9560625,29.0631923 C16.9560625,28.119 17.72875,27.3516923 18.6785625,27.3516923 L36.7469375,27.3516923 C37.69675,27.3516923 38.468625,28.119 38.468625,29.0631923 C38.468625,30.0065769 37.69675,30.7746923 36.7469375,30.7746923 L18.6785625,30.7746923" id="Fill-11" sketch:type="MSShapeGroup"></path>
                <path d="M18.6785625,30.7746923 C17.72875,30.7746923 16.9560625,30.0065769 16.9560625,29.0631923 C16.9560625,28.119 17.72875,27.3516923 18.6785625,27.3516923 L36.7469375,27.3516923 C37.69675,27.3516923 38.468625,28.119 38.468625,29.0631923 C38.468625,30.0065769 37.69675,30.7746923 36.7469375,30.7746923 L18.6785625,30.7746923" id="Fill-12" sketch:type="MSShapeGroup"></path>
                <path d="M18.6785625,30.7746923 C17.72875,30.7746923 16.9560625,30.0065769 16.9560625,29.0631923 C16.9560625,28.119 17.72875,27.3516923 18.6785625,27.3516923 L36.7469375,27.3516923 C37.69675,27.3516923 38.468625,28.119 38.468625,29.0631923 C38.468625,30.0065769 37.69675,30.7746923 36.7469375,30.7746923 L18.6785625,30.7746923" id="Fill-13" sketch:type="MSShapeGroup"></path>
                <path d="M18.6785625,30.7746923 C17.72875,30.7746923 16.9560625,30.0065769 16.9560625,29.0631923 C16.9560625,28.119 17.72875,27.3516923 18.6785625,27.3516923 L36.7469375,27.3516923 C37.69675,27.3516923 38.468625,28.119 38.468625,29.0631923 C38.468625,30.0065769 37.69675,30.7746923 36.7469375,30.7746923 L18.6785625,30.7746923" id="Fill-14" sketch:type="MSShapeGroup"></path>
            </g>
        </g>
    </g>
</svg>