<svg version="1.2" baseProfile="tiny" id="Layer_1" xmlns="http://www.w3.org/2000/svg" x="0" y="0" viewBox="-366.5 263.5 383.9 69.8" xml:space="preserve"><path d="M-247.7 268c-.7-.6-1.5-1-2.3-1.4-.8-.4-1.8-.7-2.8-1-1-.3-2.1-.4-3.3-.4-1.9 0-3.7.3-5.3.9-1.6.5-3 1.4-4.2 2.6-1.2 1.3-2.2 2.8-2.9 4.6-.7 1.8-1 4-1 6.6 0 2.2.3 4.2.9 6 .6 1.9 1.5 3.4 2.7 4.6 1.2 1.2 2.6 2.2 4.3 2.9 1.7.7 3.6 1 5.7 1 .6 0 1.3 0 2-.1s1.4-.2 2-.3c.7-.1 1.3-.3 1.8-.5.6-.2 1-.4 1.4-.6 0-.9.1-1.8.1-2.8v-2.8c0-1.1 0-2.1-.1-3.2 0-1.1-.1-2.1-.2-3.1.8.2 1.5.2 2.2.2h1c.3 0 .7-.1 1-.2-.1.7-.1 1.8-.1 3.3v9.8c-.6.2-1.4.5-2.4.8-1 .3-2 .5-3.1.6-1.1.2-2.2.3-3.3.5-1.1.1-2.1.2-3 .2-2.7 0-5.2-.3-7.4-1s-4-1.7-5.6-3c-1.5-1.4-2.7-3.1-3.5-5.1s-1.2-4.4-1.2-7.1c0-2.6.4-4.9 1.3-6.9s2.1-3.7 3.6-5.2c1.6-1.4 3.4-2.5 5.7-3.2 2.5-.8 4.9-1.2 7.6-1.2 1.6 0 2.9.1 4.1.3 1.2.2 2.3.4 3.2.7.9.3 1.7.6 2.5.9.7.3 1.3.6 1.9.9-.2.4-.5 1-.7 1.7s-.3 1.3-.4 1.9h-.5c-.5-.8-1-1.3-1.7-1.9zm11 2c-.1-2-.2-3.9-.3-5.9.8.1 1.6.1 2.4.2.8 0 1.6.1 2.4.1.8 0 1.6 0 2.4-.1.8-.1 1.6-.1 2.4-.1 1.3 0 2.5.1 3.7.3s2.2.6 3.1 1.1c.9.5 1.6 1.2 2.1 2 .5.9.8 1.9.8 3.2 0 2.3-.7 4-2.1 5.3-1.4 1.3-3.3 2.2-5.6 2.7v.1c2.7.1 4.9.8 6.4 2 1.6 1.2 2.4 3.1 2.4 5.7 0 1.7-.4 3.1-1.1 4.3-.7 1.2-1.6 2.1-2.7 2.8-1.1.7-2.4 1.2-3.7 1.5-1.4.3-2.7.4-4.1.4h-6.6c-.7 0-1.5 0-2.2.1.1-2 .2-3.9.3-5.8.1-1.9.1-3.9.1-5.9v-7.9c0-2.2-.1-4.2-.1-6.1zm9.5 7.8c1.1-.2 2-.6 2.8-1.1s1.5-1.2 2-2 .8-1.9.8-3.2c0-1.2-.2-2.3-.7-3s-1-1.3-1.7-1.7c-.7-.4-1.5-.7-2.4-.8-.9-.1-1.8-.2-2.7-.2-.8 0-1.5 0-2 .1-.5 0-1 .1-1.5.2-.1 1.5-.1 2.9-.2 4.4-.1 1.4-.1 2.9-.1 4.4v3.4h2.5c1.1-.1 2.1-.2 3.2-.5zm-5.6 11.4c.1 1.5.1 3.1.2 4.6.6.1 1.3.1 2.1.2.8 0 1.6.1 2.4.1 1 0 1.9-.2 2.8-.5.9-.3 1.7-.8 2.4-1.5s1.2-1.5 1.6-2.4c.4-1 .6-2.1.6-3.3 0-1.3-.2-2.4-.7-3.2-.5-.8-1.2-1.5-2-2-.9-.5-1.9-.8-3.2-1-1.2-.2-2.6-.3-4.1-.3h-2.1v4.6c-.1 1.6 0 3.1 0 4.7zm24.1-19.2c-.1-2-.2-3.9-.3-5.9 1.4.1 2.7.1 4.1.2 1.4 0 2.7.1 4.1.1 1.4 0 2.7 0 4.1-.1 1.3 0 2.7-.1 4.1-.2-.1.5-.1.9-.1 1.4s0 .9.1 1.4c-1-.1-1.9-.1-2.7-.2-.8-.1-1.7-.2-2.6-.2-.9-.1-1.9-.1-3-.2-1.1 0-2.4-.1-3.9-.1 0 1-.1 1.9-.1 2.8s-.1 1.9-.1 3v6.1h3.6c1.1 0 2-.1 2.9-.1.9 0 1.7-.1 2.5-.1.7 0 1.5-.1 2.1-.2-.1.5-.1.9-.1 1.4s0 .9.1 1.4c-.8-.1-1.7-.2-2.8-.2-1.1-.1-2.1-.1-3.2-.1h-5.2v11c0 1.1 0 2 .1 2.6h3.2c1.2 0 2.3 0 3.4-.1 1.1 0 2.2-.1 3.2-.2s1.9-.2 2.6-.3c-.1.2-.1.5-.1.7v.7c0 .5 0 .9.1 1.2-1.2-.3-2.5-.3-3.9-.3h-8.3c-1.4 0-2.8 0-4.2.1.1-2 .2-3.9.3-5.8.1-1.9.1-3.9.1-5.9V276c0-2.1-.1-4.1-.1-6zm37.6 13.7c-4-4.3-7.9-8.5-11.9-12.7 0 .9-.1 2-.1 3.4v11.3c0 1 0 2.1.1 3.2 0 1.1.1 2.1.1 3s.1 1.7.1 2.4.1 1.2.1 1.4c-.5-.1-1-.1-1.6-.1-.6 0-1.2 0-1.7.1.1-.3.1-.9.2-1.7.1-.8.1-1.8.2-3 .1-1.1.1-2.4.2-3.7.1-1.3.1-2.7.2-4 0-1.3.1-2.7.1-3.9v-11c0-2.1-.1-3.7-.1-4.7h.7c1.9 2 3.9 4.2 6 6.5s4.2 4.6 6.3 6.8c2.1 2.2 4.1 4.4 6 6.4 1.9 2 3.5 3.7 4.9 5.1v-6.2c0-3.2 0-6.3-.1-9.4 0-3-.1-5.9-.3-8.6.6.2 1.1.2 1.6.2.4 0 .9-.1 1.5-.2-.1.7-.1 1.7-.2 3-.2 1.2-.2 2.6-.3 4.1s-.1 3-.2 4.5-.1 2.6-.1 3.5v16.7h-.6c-3.4-4-7.2-8.2-11.1-12.4zm45.6-15.7c-.7-.6-1.5-1-2.3-1.4-.8-.4-1.8-.7-2.8-1-1-.3-2.1-.4-3.3-.4-1.9 0-3.7.3-5.3.9s-3.1 1.5-4.3 2.7c-1.2 1.2-2.2 2.7-2.8 4.6-.7 1.8-1 4-1 6.6 0 2.2.3 4.2.9 6s1.5 3.3 2.7 4.6c1.2 1.2 2.6 2.2 4.3 2.9 1.7.7 3.6 1 5.7 1 .6 0 1.3 0 2-.1s1.4-.2 2-.3c.7-.1 1.3-.3 1.8-.5.6-.2 1-.4 1.4-.6 0-.9.1-1.8.1-2.8v-2.8c0-1.1 0-2.1-.1-3.2 0-1.1-.1-2.1-.2-3.1.8.2 1.5.2 2.2.2h1c.3 0 .7-.1 1-.2-.1.7-.1 1.8-.1 3.3v9.8c-.6.2-1.4.5-2.4.8s-2 .5-3.1.6c-1.1.2-2.2.3-3.3.5-1.1.1-2.1.2-3 .2-2.7 0-5.2-.3-7.4-1s-4-1.7-5.6-3c-1.5-1.4-2.7-3.1-3.5-5.1s-1.2-4.4-1.2-7.1c0-2.6.4-4.9 1.3-6.9s2.1-3.7 3.6-5.2c1.6-1.4 3.4-2.5 5.7-3.2 2.2-.7 4.7-1.1 7.4-1.1 1.6 0 2.9.1 4.1.3s2.3.4 3.2.7c.9.3 1.7.6 2.5.9.7.3 1.3.6 1.9.9-.2.4-.5 1-.7 1.7-.2.7-.3 1.3-.4 1.9h-.6c-.2-1-.7-1.5-1.4-2.1zm36.4 27.6c-.4-.1-.8-.1-1.2-.1h-2.4c-.4 0-.8 0-1.2.1-.2-.7-.5-1.5-.9-2.5s-.8-2-1.2-3.1-.9-2.2-1.4-3.3c-.5-1.1-.9-2.2-1.3-3.2-1 0-2-.1-3-.1h-5.8c-.9 0-1.8 0-2.8.1-1 2.4-1.9 4.6-2.7 6.8-.8 2.2-1.4 3.9-1.8 5.3-.5-.1-1.1-.1-1.7-.1-.6 0-1.2 0-1.7.1 2.5-5.3 4.9-10.7 7.2-15.9 2.4-5.3 4.7-10.7 7.1-16.1h.9c.7 1.8 1.5 3.7 2.4 5.7s1.7 4.1 2.6 6.3l2.7 6.3c.9 2.1 1.7 4 2.5 5.8.8 1.8 1.5 3.4 2.1 4.8.7 1.3 1.2 2.3 1.6 3.1zm-20.3-14.3h7.6c.9 0 1.7 0 2.6-.1l-5.1-11.6-5.1 11.7zm-163.4 28c-.1-1.8-.1-3.5-.2-5.3.7.1 1.5.1 2.2.1.7 0 1.5.1 2.2.1s1.5 0 2.2-.1c.7-.1 1.5-.1 2.2-.1 1.2 0 2.3.1 3.4.3 1.1.2 2 .5 2.8 1 .8.5 1.4 1.1 1.9 1.8.5.8.7 1.7.7 2.9 0 2-.6 3.7-1.9 4.8-1.3 1.2-3 2-5 2.4v.1c2.5.1 4.4.7 5.8 1.8s2.1 2.8 2.1 5.2c0 1.5-.3 2.8-1 3.9-.6 1.1-1.5 1.9-2.5 2.6-1 .7-2.2 1.1-3.4 1.4-1.2.2-2.4.3-3.7.3h-6c-.7 0-1.4 0-2 .1.1-1.8.2-3.5.2-5.3.1-1.8.1-3.6.1-5.4v-7.1c0-1.9 0-3.7-.1-5.5zm8.6 7.2c1-.2 1.8-.5 2.5-1s1.4-1.1 1.8-1.8c.5-.8.7-1.7.7-2.9 0-1.1-.2-2-.6-2.7-.4-.7-.9-1.2-1.6-1.6-.6-.4-1.4-.6-2.2-.7-.8-.1-1.6-.2-2.4-.2-.7 0-1.3 0-1.8.1s-.8 0-1.2.1c-.1 1.3-.1 2.6-.2 3.9-.1 1.3-.1 2.6-.1 3.9v3.1h2.3c.9.1 1.9 0 2.8-.2zm-5 10.2c.1 1.4.1 2.8.2 4.2.5.1 1.2.1 1.9.1s1.5.1 2.2.1c.9 0 1.7-.1 2.6-.5.8-.3 1.5-.8 2.1-1.3.6-.6 1.1-1.3 1.5-2.2.4-.9.5-1.9.5-3 0-1.2-.2-2.2-.6-2.9-.4-.8-1-1.4-1.8-1.8s-1.8-.7-2.9-.9c-1.1-.2-2.4-.2-3.8-.2h-2v4.2c0 1.4 0 2.8.1 4.2zm21.8-17.3c-.1-1.8-.1-3.6-.2-5.4.4.1.7.1 1 .1s.7.1 1 .1.7 0 1-.1c.3 0 .7-.1 1-.1-.1 1.8-.2 3.6-.2 5.4 0 1.8-.1 3.5-.1 5.4v7.1c0 1.8 0 3.6.1 5.4.1 1.8.1 3.5.2 5.2-.6-.1-1.3-.1-2-.1s-1.4 0-2 .1c.1-1.7.2-3.5.2-5.2.1-1.8.1-3.6.1-5.4v-7.1c0-1.9-.1-3.6-.1-5.4zm10.4 2.6c.8-1.8 1.8-3.4 3.2-4.7 1.4-1.3 3-2.2 4.9-2.9 1.9-.7 4-1 6.3-1s4.4.3 6.3 1c1.9.7 3.6 1.6 4.9 2.9 1.4 1.3 2.4 2.8 3.2 4.7.8 1.8 1.1 3.9 1.1 6.3s-.4 4.4-1.1 6.3c-.8 1.8-1.8 3.4-3.2 4.7-1.4 1.3-3 2.2-4.9 2.8-1.9.6-4 .9-6.3.9s-4.4-.3-6.3-.9c-1.9-.6-3.5-1.6-4.9-2.8-1.4-1.3-2.4-2.8-3.2-4.7-.8-1.8-1.1-3.9-1.1-6.3 0-2.3.4-4.4 1.1-6.3zm25 .4c-.6-1.7-1.4-3.1-2.4-4.1-1-1.1-2.3-1.9-3.7-2.4-1.4-.5-2.9-.8-4.5-.8s-3.1.3-4.5.8-2.6 1.3-3.7 2.4c-1 1.1-1.8 2.5-2.4 4.1-.6 1.7-.9 3.7-.9 6s.3 4.3.9 6c.6 1.7 1.4 3.1 2.4 4.1 1 1.1 2.3 1.9 3.7 2.4 1.4.5 2.9.8 4.5.8s3.1-.3 4.5-.8 2.6-1.3 3.7-2.4c1-1.1 1.8-2.5 2.4-4.1.6-1.7.9-3.7.9-6s-.3-4.3-.9-6zm10.7-3.1c-.1-1.8-.1-3.5-.2-5.3.7.1 1.5.1 2.2.1.7 0 1.5.1 2.2.1.7 0 1.5 0 2.2-.1.7-.1 1.5-.1 2.2-.1 1.2 0 2.3.1 3.4.3 1.1.2 2 .5 2.8 1s1.4 1.1 1.9 1.8.7 1.7.7 2.9c0 2-.6 3.7-1.9 4.8-1.3 1.2-3 2-5 2.4v.1c2.5.1 4.4.7 5.8 1.8s2.1 2.8 2.1 5.2c0 1.5-.3 2.8-1 3.9-.6 1.1-1.5 1.9-2.5 2.6-1 .7-2.2 1.1-3.4 1.4-1.2.2-2.5.3-3.7.3h-6c-.7 0-1.4 0-2 .1.1-1.8.2-3.5.2-5.3.1-1.8.1-3.6.1-5.4v-7.1c0-1.9 0-3.7-.1-5.5zm8.6 7.2c1-.2 1.8-.5 2.5-1s1.4-1.1 1.8-1.8c.5-.8.7-1.7.7-2.9 0-1.1-.2-2-.6-2.7-.4-.7-.9-1.2-1.6-1.6-.6-.4-1.4-.6-2.2-.7-.8-.1-1.6-.2-2.4-.2-.7 0-1.3 0-1.8.1-.5 0-.9.1-1.3.1-.1 1.3-.1 2.6-.2 3.9-.1 1.3-.1 2.6-.1 3.9v3.1h2.2c1.1.1 2.1 0 3-.2zm-5 10.2c.1 1.4.1 2.8.2 4.2.5.1 1.2.1 1.9.1s1.5.1 2.2.1c.9 0 1.7-.1 2.6-.5.8-.3 1.5-.8 2.1-1.3.6-.6 1.1-1.3 1.5-2.2.4-.9.5-1.9.5-3 0-1.2-.2-2.2-.6-2.9-.4-.8-1-1.4-1.8-1.8-.8-.4-1.8-.7-2.9-.9-1.1-.2-2.4-.2-3.8-.2h-1.9v4.2c-.1 1.4-.1 2.8 0 4.2zm43.2 5.8c-.4-.1-.8-.1-1.1-.1h-2.2c-.3 0-.7 0-1.1.1-.2-.6-.5-1.4-.8-2.3-.3-.9-.7-1.8-1.1-2.8l-1.2-3c-.4-1-.8-2-1.2-2.9-.9 0-1.8-.1-2.7-.1h-5.2c-.8 0-1.7 0-2.5.1-.9 2.2-1.7 4.2-2.4 6.2s-1.3 3.6-1.6 4.8c-.5-.1-1-.1-1.5-.1-.6 0-1.1 0-1.5.1 2.2-4.8 4.4-9.7 6.6-14.4 2.1-4.8 4.3-9.7 6.4-14.6h.8c.7 1.6 1.4 3.3 2.2 5.2l2.4 5.7 2.4 5.7c.8 1.9 1.6 3.6 2.3 5.2.7 1.6 1.3 3.1 1.9 4.3.3 1.3.8 2.3 1.1 2.9zm-18.4-12.9h6.7c.8 0 1.5 0 2.3-.1l-4.6-10.5-4.4 10.6zm23.1 7.7c.1-1.8.1-3.6.1-5.4v-7.1c0-1.8 0-3.6-.1-5.4-.1-1.8-.1-3.6-.2-5.4.4.1.7.1 1 .1.3 0 .7.1 1 .1.3 0 .7 0 1-.1.3 0 .7-.1 1-.1-.1 1.8-.2 3.6-.2 5.4-.1 1.8-.1 3.5-.1 5.4v2.3c0 .2.1.3.2.3s.3-.1.6-.4c1-.8 2-1.8 3.1-2.8s2.1-2.1 3.2-3.3c1.1-1.1 2.1-2.3 3.2-3.5 1.1-1.2 2.1-2.3 3-3.4.3.1.6.1.9.1s.6.1.8.1c.3 0 .7 0 1-.1.3 0 .7-.1 1-.1-1 .8-2.1 1.8-3.3 2.9-1.2 1.1-2.4 2.3-3.7 3.5-1.3 1.2-2.4 2.4-3.5 3.5s-2.1 2.2-2.8 3c2.2 2.5 4.5 5.1 6.8 7.7 2.3 2.6 4.6 5.2 7 7.9-.4-.1-.8-.1-1.2-.1h-2.3c-.4 0-.8 0-1.1.1-1-1.1-2.1-2.4-3.3-3.9-1.2-1.5-2.4-2.9-3.5-4.3s-2.2-2.6-3.1-3.7-1.6-1.9-2.1-2.3c-.2-.2-.4-.3-.5-.3s-.2.1-.2.2v3.6c0 1.8 0 3.6.1 5.4.1 1.8.1 3.5.2 5.2-.6-.1-1.3-.1-2-.1s-1.4 0-2 .1c-.2-1.6-.1-3.3 0-5.1zm47-18.9c0-2.1-.1-3.6-.2-4.4.3.1.6.1.9.1.3 0 .6.1.8.1.4 0 .8-.1 1.2-.2-.1 1-.2 2.1-.2 3.5-.1 1.3-.2 2.8-.2 4.3s-.1 3.1-.2 4.7-.1 3.2-.1 4.7c0 1.9-.3 3.5-.9 5-.5 1.5-1.3 2.7-2.3 3.7s-2.2 1.8-3.7 2.3-3.1.8-5 .8c-4.1 0-7.2-.9-9-2.8-1.9-1.9-2.8-4.9-2.8-8.9 0-1.3 0-2.5.1-3.5s.1-2 .1-3.1c0-2.3 0-4.4-.1-6.2s-.1-3.3-.2-4.6c.3.1.7.1 1.1.1.4 0 .7.1 1.1.1.3 0 .6 0 .9-.1.3 0 .6-.1.9-.1-.1.6-.1 1.4-.2 2.4s-.1 2.1-.2 3.3c-.1 1.2-.1 2.6-.1 4v7.4c0 1 .1 2 .3 2.9.2 1 .4 1.9.8 2.7.4.9.9 1.6 1.6 2.3.7.7 1.6 1.2 2.6 1.5 1 .3 2.4.6 3.9.6s2.8-.2 3.8-.7c1-.4 1.9-1 2.6-1.7.7-.7 1.2-1.5 1.6-2.5.4-.9.6-1.9.8-2.9s.3-2 .3-3.1v-2.8c.1-3.7.1-6.8 0-8.9zm26.4-.1c.3-.7.8-1.4 1.3-2 .6-.6 1.2-1 2-1.3s1.6-.5 2.6-.5c1.6 0 2.9.4 4 1.2 1 .8 1.6 1.9 1.6 3.5 0 .8-.2 1.5-.5 2.2-.4.7-.8 1.4-1.4 2-.6.6-1.2 1.2-1.8 1.7-.7.5-1.3.9-1.9 1.3 1.2 1.6 2.5 3.2 3.7 4.7s2.4 3 3.7 4.3c1-1.4 1.9-2.8 2.7-4 .8-1.3 1.6-2.7 2.2-4.2.2.4.4.7.7.9.3.3.6.5.9.7-.9 1.3-1.7 2.6-2.6 3.9-.9 1.2-1.9 2.5-3 3.9l5.3 5.9c-.4-.1-.9-.1-1.3-.1h-2.5c-.4 0-.8 0-1.2.1-.2-.3-.6-.8-1-1.4-.5-.6-1-1.3-1.6-2-1.2 1.2-2.5 2.2-3.9 2.9-1.4.7-3.1 1.1-5 1.1-1.1 0-2.1-.1-3.1-.4-1-.3-1.8-.7-2.5-1.3-.7-.6-1.3-1.3-1.7-2.2s-.6-1.9-.6-3.1c0-.9.2-1.8.6-2.7.4-.9.9-1.7 1.6-2.5.7-.8 1.5-1.5 2.4-2.1.9-.6 1.9-1.2 3-1.6-.8-1.2-1.5-2.3-2-3.3s-.8-2.1-.8-3.2c-.4-.8-.2-1.6.1-2.4zm-1.4 19.3c.3.7.7 1.3 1.3 1.9.5.5 1.2 1 1.9 1.3.7.3 1.6.5 2.5.5 1.4 0 2.6-.3 3.6-.8s2-1.2 2.9-2.2c-1.4-1.7-2.8-3.3-4-4.9-1.3-1.6-2.5-3.3-3.8-5.1-1.5.9-2.7 1.9-3.6 3-.9 1.1-1.3 2.5-1.3 4.2.1.7.2 1.4.5 2.1zm9.8-20.9c-.6-.7-1.4-1-2.4-1-1.1 0-1.9.4-2.6 1.1-.6.7-1 1.7-1 2.8 0 .8.2 1.8.7 2.9s1.1 2.1 1.9 3.1c1.4-.9 2.5-1.9 3.2-3.1s1.1-2.3 1.1-3.3-.3-1.9-.9-2.5zm49.3 24.9c-.5.3-1.2.5-2 .7-.8.2-1.6.4-2.6.6-.9.2-1.9.2-2.9.2-2.2 0-4.2-.3-6.1-.9-1.9-.6-3.5-1.6-4.8-2.8-1.3-1.3-2.4-2.8-3.2-4.7-.8-1.8-1.1-3.9-1.1-6.3s.4-4.4 1.1-6.3c.8-1.8 1.8-3.4 3.2-4.7 1.4-1.3 3-2.2 4.9-2.9 1.9-.7 4-1 6.3-1 1.8 0 3.5.2 5 .6 1.5.4 2.8.8 4 1.3-.2.4-.4.9-.5 1.6-.1.7-.2 1.2-.3 1.7l-.2.1c-.3-.3-.7-.7-1.2-1.1s-1.1-.8-1.7-1.2c-.6-.4-1.4-.7-2.2-1-.8-.3-1.7-.4-2.7-.4-1.6 0-3.1.3-4.5.8s-2.6 1.3-3.7 2.4c-1 1.1-1.8 2.5-2.4 4.1-.6 1.7-.9 3.7-.9 6s.3 4.3.9 6c.6 1.7 1.4 3.1 2.4 4.1 1 1.1 2.3 1.9 3.7 2.4s2.9.8 4.5.8c1 0 1.9-.1 2.8-.4.8-.2 1.6-.5 2.3-.9.7-.3 1.3-.7 1.9-1.1.6-.4 1-.8 1.4-1.1l.2.2-.4 2.5c-.3.2-.7.4-1.2.7zm6.2-19.6c.8-1.8 1.8-3.4 3.2-4.7 1.4-1.3 3-2.2 4.9-2.9 1.9-.7 4-1 6.3-1s4.4.3 6.3 1c1.9.7 3.6 1.6 4.9 2.9 1.4 1.3 2.4 2.8 3.2 4.7.8 1.8 1.1 3.9 1.1 6.3s-.4 4.4-1.1 6.3c-.8 1.8-1.8 3.4-3.2 4.7-1.4 1.3-3 2.2-4.9 2.8s-4 .9-6.3.9-4.4-.3-6.3-.9-3.5-1.6-4.9-2.8c-1.4-1.3-2.4-2.8-3.2-4.7-.8-1.8-1.1-3.9-1.1-6.3 0-2.3.3-4.4 1.1-6.3zm25 .4c-.6-1.7-1.4-3.1-2.4-4.1-1-1.1-2.3-1.9-3.7-2.4-1.4-.5-2.9-.8-4.5-.8s-3.1.3-4.5.8-2.6 1.3-3.7 2.4c-1 1.1-1.8 2.5-2.4 4.1-.6 1.7-.9 3.7-.9 6s.3 4.3.9 6c.6 1.7 1.4 3.1 2.4 4.1 1 1.1 2.3 1.9 3.7 2.4 1.4.5 2.9.8 4.5.8s3.1-.3 4.5-.8 2.6-1.3 3.7-2.4c1-1.1 1.8-2.5 2.4-4.1.6-1.7.9-3.7.9-6s-.3-4.3-.9-6z" id="XMLID_1_" fill="#6D6E71"/><g id="XMLID_2_"><path id="XMLID_15_" fill="#0095DA" d="M-366.7 263h69.5v69.5h-69.5z"/><path id="XMLID_8_" fill="#0089CF" d="M-339.5 306.7s-.1 2.8-.2 4.7c0 .7-.1 2.1-.2 4.6-2 1.6-4.8 2.8-7.9 3.2-4 .6-7.1-.6-9.4-3.5-2-2.5-3-6.1-2.7-10.7.2-5.1 1.6-9.2 4.1-12.3 2.5-3.1 5.9-5 10.3-5.6 1.5-.2 4.1-.6 4.1-.6l.1-2.3c-1.5.2-2.7.4-4.1.6-6.8 1-12.3 3-16.1 7.3-2.5 2.8-4.2 6-5 9.7v10.9c.8 2.8 2.1 5.1 4.3 6.8 3.4 2.7 7.8 3.6 13.2 2.8 5.6-.8 10.8-2.8 15.7-6 0-1.5.1-3.3.2-5 .2-4.3.3-5.6.3-5.6l-6.7 1z"/><path fill="#0089CF" d="M-318.1 299.8c-1.6-1-4-1.4-7.4-1.3 2.5-.7 4.6-1.9 6.3-3.4 2-1.8 3-3.9 3.2-6.2.3-5.7-3.3-8.1-10.7-7-.3 0-1.5.3-3.6.7-2.1.4-3.4.6-3.8.7-2.2.3-3.9.6-4.6.6 0 4.5-.1 10.1-.4 17.4v.8l6.5-.9c.7-.2 1.4-.4 1.9-.4 2.9-.4 5.1-.2 6.4.7 1.5 1.1 2.2 3 2.1 6-.2 5.1-3 8.1-8.2 8.8-.2 0-.4 0-.7.1l-.1 2.6c1.2-.1 2.1-.2 2.7-.3 4.3-.6 7.5-2.1 9.8-4.5 2.2-2.4 3.4-4.9 3.6-7.6 0-3.2-1-5.5-3-6.8zm-14.6-1.4l.4-8.6c0-1 .1-2.4.3-4.4 1.3-.3 2.5-.5 3.7-.7 1.8-.3 3.2.1 4.1 1.1s1.3 2.4 1.3 4.2c-.2 4.7-2.8 7.5-7.6 8.2-.5.1-1.2.2-2.2.2z"/><path id="XMLID_5_" fill="#0089CF" d="M-297.2 277.6c-.6.1-1.3.1-1.8.2-6.3.9-11.3 3.2-15.1 6.9.4 1 .6 2.3.6 3.8-.1 2.3-1.2 4.3-3.2 6.2-1.1 1-2.4 1.9-3.8 2.5 0 .3-.1.6-.1.9 2.2.1 3.8.5 5 1.3 1.1.7 1.8 1.6 2.3 2.9-.1-1.1-.2-2.4-.1-3.7.2-5.1 1.6-9.2 4.1-12.3 2.5-3.1 5.9-5 10.3-5.6.5-.1 1.2-.1 1.8-.2v-2.9z"/><path fill="#FFF" d="M-319.5 297.9c-1.6-1-4-1.4-7.4-1.3 2.5-.7 4.6-1.9 6.3-3.4 2-1.8 3-3.9 3.2-6.2.3-5.7-3.3-8.1-10.7-7-.3 0-1.5.3-3.6.7s-3.4.6-3.8.7c-2.2.3-3.9.6-4.6.6 0 4.5-.1 10.1-.4 17.4v.8l6.5-.9c.7-.2 1.4-.4 1.9-.4 2.9-.4 5.1-.2 6.4.7 1.5 1.1 2.2 3 2.1 6-.2 5.1-3 8.1-8.2 8.8-.2 0-.4 0-.7.1l-.1 2.6c1.2-.1 2.1-.2 2.7-.3 4.3-.6 7.5-2.1 9.8-4.5 2.2-2.4 3.4-4.9 3.6-7.6 0-3.2-1-5.5-3-6.8zm-14.6-1.4l.4-8.6c0-1 .1-2.4.3-4.4 1.3-.3 2.5-.5 3.7-.7 1.8-.3 3.2.1 4.1 1.1s1.3 2.4 1.3 4.2c-.2 4.7-2.8 7.5-7.6 8.2-.5.1-1.2.1-2.2.2z"/><path id="XMLID_10_" fill="#FFF" d="M-336.4 309.3l-12.2 1.7 2.7-5.5 8.8-1.3z"/><path id="XMLID_9_" fill="none" d="M-366.7 263h69.5v69.5h-69.5z"/><path id="XMLID_3_" fill="#FFF" d="M-297.2 275.6c-1.2.1-2.3.2-3.2.3-6.3.9-11.3 3.2-15.1 6.9.4 1 .6 2.3.6 3.8-.1 2.3-1.2 4.3-3.2 6.2-1.1 1-2.4 1.9-3.8 2.5 0 .3-.1.6-.1.9 2.2.1 3.8.5 5 1.3 1.1.7 1.8 1.6 2.3 2.9-.1-1.1-.2-2.4-.1-3.7.2-5.1 1.6-9.2 4.1-12.3s5.9-5 10.3-5.6c1-.1 2.1-.2 3.2-.3v-2.9z"/><path id="XMLID_4_" fill="#0089CF" d="M-297.2 311.8c-1.6.5-3.2.9-4.5 1.1-4 .6-7.1-.6-9.4-3.5-1-1.2-1.7-2.6-2.1-4.3v1.2c-.1 2.4-1.1 4.7-3 6.9 3.4 2.7 7.8 3.6 13.2 2.8 1.7-.2 3.8-.7 5.8-1.2v-3z"/><path id="XMLID_6_" fill="#FFF" d="M-297.2 309.4c-2 .8-4.3 1.4-5.9 1.6-4 .6-7.1-.6-9.4-3.5-1-1.2-1.7-2.6-2.1-4.3v1.2c-.1 2.4-1.1 4.7-3 6.9 3.4 2.7 7.8 3.6 13.2 2.8 2.1-.3 4.8-.9 7.3-1.6v-3.1h-.1z"/><path id="XMLID_7_" fill="#FFF" d="M-340.9 304.8s-.1 2.8-.2 4.7c0 .7-.1 2.1-.2 4.6-2 1.6-4.8 2.8-7.9 3.2-4 .6-7.1-.6-9.4-3.5-2-2.5-3-6.1-2.7-10.7.2-5.1 1.6-9.2 4.1-12.3 2.5-3.1 5.9-5 10.3-5.6 1.5-.2 4.1-.6 4.1-.6l.1-2.3c-1.5.2-2.7.4-4.1.6-6.8 1-12.3 3-16.1 7.3-1.5 1.7-2.7 3.6-3.6 5.6v18.4c.8 1.3 1.7 2.5 2.9 3.4 3.4 2.7 7.8 3.6 13.2 2.8 5.6-.8 10.8-2.8 15.7-6 0-1.5.1-3.3.2-5 .2-4.3.3-5.6.3-5.6l-6.7 1z"/></g></svg>