<?xml version="1.0" encoding="UTF-8"?>
<svg width="30px" height="28px" viewBox="0 0 30 28" version="1.1" xmlns="http://www.w3.org/2000/svg" xmlns:xlink="http://www.w3.org/1999/xlink">
    <title>share</title>
    <defs>
        <filter id="filter-1">
            <feColorMatrix in="SourceGraphic" type="matrix" values="0 0 0 0 0.724043 0 0 0 0 0.724043 0 0 0 0 0.724043 0 0 0 1.000000 0"></feColorMatrix>
        </filter>
    </defs>
    <g id="Page-1" stroke="none" stroke-width="1" fill="none" fill-rule="evenodd">
        <g id="publications-single" transform="translate(-626.000000, -889.000000)">
            <g id="share" transform="translate(551.000000, 882.000000)" filter="url(#filter-1)">
                <g transform="translate(75.000000, 7.000000)">
                    <path d="M30,10.214286 C30,10.504464 29.893973,10.75558 29.68192,10.967634 L21.110491,19.539062 C20.898438,19.751116 20.647321,19.857143 20.357143,19.857143 C20.066964,19.857143 19.815848,19.751116 19.603795,19.539062 C19.391741,19.327009 19.285714,19.075893 19.285714,18.785714 L19.285714,14.5 L15.535714,14.5 C14.441964,14.5 13.462612,14.533482 12.597656,14.600446 C11.732701,14.667411 10.873326,14.787388 10.019531,14.960379 C9.165737,15.133371 8.423549,15.370536 7.792969,15.671875 C7.162388,15.973214 6.573661,16.361049 6.026786,16.835379 C5.479911,17.30971 5.033482,17.873326 4.6875,18.526228 C4.341518,19.179129 4.070871,19.952009 3.875558,20.844866 C3.680246,21.737723 3.582589,22.747768 3.582589,23.875 C3.582589,24.488839 3.610491,25.175223 3.666295,25.934152 C3.666295,26.001116 3.680246,26.132254 3.708147,26.327567 C3.736049,26.522879 3.75,26.670759 3.75,26.771205 C3.75,26.938616 3.702567,27.078125 3.607701,27.189732 C3.512835,27.301339 3.381696,27.357143 3.214286,27.357143 C3.035714,27.357143 2.879464,27.262277 2.745536,27.072545 C2.667411,26.972098 2.594866,26.84933 2.527902,26.704241 C2.460938,26.559152 2.385603,26.391741 2.301897,26.202009 C2.218192,26.012277 2.159598,25.878348 2.126116,25.800223 C0.708705,22.61942 0,20.102679 0,18.25 C0,16.029018 0.295759,14.170759 0.887277,12.675223 C2.695312,8.177455 7.578125,5.928571 15.535714,5.928571 L19.285714,5.928571 L19.285714,1.642857 C19.285714,1.352679 19.391741,1.101562 19.603795,0.889509 C19.815848,0.677455 20.066964,0.571429 20.357143,0.571429 C20.647321,0.571429 20.898438,0.677455 21.110491,0.889509 L29.68192,9.460938 C29.893973,9.672991 30,9.924107 30,10.214286 Z" id="Path" fill="#000000" fill-rule="nonzero"></path>
                </g>
            </g>
        </g>
    </g>
</svg>