<?xml version="1.0" encoding="UTF-8"?>
<svg width="56px" height="65px" viewBox="0 0 56 65" version="1.1" xmlns="http://www.w3.org/2000/svg" xmlns:xlink="http://www.w3.org/1999/xlink">
    <title>Group 6</title>
    <defs>
        <filter id="filter-1">
            <feColorMatrix in="SourceGraphic" type="matrix" values="0 0 0 0 0.000000 0 0 0 0 0.584314 0 0 0 0 0.854902 0 0 0 1.000000 0"></feColorMatrix>
        </filter>
    </defs>
    <g id="Page-1" stroke="none" stroke-width="1" fill="none" fill-rule="evenodd">
        <g id="Group-8" transform="translate(-613.000000, -1256.000000)" filter="url(#filter-1)">
            <g transform="translate(128.000000, 1251.000000)">
                <g id="Group-6" transform="translate(486.000000, 6.000000)" fill="#000000" fill-rule="nonzero" stroke="#000000">
                    <path d="M12,12 L6,12 L6,18 L12,18 L12,12 Z M10.5074627,16.5798817 L7.49253731,16.5798817 L7.49253731,13.4201183 L10.5074627,13.4201183 L10.5074627,16.5798817 Z" id="Shape"></path>
                    <path d="M19,12 L13,12 L13,18 L19,18 L19,12 Z M17.5074627,16.5798817 L14.4925373,16.5798817 L14.4925373,13.4201183 L17.5074627,13.4201183 L17.5074627,16.5798817 Z" id="Shape"></path>
                    <path d="M12,4 L6,4 L6,10 L12,10 L12,4 Z M10.5074627,8.57988166 L7.49253731,8.57988166 L7.49253731,5.42011834 L10.5074627,5.42011834 L10.5074627,8.57988166 Z" id="Shape"></path>
                    <path d="M19,4 L13,4 L13,10 L19,10 L19,4 Z M17.5074627,8.57988166 L14.4925373,8.57988166 L14.4925373,5.42011834 L17.5074627,5.42011834 L17.5074627,8.57988166 Z" id="Shape"></path>
                    <path d="M23.3368334,32 C23.701575,32 24,31.6958817 24,31.3241816 C24,30.9524815 23.701575,30.6483633 23.3368334,30.6483633 L21.7386018,30.6483633 L21.7386018,0 L2.26139818,0 L2.26139818,30.6483633 L0.663166621,30.6483633 C0.298424979,30.6483633 0,30.9524815 0,31.3241816 C0,31.6958817 0.298424979,32 0.663166621,32 L23.3368334,32 Z M16.5924288,30.6483633 L12.6266925,30.6483633 L12.6266925,21.369377 L16.5924288,21.369377 L16.5924288,30.6483633 Z M11.3003592,30.6483633 L7.33462282,30.6483633 L7.33462282,21.369377 L11.3003592,21.369377 L11.3003592,30.6483633 Z M3.58773142,30.6483633 L3.58773142,1.35163675 L20.4122686,1.35163675 L20.4122686,30.6483633 L17.9187621,30.6483633 L17.9187621,20.0177402 L12.6266925,20.0177402 L11.3003592,20.0177402 L6.00828958,20.0177402 L6.00828958,30.6483633 L3.58773142,30.6483633 Z" id="Shape"></path>
                    <path d="M35,49 L41,49 L41,43 L35,43 L35,49 L35,49 Z M36.4925373,44.4201183 L39.5074627,44.4201183 L39.5074627,47.5798817 L36.4925373,47.5798817 L36.4925373,44.4201183 Z" id="Shape"></path>
                    <path d="M42,49 L48,49 L48,43 L42,43 L42,49 L42,49 Z M43.4925373,44.4201183 L46.5074627,44.4201183 L46.5074627,47.5798817 L43.4925373,47.5798817 L43.4925373,44.4201183 Z" id="Shape"></path>
                    <path d="M35,40 L41,40 L41,34 L35,34 L35,40 L35,40 Z M36.4925373,35.4201183 L39.5074627,35.4201183 L39.5074627,38.5798817 L36.4925373,38.5798817 L36.4925373,35.4201183 Z" id="Shape"></path>
                    <path d="M42,40 L48,40 L48,34 L42,34 L42,40 L42,40 Z M43.4925373,35.4201183 L46.5074627,35.4201183 L46.5074627,38.5798817 L43.4925373,38.5798817 L43.4925373,35.4201183 Z" id="Shape"></path>
                    <path d="M53.3370166,61.6548373 L51.7392265,61.6548373 L51.7392265,31 L32.2607735,31 L32.2607735,61.6480777 L30.6629834,61.6480777 C30.2983425,61.6480777 30,61.9522602 30,62.3240389 C30,62.6958175 30.2983425,63 30.6629834,63 L53.3370166,63 C53.7016575,63 54,62.6958175 54,62.3240389 C54,61.9522602 53.7016575,61.6548373 53.3370166,61.6548373 Z M46.5878453,61.6548373 L42.6232044,61.6548373 L42.6232044,52.373891 L46.5878453,52.373891 L46.5878453,61.6548373 Z M41.2972376,61.6548373 L37.3325967,61.6548373 L37.3325967,52.373891 L41.2972376,52.373891 L41.2972376,61.6548373 Z M47.9138122,61.6548373 L47.9138122,51.0219687 L42.6232044,51.0219687 L41.2972376,51.0219687 L36.0066298,51.0219687 L36.0066298,61.6548373 L33.5867403,61.6548373 L33.5867403,32.3519223 L50.4132597,32.3519223 L50.4132597,61.6480777 L47.9138122,61.6480777 L47.9138122,61.6548373 Z" id="Shape"></path>
                    <path d="M29.9019282,12.7852301 L29.060251,12.1715944 C36.9787504,13.0010141 43.6515676,18.6518571 45.6715929,26.4942563 C45.7523939,26.7977025 46.0217307,27 46.3247345,27 C46.3786018,27 46.4392026,26.9932568 46.4930699,26.9797703 C46.8566745,26.8853648 47.0721438,26.5212293 46.977876,26.1570938 C44.7962486,17.674086 37.5308907,11.5849317 28.9457829,10.7959715 L30.2318657,10.3037143 C30.5820034,10.1688493 30.7503389,9.78448408 30.6224039,9.43383511 C30.4877356,9.08318614 30.1039308,8.9146049 29.753793,9.04272664 L25,10.863404 L29.1073849,13.8708933 C29.2285864,13.9585555 29.3632548,13.999015 29.5046566,13.999015 C29.7133925,13.999015 29.9153951,13.9046095 30.0500634,13.7225418 C30.2655328,13.4258388 30.1981986,13.0010141 29.9019282,12.7852301 Z" id="Path"></path>
                    <path d="M23.9967987,50.2628443 C23.7836131,50.5660761 23.8502336,50.9838623 24.1500259,51.2062323 L25.0360789,51.853127 C17.0749264,51.1388474 10.3329295,45.4380882 8.31432766,37.50689 C8.22105893,37.1497502 7.86130811,36.9273802 7.50155729,37.021719 C7.14180646,37.1160578 6.92862079,37.4799361 7.02188952,37.8438143 C9.19371856,46.3814762 16.4753417,52.5000216 25.049403,53.2143012 L23.8302474,53.6927337 C23.4904828,53.8275034 23.3172694,54.2183356 23.4505104,54.5687369 C23.5504412,54.8382763 23.8035992,55 24.0700813,55 C24.1500259,55 24.2299706,54.986523 24.3099152,54.9528306 L29,53.0997469 L24.9094999,50.121336 C24.6296937,49.8922275 24.2099844,49.9596124 23.9967987,50.2628443 Z" id="Path"></path>
                </g>
            </g>
        </g>
    </g>
</svg>