<?xml version="1.0" encoding="UTF-8"?>
<svg width="49px" height="69px" viewBox="0 0 49 69" version="1.1" xmlns="http://www.w3.org/2000/svg" xmlns:xlink="http://www.w3.org/1999/xlink">
    <title>Group 4</title>
    <defs>
        <filter id="filter-1">
            <feColorMatrix in="SourceGraphic" type="matrix" values="0 0 0 0 0.000000 0 0 0 0 0.584314 0 0 0 0 0.854902 0 0 0 1.000000 0"></feColorMatrix>
        </filter>
    </defs>
    <g id="Page-1" stroke="none" stroke-width="1" fill="none" fill-rule="evenodd">
        <g id="Group-8" transform="translate(-466.000000, -1251.000000)" filter="url(#filter-1)">
            <g transform="translate(128.000000, 1251.000000)">
                <g id="Group-4" transform="translate(338.000000, 0.000000)" fill="#000000" fill-rule="nonzero">
                    <path d="M47.9347826,66.8333333 L43.1413043,66.8333333 L43.1413043,64.42387 C44.3934088,63.8407442 45.2717391,62.2535362 45.2717391,60.3333333 C45.2717391,57.9035033 43.8679211,56 42.076087,56 C40.2842528,56 38.8804348,57.9035033 38.8804348,60.3333333 C38.8804348,62.2535417 39.7587651,63.8407442 41.0108696,64.42387 L41.0108696,66.8333333 L35.6847826,66.8333333 L35.6847826,61.4166667 C35.6847826,60.2200497 34.7309545,59.25 33.5543478,59.25 L15.4456522,59.25 C14.2690455,59.25 13.3152174,60.2200497 13.3152174,61.4166667 L13.3152174,66.8333333 L7.98913043,66.8333333 L7.98913043,64.42387 C9.24123489,63.8407442 10.1195652,62.2535362 10.1195652,60.3333333 C10.1195652,57.9035033 8.71574717,56 6.92391304,56 C5.13207891,56 3.72826087,57.9035033 3.72826087,60.3333333 C3.72826087,62.2535417 4.6065912,63.8407442 5.85869565,64.42387 L5.85869565,66.8333333 L1.06521739,66.8333333 C0.476914071,66.8333333 0,67.3183582 0,67.9166667 C0,68.5149751 0.476914071,69 1.06521739,69 L47.9347826,69 C48.5230859,69 49,68.5149751 49,67.9166667 C49,67.3183582 48.5230859,66.8333333 47.9347826,66.8333333 Z M33.5543478,66.8333333 L25.5652174,66.8333333 L25.5652174,65.2083333 C25.5652174,64.6100249 25.0883033,64.125 24.5,64.125 C23.9116967,64.125 23.4347826,64.6100249 23.4347826,65.2083333 L23.4347826,66.8333333 L15.4456522,66.8333333 L15.4456522,61.4166667 L33.5543478,61.4166667 L33.5543478,66.8333333 Z" id="Shape"></path>
                    <path d="M33,57 L33,16.6698113 C33,15.4818781 32.0486051,14.5188679 30.875,14.5188679 L29.28125,14.5188679 L29.28125,11.8301887 C29.2795127,10.8516394 28.6239863,9.99821217 27.6875,9.75529189 L27.6875,7.52830189 C27.6875,6.34036865 26.7361051,5.37735849 25.5625,5.37735849 L25.5625,1.0754717 C25.5625,0.48150508 25.0868025,0 24.5,0 C23.9131975,0 23.4375,0.48150508 23.4375,1.0754717 L23.4375,5.37735849 C22.2638949,5.37735849 21.3125,6.34036865 21.3125,7.52830189 L21.3125,9.75529189 C20.3760137,9.99821217 19.7204873,10.8516394 19.71875,11.8301887 L19.71875,14.5188679 L18.125,14.5188679 C16.9513949,14.5188679 16,15.4818781 16,16.6698113 L16,57 L33,57 Z M27.6875,54.8490566 L26.625,54.8490566 C26.0381975,54.8490566 25.5625,54.3675515 25.5625,53.7735849 C25.5625,53.1796183 26.0381975,52.6981132 26.625,52.6981132 L27.6875,52.6981132 C28.2743025,52.6981132 28.75,53.1796183 28.75,53.7735849 C28.75,54.3675515 28.2743025,54.8490566 27.6875,54.8490566 Z M27.6875,51.6226415 L26.625,51.6226415 C26.0381975,51.6226415 25.5625,51.1411364 25.5625,50.5471698 C25.5625,49.9532032 26.0381975,49.4716981 26.625,49.4716981 L27.6875,49.4716981 C28.2743025,49.4716981 28.75,49.9532032 28.75,50.5471698 C28.75,51.1411364 28.2743025,51.6226415 27.6875,51.6226415 Z M27.6875,48.3962264 L26.625,48.3962264 C26.0381975,48.3962264 25.5625,47.9147213 25.5625,47.3207547 C25.5625,46.7267881 26.0381975,46.245283 26.625,46.245283 L27.6875,46.245283 C28.2743025,46.245283 28.75,46.7267881 28.75,47.3207547 C28.75,47.9147213 28.2743025,48.3962264 27.6875,48.3962264 Z M27.6875,45.1698113 L26.625,45.1698113 C26.0381975,45.1698113 25.5625,44.6883062 25.5625,44.0943396 C25.5625,43.500373 26.0381975,43.0188679 26.625,43.0188679 L27.6875,43.0188679 C28.2743025,43.0188679 28.75,43.500373 28.75,44.0943396 C28.75,44.6883062 28.2743025,45.1698113 27.6875,45.1698113 Z M27.6875,41.9433962 L26.625,41.9433962 C26.0381975,41.9433962 25.5625,41.4618911 25.5625,40.8679245 C25.5625,40.2739579 26.0381975,39.7924528 26.625,39.7924528 L27.6875,39.7924528 C28.2743025,39.7924528 28.75,40.2739579 28.75,40.8679245 C28.75,41.4618911 28.2743025,41.9433962 27.6875,41.9433962 Z M27.6875,38.7169811 L26.625,38.7169811 C26.0381975,38.7169811 25.5625,38.2354761 25.5625,37.6415094 C25.5625,37.0475428 26.0381975,36.5660377 26.625,36.5660377 L27.6875,36.5660377 C28.2743025,36.5660377 28.75,37.0475428 28.75,37.6415094 C28.75,38.2354761 28.2743025,38.7169811 27.6875,38.7169811 Z M27.6875,35.490566 L26.625,35.490566 C26.0381975,35.490566 25.5625,35.009061 25.5625,34.4150943 C25.5625,33.8211277 26.0381975,33.3396226 26.625,33.3396226 L27.6875,33.3396226 C28.2743025,33.3396226 28.75,33.8211277 28.75,34.4150943 C28.75,35.009061 28.2743025,35.490566 27.6875,35.490566 Z M27.6875,32.2641509 L26.625,32.2641509 C26.0381975,32.2641509 25.5625,31.7826459 25.5625,31.1886792 C25.5625,30.5947126 26.0381975,30.1132075 26.625,30.1132075 L27.6875,30.1132075 C28.2743025,30.1132075 28.75,30.5947126 28.75,31.1886792 C28.75,31.7826459 28.2743025,32.2641509 27.6875,32.2641509 Z M27.6875,29.0377358 L26.625,29.0377358 C26.0381975,29.0377358 25.5625,28.5562308 25.5625,27.9622642 C25.5625,27.3682975 26.0381975,26.8867925 26.625,26.8867925 L27.6875,26.8867925 C28.2743025,26.8867925 28.75,27.3682975 28.75,27.9622642 C28.75,28.5562308 28.2743025,29.0377358 27.6875,29.0377358 Z M27.6875,25.8113208 L26.625,25.8113208 C26.0381975,25.8113208 25.5625,25.3298157 25.5625,24.7358491 C25.5625,24.1418824 26.0381975,23.6603774 26.625,23.6603774 L27.6875,23.6603774 C28.2743025,23.6603774 28.75,24.1418824 28.75,24.7358491 C28.75,25.3298157 28.2743025,25.8113208 27.6875,25.8113208 Z M27.6875,22.5849057 L26.625,22.5849057 C26.0381975,22.5849057 25.5625,22.1034006 25.5625,21.509434 C25.5625,20.9154673 26.0381975,20.4339623 26.625,20.4339623 L27.6875,20.4339623 C28.2743025,20.4339623 28.75,20.9154673 28.75,21.509434 C28.75,22.1034006 28.2743025,22.5849057 27.6875,22.5849057 Z M28.75,18.2830189 C28.75,18.8769732 28.2742904,19.3584609 27.6875,19.3584906 L26.625,19.3584906 C26.0381975,19.3584906 25.5625,18.8769855 25.5625,18.2830189 C25.5625,17.6890523 26.0381975,17.2075472 26.625,17.2075472 L27.6875,17.2075472 C28.2742904,17.2075769 28.75,17.6890646 28.75,18.2830189 L28.75,18.2830189 Z M21.84375,11.8301887 L27.15625,11.8301887 L27.15625,14.5188679 L21.84375,14.5188679 L21.84375,11.8301887 Z M21.3125,17.2075472 L22.375,17.2075472 C22.9618025,17.2075472 23.4375,17.6890523 23.4375,18.2830189 C23.4375,18.8769855 22.9618025,19.3584906 22.375,19.3584906 L21.3125,19.3584906 C20.7256975,19.3584906 20.25,18.8769855 20.25,18.2830189 C20.25,17.6890523 20.7256975,17.2075472 21.3125,17.2075472 Z M21.3125,20.4339623 L22.375,20.4339623 C22.9618025,20.4339623 23.4375,20.9154673 23.4375,21.509434 C23.4375,22.1034006 22.9618025,22.5849057 22.375,22.5849057 L21.3125,22.5849057 C20.7256975,22.5849057 20.25,22.1034006 20.25,21.509434 C20.25,20.9154673 20.7256975,20.4339623 21.3125,20.4339623 Z M21.3125,23.6603774 L22.375,23.6603774 C22.9618025,23.6603774 23.4375,24.1418824 23.4375,24.7358491 C23.4375,25.3298157 22.9618025,25.8113208 22.375,25.8113208 L21.3125,25.8113208 C20.7256975,25.8113208 20.25,25.3298157 20.25,24.7358491 C20.25,24.1418824 20.7256975,23.6603774 21.3125,23.6603774 Z M21.3125,26.8867925 L22.375,26.8867925 C22.9618025,26.8867925 23.4375,27.3682975 23.4375,27.9622642 C23.4375,28.5562308 22.9618025,29.0377358 22.375,29.0377358 L21.3125,29.0377358 C20.7256975,29.0377358 20.25,28.5562308 20.25,27.9622642 C20.25,27.3682975 20.7256975,26.8867925 21.3125,26.8867925 Z M21.3125,30.1132075 L22.375,30.1132075 C22.9618025,30.1132075 23.4375,30.5947126 23.4375,31.1886792 C23.4375,31.7826459 22.9618025,32.2641509 22.375,32.2641509 L21.3125,32.2641509 C20.7256975,32.2641509 20.25,31.7826459 20.25,31.1886792 C20.25,30.5947126 20.7256975,30.1132075 21.3125,30.1132075 Z M21.3125,33.3396226 L22.375,33.3396226 C22.9618025,33.3396226 23.4375,33.8211277 23.4375,34.4150943 C23.4375,35.009061 22.9618025,35.490566 22.375,35.490566 L21.3125,35.490566 C20.7256975,35.490566 20.25,35.009061 20.25,34.4150943 C20.25,33.8211277 20.7256975,33.3396226 21.3125,33.3396226 Z M21.3125,36.5660377 L22.375,36.5660377 C22.9618025,36.5660377 23.4375,37.0475428 23.4375,37.6415094 C23.4375,38.2354761 22.9618025,38.7169811 22.375,38.7169811 L21.3125,38.7169811 C20.7256975,38.7169811 20.25,38.2354761 20.25,37.6415094 C20.25,37.0475428 20.7256975,36.5660377 21.3125,36.5660377 Z M21.3125,39.7924528 L22.375,39.7924528 C22.9618025,39.7924528 23.4375,40.2739579 23.4375,40.8679245 C23.4375,41.4618911 22.9618025,41.9433962 22.375,41.9433962 L21.3125,41.9433962 C20.7256975,41.9433962 20.25,41.4618911 20.25,40.8679245 C20.25,40.2739579 20.7256975,39.7924528 21.3125,39.7924528 Z M21.3125,43.0188679 L22.375,43.0188679 C22.9618025,43.0188679 23.4375,43.500373 23.4375,44.0943396 C23.4375,44.6883062 22.9618025,45.1698113 22.375,45.1698113 L21.3125,45.1698113 C20.7256975,45.1698113 20.25,44.6883062 20.25,44.0943396 C20.25,43.500373 20.7256975,43.0188679 21.3125,43.0188679 Z M21.3125,46.245283 L22.375,46.245283 C22.9618025,46.245283 23.4375,46.7267881 23.4375,47.3207547 C23.4375,47.9147213 22.9618025,48.3962264 22.375,48.3962264 L21.3125,48.3962264 C20.7256975,48.3962264 20.25,47.9147213 20.25,47.3207547 C20.25,46.7267881 20.7256975,46.245283 21.3125,46.245283 Z M21.3125,49.4716981 L22.375,49.4716981 C22.9618025,49.4716981 23.4375,49.9532032 23.4375,50.5471698 C23.4375,51.1411364 22.9618025,51.6226415 22.375,51.6226415 L21.3125,51.6226415 C20.7256975,51.6226415 20.25,51.1411364 20.25,50.5471698 C20.25,49.9532032 20.7256975,49.4716981 21.3125,49.4716981 Z M21.3125,52.6981132 L22.375,52.6981132 C22.9618025,52.6981132 23.4375,53.1796183 23.4375,53.7735849 C23.4375,54.3675515 22.9618025,54.8490566 22.375,54.8490566 L21.3125,54.8490566 C20.7256975,54.8490566 20.25,54.3675515 20.25,53.7735849 C20.25,53.1796183 20.7256975,52.6981132 21.3125,52.6981132 Z" id="Shape"></path>
                </g>
            </g>
        </g>
    </g>
</svg>