<?xml version="1.0" encoding="UTF-8"?>
<svg width="64px" height="66px" viewBox="0 0 64 66" version="1.1" xmlns="http://www.w3.org/2000/svg" xmlns:xlink="http://www.w3.org/1999/xlink">
    <title>Group 7</title>
    <defs>
        <filter id="filter-1">
            <feColorMatrix in="SourceGraphic" type="matrix" values="0 0 0 0 0.000000 0 0 0 0 0.584314 0 0 0 0 0.854902 0 0 0 1.000000 0"></feColorMatrix>
        </filter>
    </defs>
    <g id="Page-1" stroke="none" stroke-width="1" fill="none" fill-rule="evenodd">
        <g id="Group-8" transform="translate(-927.000000, -1253.000000)" filter="url(#filter-1)">
            <g transform="translate(128.000000, 1251.000000)">
                <g id="Group-7" transform="translate(799.000000, 2.000000)" fill="#000000" fill-rule="nonzero">
                    <path d="M34.5345301,63 L29.4654699,63 C28.655065,63 28,63.6705 28,64.5 C28,65.331 28.655065,66 29.4654699,66 L34.5345301,66 C35.344935,66 36,65.331 36,64.5 C36,63.6705 35.3434695,63 34.5345301,63 Z" id="Path"></path>
                    <path d="M34,7.62532458 L34,1.37467542 C34,0.614479914 33.3295,0 32.5,0 C31.6705,0 31,0.614479914 31,1.37467542 L31,7.62532458 C31,8.38689476 31.6705,9 32.5,9 C33.3295,9 34,8.38689476 34,7.62532458 Z" id="Path"></path>
                    <path d="M20.4902752,12 C20.7107211,12 20.932677,11.9542436 21.1440636,11.8553508 C21.8959957,11.5011078 22.2115656,10.6184524 21.8506986,9.88339823 L18.8716582,3.83617546 C18.5092812,3.10112129 17.6078686,2.7926347 16.8559364,3.14687767 C16.1040043,3.50112065 15.7884344,4.38377606 16.1493014,5.1158782 L19.1283418,11.161625 C19.3895552,11.6944654 19.9285909,12 20.4902752,12 Z" id="Path"></path>
                    <path d="M7.33864166,12.3171375 C6.71484549,11.8163209 5.81012494,11.920537 5.31454553,12.5458341 C4.81896613,13.1711312 4.91981077,14.0815753 5.54072567,14.5766022 L10.6607524,18.6815617 C10.9272704,18.8928889 11.2427701,19 11.5582698,19 C11.9818173,19 12.4010429,18.8132793 12.6848486,18.4543125 C13.1818686,17.827568 13.0795833,16.9171239 12.4586684,16.422097 L7.33864166,12.3171375 Z" id="Path"></path>
                    <path d="M1.08677995,28.2797164 L7.28826259,29.9601863 C7.39320645,29.9900466 7.49675106,30 7.60169492,30 C8.23975361,30 8.81624522,29.480763 8.96456588,28.7126904 C9.13667382,27.818541 8.66512606,26.9310273 7.91232876,26.7269821 L1.71084611,25.0448533 C0.959448059,24.8325136 0.206650753,25.3948821 0.0359420701,26.2923492 C-0.137565116,27.1815218 0.333982639,28.0740123 1.08677995,28.2797164 Z" id="Path"></path>
                    <path d="M8.96456013,39.2928204 C8.79244255,38.3946635 8.0410024,37.833523 7.28956225,38.0443658 L1.08773218,39.7244669 C0.334892698,39.9286689 -0.136681474,40.8168647 0.035436102,41.7117011 C0.18236574,42.480364 0.760288985,43 1.39838341,43 C1.50193383,43 1.60548424,42.9867186 1.71183331,42.9601557 L7.91366338,41.2800546 C8.66510353,41.0758526 9.1366777,40.1843365 8.96456013,39.2928204 Z" id="Path"></path>
                    <path d="M10.6621164,48.3161052 L5.54325871,52.4205815 C4.91960496,52.9202442 4.81878334,53.8312236 5.3142496,54.4539917 C5.59943075,54.8131696 6.01856063,55 6.44201144,55 C6.75599878,55 7.07286673,54.8986191 7.33788356,54.6842711 L12.4567413,50.5797948 C13.080395,50.0786838 13.1812167,49.1677044 12.6857504,48.5449363 C12.1902842,47.9192716 11.2843299,47.8178908 10.6621164,48.3161052 Z" id="Path"></path>
                    <path d="M53.3376505,48.3152395 C52.7139387,47.8169605 51.8107809,47.9212515 51.3138281,48.5441002 C50.8183157,49.1698459 50.9205871,50.0823918 51.5428585,50.5792223 L56.662193,54.6842302 C56.9272346,54.895709 57.244132,55 57.5581486,55 C57.9816388,55 58.4008078,54.8131454 58.6860155,54.453921 C59.1829683,53.8267268 59.077816,52.9156294 58.456985,52.4202474 L53.3376505,48.3152395 Z" id="Path"></path>
                    <path d="M62.9108014,39.7244669 L56.7094195,38.0443658 C55.9554053,37.833523 55.2069868,38.3946635 55.0349204,39.2928204 C54.864253,40.1843365 55.3356868,41.0758526 56.088302,41.2800546 L62.2882851,42.9601557 C62.3932036,42.9916991 62.4967231,43 62.6016416,43 C63.2409449,43 63.8172971,42.480364 63.9655819,41.7117011 C64.1348504,40.8168647 63.6634167,39.9286689 62.9108014,39.7244669 Z" id="Path"></path>
                    <path d="M62.2872992,25.0442608 L56.0873945,26.7254945 C55.3347887,26.9296325 54.863361,27.8175496 55.0354251,28.7104456 C55.1809102,29.480527 55.760053,30 56.3979493,30 C56.5014676,30 56.6035869,29.9867227 56.7113019,29.9601682 L62.9126055,28.2789345 C63.6652113,28.0747966 64.136639,27.1835602 63.9645749,26.2939834 C63.7939097,25.3961083 63.0385061,24.8334842 62.2872992,25.0442608 Z" id="Path"></path>
                    <path d="M51.3135118,18.4543125 C51.5973389,18.8132793 52.0165963,19 52.4401759,19 C52.7556995,19 53.071223,18.8957838 53.3377612,18.6815617 L58.4581757,14.5766022 C59.0805784,14.0786804 59.1814307,13.1682363 58.684373,12.5458341 C58.1873153,11.920537 57.283967,11.8163209 56.6601236,12.3171375 L51.5397091,16.422097 C50.9201879,16.9200188 50.8193356,17.8290154 51.3135118,18.4543125 Z" id="Path"></path>
                    <path d="M47.1435812,3.14690176 C46.3947391,2.79260068 45.4919012,3.10113787 45.1295583,3.83631261 L42.1492874,9.88305105 C41.7884542,10.6182258 42.1039946,11.501026 42.8558562,11.8553271 C43.0687327,11.9512836 43.289158,12 43.5110931,12 C44.0712149,12 44.6117098,11.6944153 44.8728987,11.16444 L47.8516598,5.11770152 C48.2109832,4.38400303 47.8954429,3.50120284 47.1435812,3.14690176 Z" id="Path"></path>
                    <path d="M49.9017753,24.9306697 C47.5473985,20.1842217 43.5282963,16.6595144 38.5775853,15.0014377 C33.6254255,13.34484 28.338582,13.753073 23.6935778,16.1551396 C14.0993115,21.1145787 10.243929,33.1175161 15.0990161,42.9136287 C16.9897617,46.7223241 19.9598985,49.7574477 23.6935778,51.6876797 C24.0441988,51.8666514 24.2629748,52.2305113 24.2629748,52.6343069 L24.2629748,59.4588976 C24.2629748,60.8566518 25.3785871,62 26.7491966,62 L38.2544924,62 C39.623653,62 40.7407142,60.85961 40.7407142,59.4588976 L40.7407142,52.6343069 C40.7407142,52.2334695 40.9565925,51.8666514 41.3115601,51.6876797 C50.900031,46.7282406 54.7554135,34.7267823 49.9017753,24.9306697 Z M40.6537834,50.3653598 C39.8105543,50.8002167 39.2904182,51.6699305 39.2904182,52.6298696 L39.2904182,59.4559393 C39.2904182,60.0401858 38.8253382,60.5164577 38.2530436,60.5164577 L26.7477477,60.5164577 C26.1754531,60.5164577 25.7103731,60.0401858 25.7103731,59.4559393 L25.7103731,58.9071914 L36.52312,58.9071914 C36.921553,58.9071914 37.2475436,58.5758719 37.2475436,58.1676389 C37.2475436,57.760885 36.921553,57.4280864 36.52312,57.4280864 L25.7103731,57.4280864 L25.7103731,56.3572143 L36.52312,56.3572143 C36.921553,56.3572143 37.2475436,56.0229366 37.2475436,55.6176618 C37.2475436,55.2094288 36.921553,54.8781093 36.52312,54.8781093 L25.7103731,54.8781093 L25.7103731,52.6283905 C25.7103731,51.6684514 25.1887881,50.7987376 24.3470079,50.3638807 C20.8915073,48.5800801 18.1415952,45.7727387 16.3928366,42.2450732 C11.8970637,33.1766803 15.4655744,22.0626851 24.3470079,17.4759804 C28.6486353,15.2514064 33.5442901,14.8727555 38.1269939,16.4036292 C42.7082488,17.9374611 46.4303373,21.2018459 48.6079547,25.596267 C53.1037276,34.666139 49.5337681,45.777176 40.6537834,50.3653598 Z" id="Shape"></path>
                    <path d="M39.2002946,27 C36.5139912,27 34.2680412,28.9 33.6111929,31.4530303 L20.4727541,31.4530303 C19.6583211,31.4530303 19,32.130303 19,32.9681818 C19,33.7681818 19.6082474,34.4060606 20.3726068,34.4606061 L20.3726068,37.4848485 C20.3726068,38.3242424 21.0309278,39 21.8453608,39 C22.6597938,39 23.3181149,38.3242424 23.3181149,37.4848485 L23.3181149,34.4833333 L23.5419735,34.4833333 L23.5419735,35.0984848 C23.5419735,35.9363636 24.2002946,36.6136364 25.0147275,36.6136364 C25.8291605,36.6136364 26.4874816,35.9363636 26.4874816,35.0984848 L26.4874816,34.4833333 L33.6111929,34.4833333 C34.2650957,37.0409091 36.5139912,38.9378788 39.2002946,38.9378788 C42.3991163,38.9378788 45,36.2590909 45,32.9681818 C45,29.6772727 42.3961708,27 39.2002946,27 Z" id="Path"></path>
                </g>
            </g>
        </g>
    </g>
</svg>