<?xml version="1.0" encoding="UTF-8"?>
<svg width="49px" height="60px" viewBox="0 0 49 60" version="1.1" xmlns="http://www.w3.org/2000/svg" xmlns:xlink="http://www.w3.org/1999/xlink">
    <title>Shape</title>
    <defs>
        <filter id="filter-1">
            <feColorMatrix in="SourceGraphic" type="matrix" values="0 0 0 0 0.000000 0 0 0 0 0.584314 0 0 0 0 0.854902 0 0 0 1.000000 0"></feColorMatrix>
        </filter>
    </defs>
    <g id="Page-1" stroke="none" stroke-width="1" fill="none" fill-rule="evenodd">
        <g id="Group-8" transform="translate(-318.000000, -1258.000000)" filter="url(#filter-1)">
            <g transform="translate(128.000000, 1251.000000)">
                <path d="M190,66 C190,66.5522869 190.457043,67 191.020833,67 L237.979167,67 C238.542957,67 239,66.5522869 239,66 C239,65.4477226 238.542957,65 237.979167,65 L229.517479,65 L222.065396,44.0001089 L228.791667,44.0001089 L228.791667,46.0000994 C228.791667,46.5523816 229.248709,47.0000947 229.8125,47.0000947 C230.376291,47.0000947 230.833333,46.5523816 230.833333,46.0000994 L230.833333,43.0001136 L230.833333,42.9871137 C230.831965,42.8663622 230.807376,42.746945 230.760854,42.6351153 C230.745857,42.6037378 230.728808,42.5733414 230.709812,42.5441158 C230.671985,42.4698618 230.624645,42.400637 230.568938,42.3381168 C230.53693,42.3062987 230.502829,42.2765686 230.466854,42.2491172 C230.439359,42.2203352 230.410037,42.1932816 230.379063,42.1681176 L221.645833,36.4651446 L221.645833,32.0001657 L228.791667,32.0001657 L228.791667,34.0001562 C228.791667,34.5524384 229.248709,35.0001515 229.8125,35.0001515 C230.376291,35.0001515 230.833333,34.5524384 230.833333,34.0001562 L230.833333,31.0001704 L230.833333,30.9871705 C230.831965,30.866419 230.807376,30.7470018 230.760854,30.6351722 C230.745857,30.6037946 230.728808,30.5733982 230.709812,30.5441726 C230.671985,30.4699186 230.624645,30.4006938 230.568938,30.3381736 C230.53693,30.3063555 230.502829,30.2766254 230.466854,30.249174 C230.439359,30.220392 230.410037,30.1933384 230.379063,30.1681744 L221.645833,24.4652014 L221.645833,20.0002225 L228.791667,20.0002225 L228.791667,22.000213 C228.791667,22.5524952 229.248709,23.0002083 229.8125,23.0002083 C230.376291,23.0002083 230.833333,22.5524952 230.833333,22.000213 L230.833333,19.0002272 L230.833333,18.9872273 C230.831965,18.8664758 230.807376,18.7470587 230.760854,18.635229 C230.745857,18.6038514 230.728808,18.573455 230.709812,18.5442294 C230.671985,18.4699754 230.624645,18.4007506 230.568938,18.3382304 C230.53693,18.3064123 230.502829,18.2766822 230.466854,18.2492308 C230.439359,18.2204488 230.410037,18.1933952 230.379063,18.1682312 L221.760167,12.5392578 L222.64625,8.20027837 C222.728129,7.79816329 222.551118,7.38783204 222.199684,7.16508845 C221.84825,6.94234487 221.393617,6.95233161 221.052729,7.19028315 L214.5,11.7712615 L207.947271,7.18628317 C207.605766,6.94731603 207.149756,6.93744313 206.797808,7.1613966 C206.445859,7.38535006 206.269694,7.79749068 206.35375,8.20027837 L207.239833,12.5432578 L198.620937,18.1722312 C198.589963,18.1973952 198.560641,18.2244488 198.533146,18.2532308 C198.497171,18.2806822 198.46307,18.3104123 198.431062,18.3422304 C198.375355,18.4047506 198.328015,18.4739754 198.290188,18.5482294 C198.271192,18.577455 198.254143,18.6078514 198.239146,18.639229 C198.192624,18.7510586 198.168035,18.8704758 198.166667,18.9912273 L198.166667,19.0002272 L198.166667,22.000213 C198.166667,22.5524952 198.623709,23.0002083 199.1875,23.0002083 C199.751291,23.0002083 200.208333,22.5524952 200.208333,22.000213 L200.208333,20.0002225 L207.354167,20.0002225 L207.354167,24.4652014 L198.620937,30.1651744 C198.589963,30.1903384 198.560641,30.217392 198.533146,30.246174 C198.497171,30.2736254 198.46307,30.3033556 198.431062,30.3351736 C198.375355,30.3976938 198.328015,30.4669187 198.290188,30.5411726 C198.271192,30.5703982 198.254143,30.6007946 198.239146,30.6321722 C198.192624,30.7440019 198.168035,30.863419 198.166667,30.9841705 L198.166667,31.0001704 L198.166667,34.0001562 C198.166667,34.5524384 198.623709,35.0001515 199.1875,35.0001515 C199.751291,35.0001515 200.208333,34.5524384 200.208333,34.0001562 L200.208333,32.0001657 L207.354167,32.0001657 L207.354167,36.4651446 L198.620937,42.1651176 C198.589963,42.1902816 198.560641,42.2173352 198.533146,42.2461172 C198.497171,42.2735686 198.46307,42.3032987 198.431062,42.3351168 C198.375355,42.397637 198.328015,42.4668618 198.290188,42.5411158 C198.271192,42.5703414 198.254143,42.6007378 198.239146,42.6321154 C198.192624,42.7439451 198.168035,42.8633622 198.166667,42.9841137 L198.166667,43.0001136 L198.166667,46.0000994 C198.166667,46.5523816 198.623709,47.0000947 199.1875,47.0000947 C199.751291,47.0000947 200.208333,46.5523816 200.208333,46.0000994 L200.208333,44.0001089 L206.938688,44.0001089 L199.486604,65 L191.020833,65 C190.457043,65 190,65.4477226 190,66 Z M222,15 L226,18 L222,18 L222,15 Z M222,27 L226,30 L222,30 L222,27 Z M203,65 L214.5,55 L226,65 L203,65 Z M220,39 L220,42 L217,42 L220,39 Z M215.272981,41 L212,38 L218,38 L215.272981,41 Z M217,35 L220,32 L220,35 L217,35 Z M215.274841,35 L212,32 L218,32 L215.274841,35 Z M217,30 L220,27 L220,30 L217,30 Z M215.274841,30 L212,27 L218,27 L215.274841,30 Z M217,24 L220,21 L220,24 L217,24 Z M218,21 L215.272981,24 L212,21 L218,21 Z M217,18 L220,15 L220,18 L217,18 Z M209,18 L209,15 L212,18 L209,18 Z M212,25 L209,25 L209,22 L212,25 Z M212,30 L209,30 L209,27 L212,30 Z M212,36 L209,36 L209,33 L212,36 Z M212,42 L209,42 L209,39 L212,42 Z M219,44 L214.5,52 L210,44 L219,44 Z M224.310537,55 L227,63 L218,55.0224147 L224.20418,55.0224147 C224.240009,55.0170048 224.275517,55.0095215 224.310537,55 Z M222,39 L226,42 L222,42 L222,39 Z M223,53 L216,53 L220.276912,45 L223,53 Z M220,10 L219.574823,12 L217,12 L220,10 Z M218,14 L215.272981,17 L212,14 L218,14 Z M212,12 L209.428393,12 L209,10 L212,12 Z M203,18 L207,15 L207,18 L203,18 Z M203,30 L207,27 L207,30 L203,30 Z M203,42 L207,39 L207,42 L203,42 Z M208.723088,45 L213,53 L206,53 L208.723088,45 Z M204.684435,55 C204.720439,55.0096348 204.756948,55.0171187 204.793783,55.0224147 L211,55.0224147 L202,63 L204.684435,55 Z" id="Shape" fill="#000000" fill-rule="nonzero"></path>
            </g>
        </g>
    </g>
</svg>