<?xml version="1.0" encoding="utf-8"?>
<!-- Generator: Adobe Illustrator 24.0.3, SVG Export Plug-In . SVG Version: 6.00 Build 0)  -->
<svg version="1.1" id="Layer_1" xmlns="http://www.w3.org/2000/svg" xmlns:xlink="http://www.w3.org/1999/xlink" x="0px" y="0px"
	 viewBox="0 0 56 65" style="enable-background:new 0 0 56 65;" xml:space="preserve">
<style type="text/css">
	.st0{fill:#0095DA;stroke:#0095DA;}
</style>
<title>Group 6</title>
<g id="Page-1">
	<g id="Group-8" transform="translate(-613.000000, -1256.000000)">
		<g transform="translate(128.000000, 1251.000000)">
			<g id="Group-6" transform="translate(486.000000, 6.000000)">
				<path id="Shape" class="st0" d="M12,12H6v6h6V12z M10.5,16.6h-3v-3.2h3V16.6z"/>
				<path id="Shape_1_" class="st0" d="M19,12h-6v6h6V12z M17.5,16.6h-3v-3.2h3V16.6z"/>
				<path id="Shape_2_" class="st0" d="M12,4H6v6h6V4z M10.5,8.6h-3V5.4h3V8.6z"/>
				<path id="Shape_3_" class="st0" d="M19,4h-6v6h6V4z M17.5,8.6h-3V5.4h3V8.6z"/>
				<path id="Shape_4_" class="st0" d="M23.3,32c0.4,0,0.7-0.3,0.7-0.7c0-0.4-0.3-0.7-0.7-0.7h-1.6V0H2.3v30.6H0.7
					C0.3,30.6,0,31,0,31.3C0,31.7,0.3,32,0.7,32H23.3z M16.6,30.6h-4v-9.3h4V30.6z M11.3,30.6h-4v-9.3h4V30.6z M3.6,30.6V1.4h16.8
					v29.3h-2.5V20h-5.3h-1.3H6v10.6H3.6z"/>
				<path id="Shape_5_" class="st0" d="M35,49h6v-6h-6V49L35,49z M36.5,44.4h3v3.2h-3V44.4z"/>
				<path id="Shape_6_" class="st0" d="M42,49h6v-6h-6V49L42,49z M43.5,44.4h3v3.2h-3V44.4z"/>
				<path id="Shape_7_" class="st0" d="M35,40h6v-6h-6V40L35,40z M36.5,35.4h3v3.2h-3V35.4z"/>
				<path id="Shape_8_" class="st0" d="M42,40h6v-6h-6V40L42,40z M43.5,35.4h3v3.2h-3V35.4z"/>
				<path id="Shape_9_" class="st0" d="M53.3,61.7h-1.6V31H32.3v30.6h-1.6c-0.4,0-0.7,0.3-0.7,0.7c0,0.4,0.3,0.7,0.7,0.7h22.7
					c0.4,0,0.7-0.3,0.7-0.7C54,62,53.7,61.7,53.3,61.7z M46.6,61.7h-4v-9.3h4V61.7z M41.3,61.7h-4v-9.3h4V61.7z M47.9,61.7V51h-5.3
					h-1.3H36v10.6h-2.4V32.4h16.8v29.3L47.9,61.7L47.9,61.7z"/>
				<path id="Path" class="st0" d="M29.9,12.8l-0.8-0.6C37,13,43.7,18.7,45.7,26.5c0.1,0.3,0.4,0.5,0.7,0.5c0.1,0,0.1,0,0.2,0
					c0.4-0.1,0.6-0.5,0.5-0.8c-2.2-8.5-9.4-14.6-18-15.4l1.3-0.5c0.4-0.1,0.5-0.5,0.4-0.9c-0.1-0.4-0.5-0.5-0.9-0.4L25,10.9l4.1,3
					c0.1,0.1,0.3,0.1,0.4,0.1c0.2,0,0.4-0.1,0.5-0.3C30.3,13.4,30.2,13,29.9,12.8z"/>
				<path id="Path_1_" class="st0" d="M24,50.3c-0.2,0.3-0.1,0.7,0.2,0.9l0.9,0.6c-8-0.7-14.7-6.4-16.7-14.3
					c-0.1-0.4-0.5-0.6-0.8-0.5c-0.4,0.1-0.6,0.5-0.5,0.8c2.2,8.5,9.5,14.7,18,15.4l-1.2,0.5c-0.3,0.1-0.5,0.5-0.4,0.9
					c0.1,0.3,0.4,0.4,0.6,0.4c0.1,0,0.2,0,0.2,0l4.7-1.9l-4.1-3C24.6,49.9,24.2,50,24,50.3z"/>
			</g>
		</g>
	</g>
</g>
</svg>
