<?xml version="1.0" encoding="utf-8"?>
<!-- Generator: Adobe Illustrator 24.0.3, SVG Export Plug-In . SVG Version: 6.00 Build 0)  -->
<svg version="1.1" id="Layer_1" xmlns="http://www.w3.org/2000/svg" xmlns:xlink="http://www.w3.org/1999/xlink" x="0px" y="0px"
	 viewBox="0 0 49 69" style="enable-background:new 0 0 49 69;" xml:space="preserve">
<style type="text/css">
	.st0{filter:url(#filter-1);}
	.st1{fill:#0095DA;}
</style>
<filter  id="filter-1">
	<feColorMatrix  in="SourceGraphic" type="matrix" values="0 0 0 0 0.000000 0 0 0 0 0.584314 0 0 0 0 0.854902 0 0 0 1.000000 0">
		</feColorMatrix>
</filter>
<title>Group 4</title>
<g id="Page-1">
	<g id="Group-8" transform="translate(-466.000000, -1251.000000)" class="st0">
		<g transform="translate(128.000000, 1251.000000)">
			<g id="Group-4_1_" transform="translate(338.000000, 0.000000)">
				<path id="Shape_3_" class="st1" d="M47.9,66.8h-4.8v-2.4c1.3-0.6,2.1-2.2,2.1-4.1c0-2.4-1.4-4.3-3.2-4.3c-1.8,0-3.2,1.9-3.2,4.3
					c0,1.9,0.9,3.5,2.1,4.1v2.4h-5.3v-5.4c0-1.2-1-2.2-2.1-2.2H15.4c-1.2,0-2.1,1-2.1,2.2v5.4H8v-2.4c1.3-0.6,2.1-2.2,2.1-4.1
					c0-2.4-1.4-4.3-3.2-4.3s-3.2,1.9-3.2,4.3c0,1.9,0.9,3.5,2.1,4.1v2.4H1.1c-0.6,0-1.1,0.5-1.1,1.1C0,68.5,0.5,69,1.1,69h46.9
					c0.6,0,1.1-0.5,1.1-1.1C49,67.3,48.5,66.8,47.9,66.8z M33.6,66.8h-8v-1.6c0-0.6-0.5-1.1-1.1-1.1s-1.1,0.5-1.1,1.1v1.6h-8v-5.4
					h18.1V66.8z"/>
				<path id="Shape_2_" class="st1" d="M33,57V16.7c0-1.2-1-2.2-2.1-2.2h-1.6v-2.7c0-1-0.7-1.8-1.6-2.1V7.5c0-1.2-1-2.2-2.1-2.2V1.1
					c0-0.6-0.5-1.1-1.1-1.1s-1.1,0.5-1.1,1.1v4.3c-1.2,0-2.1,1-2.1,2.2v2.2c-0.9,0.2-1.6,1.1-1.6,2.1v2.7h-1.6c-1.2,0-2.1,1-2.1,2.2
					V57H33z M27.7,54.8h-1.1c-0.6,0-1.1-0.5-1.1-1.1c0-0.6,0.5-1.1,1.1-1.1h1.1c0.6,0,1.1,0.5,1.1,1.1
					C28.8,54.4,28.3,54.8,27.7,54.8z M27.7,51.6h-1.1c-0.6,0-1.1-0.5-1.1-1.1s0.5-1.1,1.1-1.1h1.1c0.6,0,1.1,0.5,1.1,1.1
					S28.3,51.6,27.7,51.6z M27.7,48.4h-1.1c-0.6,0-1.1-0.5-1.1-1.1s0.5-1.1,1.1-1.1h1.1c0.6,0,1.1,0.5,1.1,1.1S28.3,48.4,27.7,48.4z
					 M27.7,45.2h-1.1c-0.6,0-1.1-0.5-1.1-1.1c0-0.6,0.5-1.1,1.1-1.1h1.1c0.6,0,1.1,0.5,1.1,1.1C28.8,44.7,28.3,45.2,27.7,45.2z
					 M27.7,41.9h-1.1c-0.6,0-1.1-0.5-1.1-1.1s0.5-1.1,1.1-1.1h1.1c0.6,0,1.1,0.5,1.1,1.1S28.3,41.9,27.7,41.9z M27.7,38.7h-1.1
					c-0.6,0-1.1-0.5-1.1-1.1s0.5-1.1,1.1-1.1h1.1c0.6,0,1.1,0.5,1.1,1.1S28.3,38.7,27.7,38.7z M27.7,35.5h-1.1
					c-0.6,0-1.1-0.5-1.1-1.1c0-0.6,0.5-1.1,1.1-1.1h1.1c0.6,0,1.1,0.5,1.1,1.1C28.8,35,28.3,35.5,27.7,35.5z M27.7,32.3h-1.1
					c-0.6,0-1.1-0.5-1.1-1.1c0-0.6,0.5-1.1,1.1-1.1h1.1c0.6,0,1.1,0.5,1.1,1.1C28.8,31.8,28.3,32.3,27.7,32.3z M27.7,29h-1.1
					c-0.6,0-1.1-0.5-1.1-1.1c0-0.6,0.5-1.1,1.1-1.1h1.1c0.6,0,1.1,0.5,1.1,1.1C28.8,28.6,28.3,29,27.7,29z M27.7,25.8h-1.1
					c-0.6,0-1.1-0.5-1.1-1.1c0-0.6,0.5-1.1,1.1-1.1h1.1c0.6,0,1.1,0.5,1.1,1.1C28.8,25.3,28.3,25.8,27.7,25.8z M27.7,22.6h-1.1
					c-0.6,0-1.1-0.5-1.1-1.1c0-0.6,0.5-1.1,1.1-1.1h1.1c0.6,0,1.1,0.5,1.1,1.1C28.8,22.1,28.3,22.6,27.7,22.6z M28.8,18.3
					c0,0.6-0.5,1.1-1.1,1.1h-1.1c-0.6,0-1.1-0.5-1.1-1.1c0-0.6,0.5-1.1,1.1-1.1h1.1C28.3,17.2,28.8,17.7,28.8,18.3L28.8,18.3z
					 M21.8,11.8h5.3v2.7h-5.3V11.8z M21.3,17.2h1.1c0.6,0,1.1,0.5,1.1,1.1c0,0.6-0.5,1.1-1.1,1.1h-1.1c-0.6,0-1.1-0.5-1.1-1.1
					C20.2,17.7,20.7,17.2,21.3,17.2z M21.3,20.4h1.1c0.6,0,1.1,0.5,1.1,1.1c0,0.6-0.5,1.1-1.1,1.1h-1.1c-0.6,0-1.1-0.5-1.1-1.1
					C20.2,20.9,20.7,20.4,21.3,20.4z M21.3,23.7h1.1c0.6,0,1.1,0.5,1.1,1.1c0,0.6-0.5,1.1-1.1,1.1h-1.1c-0.6,0-1.1-0.5-1.1-1.1
					C20.2,24.1,20.7,23.7,21.3,23.7z M21.3,26.9h1.1c0.6,0,1.1,0.5,1.1,1.1c0,0.6-0.5,1.1-1.1,1.1h-1.1c-0.6,0-1.1-0.5-1.1-1.1
					C20.2,27.4,20.7,26.9,21.3,26.9z M21.3,30.1h1.1c0.6,0,1.1,0.5,1.1,1.1c0,0.6-0.5,1.1-1.1,1.1h-1.1c-0.6,0-1.1-0.5-1.1-1.1
					C20.2,30.6,20.7,30.1,21.3,30.1z M21.3,33.3h1.1c0.6,0,1.1,0.5,1.1,1.1c0,0.6-0.5,1.1-1.1,1.1h-1.1c-0.6,0-1.1-0.5-1.1-1.1
					C20.2,33.8,20.7,33.3,21.3,33.3z M21.3,36.6h1.1c0.6,0,1.1,0.5,1.1,1.1s-0.5,1.1-1.1,1.1h-1.1c-0.6,0-1.1-0.5-1.1-1.1
					S20.7,36.6,21.3,36.6z M21.3,39.8h1.1c0.6,0,1.1,0.5,1.1,1.1s-0.5,1.1-1.1,1.1h-1.1c-0.6,0-1.1-0.5-1.1-1.1S20.7,39.8,21.3,39.8
					z M21.3,43h1.1c0.6,0,1.1,0.5,1.1,1.1c0,0.6-0.5,1.1-1.1,1.1h-1.1c-0.6,0-1.1-0.5-1.1-1.1C20.2,43.5,20.7,43,21.3,43z
					 M21.3,46.2h1.1c0.6,0,1.1,0.5,1.1,1.1s-0.5,1.1-1.1,1.1h-1.1c-0.6,0-1.1-0.5-1.1-1.1S20.7,46.2,21.3,46.2z M21.3,49.5h1.1
					c0.6,0,1.1,0.5,1.1,1.1s-0.5,1.1-1.1,1.1h-1.1c-0.6,0-1.1-0.5-1.1-1.1S20.7,49.5,21.3,49.5z M21.3,52.7h1.1
					c0.6,0,1.1,0.5,1.1,1.1c0,0.6-0.5,1.1-1.1,1.1h-1.1c-0.6,0-1.1-0.5-1.1-1.1C20.2,53.2,20.7,52.7,21.3,52.7z"/>
			</g>
		</g>
	</g>
</g>
</svg>
