<?xml version="1.0" encoding="utf-8"?>
<!-- Generator: Adobe Illustrator 24.0.3, SVG Export Plug-In . SVG Version: 6.00 Build 0)  -->
<svg version="1.1" id="Layer_1" xmlns="http://www.w3.org/2000/svg" xmlns:xlink="http://www.w3.org/1999/xlink" x="0px" y="0px"
	 viewBox="0 0 64 66" style="enable-background:new 0 0 64 66;" xml:space="preserve">
<style type="text/css">
	.st0{fill:#0095DA;}
</style>
<title>Group 7</title>
<g id="Page-1">
	<g id="Group-8" transform="translate(-927.000000, -1253.000000)">
		<g transform="translate(128.000000, 1251.000000)">
			<g id="Group-7" transform="translate(799.000000, 2.000000)">
				<path id="Path" class="st0" d="M34.5,63h-5.1c-0.8,0-1.5,0.7-1.5,1.5c0,0.8,0.7,1.5,1.5,1.5h5.1c0.8,0,1.5-0.7,1.5-1.5
					C36,63.7,35.3,63,34.5,63z"/>
				<path id="Path_1_" class="st0" d="M34,7.6V1.4C34,0.6,33.3,0,32.5,0C31.7,0,31,0.6,31,1.4v6.3C31,8.4,31.7,9,32.5,9
					C33.3,9,34,8.4,34,7.6z"/>
				<path id="Path_2_" class="st0" d="M20.5,12c0.2,0,0.4,0,0.7-0.1c0.8-0.4,1.1-1.2,0.7-2l-3-6c-0.4-0.7-1.3-1-2-0.7
					s-1.1,1.2-0.7,2l3,6C19.4,11.7,19.9,12,20.5,12z"/>
				<path id="Path_3_" class="st0" d="M7.3,12.3c-0.6-0.5-1.5-0.4-2,0.2c-0.5,0.6-0.4,1.5,0.2,2l5.1,4.1c0.3,0.2,0.6,0.3,0.9,0.3
					c0.4,0,0.8-0.2,1.1-0.5c0.5-0.6,0.4-1.5-0.2-2L7.3,12.3z"/>
				<path id="Path_4_" class="st0" d="M1.1,28.3L7.3,30c0.1,0,0.2,0,0.3,0c0.6,0,1.2-0.5,1.4-1.3c0.2-0.9-0.3-1.8-1.1-2L1.7,25
					C1,24.8,0.2,25.4,0,26.3C-0.1,27.2,0.3,28.1,1.1,28.3z"/>
				<path id="Path_5_" class="st0" d="M9,39.3C8.8,38.4,8,37.8,7.3,38l-6.2,1.7c-0.8,0.2-1.2,1.1-1.1,2C0.2,42.5,0.8,43,1.4,43
					c0.1,0,0.2,0,0.3,0l6.2-1.7C8.7,41.1,9.1,40.2,9,39.3z"/>
				<path id="Path_6_" class="st0" d="M10.7,48.3l-5.1,4.1c-0.6,0.5-0.7,1.4-0.2,2C5.6,54.8,6,55,6.4,55c0.3,0,0.6-0.1,0.9-0.3
					l5.1-4.1c0.6-0.5,0.7-1.4,0.2-2C12.2,47.9,11.3,47.8,10.7,48.3z"/>
				<path id="Path_7_" class="st0" d="M53.3,48.3c-0.6-0.5-1.5-0.4-2,0.2c-0.5,0.6-0.4,1.5,0.2,2l5.1,4.1c0.3,0.2,0.6,0.3,0.9,0.3
					c0.4,0,0.8-0.2,1.1-0.5c0.5-0.6,0.4-1.5-0.2-2L53.3,48.3z"/>
				<path id="Path_8_" class="st0" d="M62.9,39.7L56.7,38c-0.8-0.2-1.5,0.4-1.7,1.2c-0.2,0.9,0.3,1.8,1.1,2l6.2,1.7
					c0.1,0,0.2,0,0.3,0c0.6,0,1.2-0.5,1.4-1.3C64.1,40.8,63.7,39.9,62.9,39.7z"/>
				<path id="Path_9_" class="st0" d="M62.3,25l-6.2,1.7c-0.8,0.2-1.2,1.1-1.1,2c0.1,0.8,0.7,1.3,1.4,1.3c0.1,0,0.2,0,0.3,0l6.2-1.7
					c0.8-0.2,1.2-1.1,1.1-2C63.8,25.4,63,24.8,62.3,25z"/>
				<path id="Path_10_" class="st0" d="M51.3,18.5c0.3,0.4,0.7,0.5,1.1,0.5c0.3,0,0.6-0.1,0.9-0.3l5.1-4.1c0.6-0.5,0.7-1.4,0.2-2
					c-0.5-0.6-1.4-0.7-2-0.2l-5.1,4.1C50.9,16.9,50.8,17.8,51.3,18.5z"/>
				<path id="Path_11_" class="st0" d="M47.1,3.1c-0.7-0.4-1.7,0-2,0.7l-3,6c-0.4,0.7,0,1.6,0.7,2c0.2,0.1,0.4,0.1,0.7,0.1
					c0.6,0,1.1-0.3,1.4-0.8l3-6C48.2,4.4,47.9,3.5,47.1,3.1z"/>
				<path id="Shape" class="st0" d="M49.9,24.9c-2.4-4.7-6.4-8.3-11.3-9.9c-5-1.7-10.2-1.2-14.9,1.2c-9.6,5-13.4,17-8.6,26.8
					c1.9,3.8,4.9,6.8,8.6,8.8c0.4,0.2,0.6,0.5,0.6,0.9v6.8c0,1.4,1.1,2.5,2.5,2.5h11.5c1.4,0,2.5-1.1,2.5-2.5v-6.8
					c0-0.4,0.2-0.8,0.6-0.9C50.9,46.7,54.8,34.7,49.9,24.9z M40.7,50.4c-0.8,0.4-1.4,1.3-1.4,2.3v6.8c0,0.6-0.5,1.1-1,1.1H26.7
					c-0.6,0-1-0.5-1-1.1v-0.5h10.8c0.4,0,0.7-0.3,0.7-0.7c0-0.4-0.3-0.7-0.7-0.7H25.7v-1.1h10.8c0.4,0,0.7-0.3,0.7-0.7
					c0-0.4-0.3-0.7-0.7-0.7H25.7v-2.2c0-1-0.5-1.8-1.4-2.3c-3.5-1.8-6.2-4.6-8-8.1c-4.5-9.1-0.9-20.2,8-24.8
					c4.3-2.2,9.2-2.6,13.8-1.1c4.6,1.5,8.3,4.8,10.5,9.2C53.1,34.7,49.5,45.8,40.7,50.4z"/>
				<path id="Path_12_" class="st0" d="M39.2,27c-2.7,0-4.9,1.9-5.6,4.5H20.5c-0.8,0-1.5,0.7-1.5,1.5c0,0.8,0.6,1.4,1.4,1.5v3
					c0,0.8,0.7,1.5,1.5,1.5c0.8,0,1.5-0.7,1.5-1.5v-3h0.2v0.6c0,0.8,0.7,1.5,1.5,1.5c0.8,0,1.5-0.7,1.5-1.5v-0.6h7.1
					c0.7,2.6,2.9,4.5,5.6,4.5c3.2,0,5.8-2.7,5.8-6S42.4,27,39.2,27z"/>
			</g>
		</g>
	</g>
</g>
</svg>
