<?xml version="1.0" encoding="utf-8"?>
<!-- Generator: Adobe Illustrator 24.0.3, SVG Export Plug-In . SVG Version: 6.00 Build 0)  -->
<svg version="1.1" id="Layer_1" xmlns="http://www.w3.org/2000/svg" xmlns:xlink="http://www.w3.org/1999/xlink" x="0px" y="0px"
	 viewBox="0 0 61 47" style="enable-background:new 0 0 61 47;" xml:space="preserve">
<style type="text/css">
	.st0{fill:#0095DA;}
</style>
<title>Shape</title>
<g id="Page-1">
	<g id="Group-8" transform="translate(-767.000000, -1262.000000)">
		<g transform="translate(128.000000, 1251.000000)">
			<path id="Shape" class="st0" d="M689.4,12.4l-0.8,1.4h-17.7V11h-2.8v2.7H650l-0.8-1.4L639,29.9l0,0c1,2.3,6.1,3.9,10.4,3.9
				s9.4-1.6,10.4-3.9l0,0l-8.1-13.4h16.4V58h2.8V16.5H687l-7.8,13.4l0,0c1,2.3,6.1,3.9,10.4,3.9s9.4-1.6,10.4-3.9l0,0L689.4,12.4z
				 M655,27h-11l5.4-9L655,27z M684,27l5.4-9l5.6,9H684z"/>
		</g>
	</g>
</g>
</svg>
