<?xml version="1.0" encoding="utf-8"?>
<!-- Generator: Adobe Illustrator 24.0.3, SVG Export Plug-In . SVG Version: 6.00 Build 0)  -->
<svg version="1.1" id="Layer_1" xmlns="http://www.w3.org/2000/svg" xmlns:xlink="http://www.w3.org/1999/xlink" x="0px" y="0px"
	 viewBox="0 0 91 84" style="enable-background:new 0 0 91 84;" xml:space="preserve">
<style type="text/css">
	.st0{fill:#0095DA;}
</style>
<title>Shape</title>
<g id="Page-1">
	<g id="Group-8" transform="translate(-128.000000, -1251.000000)">
		<g transform="translate(128.000000, 1251.000000)">
			<path id="Shape" class="st0" d="M89.8,57H57.7v-5.2h-2.1c-2.1-7.1-3.8-13.9-4.9-20.5h1.7c0.6,0,1.1-0.5,1.1-1.1s-0.5-1.1-1.1-1.1
				h-2.1c-0.6-3.8-1-7.6-1.3-11.2h2.1c0.6,0,1.1-0.5,1.1-1.1c0-0.6-0.5-1.1-1.1-1.1h-2.3c-0.2-4-0.2-7.9,0-11.6
				c0-0.2,0.1-0.4,0.1-0.7C49,1.5,47.4,0,45.5,0C43.6,0,42,1.5,42,3.5c0,0.2,0,0.5,0.1,0.7c0.2,3.7,0.2,7.6,0,11.6h-2.3
				c-0.6,0-1.1,0.5-1.1,1.1c0,0.6,0.5,1.1,1.1,1.1H42c-0.3,3.6-0.7,7.4-1.3,11.2h-2.1c-0.6,0-1.1,0.5-1.1,1.1s0.5,1.1,1.1,1.1h1.7
				c-1.1,6.6-2.8,13.4-4.9,20.5h-2.1V57H1.2C0.5,57,0,57.5,0,58.1c0,0.6,0.5,1.2,1.2,1.2h43.2v4.2l-1,1c-0.2,0.2-0.2,0.6,0,0.8
				c0.1,0.1,0.3,0.2,0.4,0.2c0.1,0,0.3-0.1,0.4-0.2l0.1-0.1V67l-1,1c-0.2,0.2-0.2,0.6,0,0.8c0.1,0.1,0.3,0.2,0.4,0.2
				c0.1,0,0.3-0.1,0.4-0.2l0.1-0.1v1.8l-1,1c-0.2,0.2-0.2,0.6,0,0.8c0.1,0.1,0.3,0.2,0.4,0.2c0.1,0,0.3-0.1,0.4-0.2l0.1-0.1v1.8
				l-1,1c-0.2,0.2-0.2,0.6,0,0.8c0.1,0.1,0.3,0.2,0.4,0.2c0.1,0,0.3-0.1,0.4-0.2l0.1-0.1v1.8l-1,1c-0.2,0.2-0.2,0.6,0,0.8
				c0.1,0.1,0.3,0.2,0.4,0.2c0.1,0,0.3-0.1,0.4-0.2l0.1-0.1v1.8l-1,1c-0.2,0.2-0.2,0.6,0,0.8c0.1,0.1,0.3,0.2,0.4,0.2
				c0.1,0,0.3-0.1,0.4-0.2l0.1-0.1v0.3c0,0.6,0.5,1.2,1.2,1.2s1.2-0.5,1.2-1.2v-2.7l1-1c0.2-0.2,0.2-0.6,0-0.8s-0.6-0.2-0.8,0
				l-0.1,0.1v-1.8l1-1c0.2-0.2,0.2-0.6,0-0.8s-0.6-0.2-0.8,0l-0.1,0.1v-1.8l1-1c0.2-0.2,0.2-0.6,0-0.8c-0.2-0.2-0.6-0.2-0.8,0
				l-0.1,0.1v-1.8l1-1c0.2-0.2,0.2-0.6,0-0.8s-0.6-0.2-0.8,0l-0.1,0.1v-1.8l1-1c0.2-0.2,0.2-0.6,0-0.8s-0.6-0.2-0.8,0l-0.1,0.1v-1.8
				l1-1c0.2-0.2,0.2-0.6,0-0.8c-0.2-0.2-0.6-0.2-0.8,0l-0.1,0.1v-1.9h43.2c0.6,0,1.2-0.5,1.2-1.2C91,57.5,90.5,57,89.8,57z M46.3,18
				h0.2c0.1,0.8,0.1,1.6,0.2,2.5L46.3,21V18z M47,25.1l0.5-1.1c0.1,1.6,0.3,3.3,0.5,5h-1V25.1z M46,32h2.1c0.3,1.3,0.6,2.7,0.9,4
				l-3-2.2V32z M47,36l2,2l-2,1V36z M46,41.6l3.7-1.6c0.9,3.9,2,7.9,3.3,12h-1.1L46,48V41.6L46,41.6z M46,51l2,1h-2V51z M43.8,18H44
				v6.5L43,26C43.3,23.3,43.6,20.6,43.8,18z M43.8,29V30h-0.6L43.8,29z M43,32l2,1.9v6.3L41,42C41.8,38.6,42.4,35.3,43,32z M45,43v4
				l-4-2.5L45,43z M39.8,46l5.2,3.3V52h-7C38.7,50,39.3,48,39.8,46z"/>
		</g>
	</g>
</g>
</svg>
