<?xml version="1.0" encoding="utf-8"?>
<!-- Generator: Adobe Illustrator 24.0.3, SVG Export Plug-In . SVG Version: 6.00 Build 0)  -->
<svg version="1.1" id="Layer_1" xmlns="http://www.w3.org/2000/svg" xmlns:xlink="http://www.w3.org/1999/xlink" x="0px" y="0px"
	 viewBox="0 0 49 60" style="enable-background:new 0 0 49 60;" xml:space="preserve">
<style type="text/css">
	.st0{fill:#0095DA;}
</style>
<title>Shape</title>
<g id="Page-1">
	<g id="Group-8" transform="translate(-318.000000, -1258.000000)">
		<g transform="translate(128.000000, 1251.000000)">
			<path id="Shape" class="st0" d="M190,66c0,0.6,0.5,1,1,1h47c0.6,0,1-0.4,1-1c0-0.6-0.5-1-1-1h-8.5l-7.5-21h6.7v2c0,0.6,0.5,1,1,1
				s1-0.4,1-1v-3v0c0-0.1,0-0.2-0.1-0.4c0,0,0-0.1-0.1-0.1c0-0.1-0.1-0.1-0.1-0.2c0,0-0.1-0.1-0.1-0.1c0,0-0.1-0.1-0.1-0.1l-8.7-5.7
				V32h7.1v2c0,0.6,0.5,1,1,1s1-0.4,1-1v-3v0c0-0.1,0-0.2-0.1-0.4c0,0,0-0.1-0.1-0.1c0-0.1-0.1-0.1-0.1-0.2c0,0-0.1-0.1-0.1-0.1
				c0,0-0.1-0.1-0.1-0.1l-8.7-5.7V20h7.1v2c0,0.6,0.5,1,1,1s1-0.4,1-1v-3v0c0-0.1,0-0.2-0.1-0.4c0,0,0-0.1-0.1-0.1
				c0-0.1-0.1-0.1-0.1-0.2c0,0-0.1-0.1-0.1-0.1c0,0-0.1-0.1-0.1-0.1l-8.6-5.6l0.9-4.3c0.1-0.4-0.1-0.8-0.4-1c-0.4-0.2-0.8-0.2-1.1,0
				l-6.6,4.6l-6.6-4.6c-0.3-0.2-0.8-0.2-1.1,0c-0.4,0.2-0.5,0.6-0.4,1l0.9,4.3l-8.6,5.6c0,0-0.1,0.1-0.1,0.1c0,0-0.1,0.1-0.1,0.1
				c-0.1,0.1-0.1,0.1-0.1,0.2c0,0,0,0.1-0.1,0.1c0,0.1-0.1,0.2-0.1,0.4v0v3c0,0.6,0.5,1,1,1s1-0.4,1-1v-2h7.1v4.5l-8.7,5.7
				c0,0-0.1,0.1-0.1,0.1c0,0-0.1,0.1-0.1,0.1c-0.1,0.1-0.1,0.1-0.1,0.2c0,0,0,0.1-0.1,0.1c0,0.1-0.1,0.2-0.1,0.4v0v3
				c0,0.6,0.5,1,1,1s1-0.4,1-1v-2h7.1v4.5l-8.7,5.7c0,0-0.1,0.1-0.1,0.1c0,0-0.1,0.1-0.1,0.1c-0.1,0.1-0.1,0.1-0.1,0.2
				c0,0,0,0.1-0.1,0.1c0,0.1-0.1,0.2-0.1,0.4v0v3c0,0.6,0.5,1,1,1s1-0.4,1-1v-2h6.7l-7.5,21H191C190.5,65,190,65.4,190,66z M222,15
				l4,3h-4V15z M222,27l4,3h-4V27z M203,65l11.5-10L226,65H203z M220,39v3h-3L220,39z M215.3,41l-3.3-3h6L215.3,41z M217,35l3-3v3
				H217z M215.3,35l-3.3-3h6L215.3,35z M217,30l3-3v3H217z M215.3,30l-3.3-3h6L215.3,30z M217,24l3-3v3H217z M218,21l-2.7,3l-3.3-3
				H218z M217,18l3-3v3H217z M209,18v-3l3,3H209z M212,25h-3v-3L212,25z M212,30h-3v-3L212,30z M212,36h-3v-3L212,36z M212,42h-3v-3
				L212,42z M219,44l-4.5,8l-4.5-8H219z M224.3,55l2.7,8l-9-8h6.2C224.2,55,224.3,55,224.3,55z M222,39l4,3h-4V39z M223,53h-7l4.3-8
				L223,53z M220,10l-0.4,2H217L220,10z M218,14l-2.7,3l-3.3-3H218z M212,12h-2.6l-0.4-2L212,12z M203,18l4-3v3H203z M203,30l4-3v3
				H203z M203,42l4-3v3H203z M208.7,45l4.3,8h-7L208.7,45z M204.7,55c0,0,0.1,0,0.1,0h6.2l-9,8L204.7,55z"/>
		</g>
	</g>
</g>
</svg>
